<?xml version="1.0" encoding="utf-8"?><svg viewBox="0 0 117 22" xmlns="http://www.w3.org/2000/svg" xmlns:xlink="http://www.w3.org/1999/xlink"><style>:root>svg{display:none}:root>svg:target{display:block}</style><svg viewBox="0 0 117 22" id="logo" xmlns="http://www.w3.org/2000/svg"><path d="M1 1h17L8 18h9v4H0L10 6H1zm32 21c-6.075 0-11-4.925-11-11 0-.666.07-1.315.183-1.949l5.726 5.09c1.057 1.71 2.933 2.859 5.09 2.859a6 6 0 100-12c-2.243 0-4.176 1.246-5.205 3.07l-3.822-3.345A10.98 10.98 0 0133 0c6.075 0 11 4.925 11 11s-4.925 11-11 11zm17 0V12l5 3v7zm0-22l14 11V0h5v22L50 6zm41 4H81v5h9v4h-9v5h10v4H76V0h15zm26 18h-6l-5-6.875L101 22h-6l8-11-8-11h6l5 6.875L111 0h6l-8 11z"/></svg></svg>