<?xml version="1.0" encoding="iso-8859-1"?><!DOCTYPE svg PUBLIC "-//W3C//DTD SVG 1.1//EN" "http://www.w3.org/Graphics/SVG/1.1/DTD/svg11.dtd"><svg viewBox="0 0 512 512" xmlns="http://www.w3.org/2000/svg" xmlns:xlink="http://www.w3.org/1999/xlink"><style>:root>svg{display:none}:root>svg:target{display:block}</style><svg viewBox="0 0 284.935 284.936" id="angle-right" xmlns="http://www.w3.org/2000/svg"><path d="M222.701 135.9L89.652 2.857C87.748.955 85.557 0 83.084 0c-2.474 0-4.664.955-6.567 2.857L62.244 17.133c-1.906 1.903-2.855 4.089-2.855 6.567 0 2.478.949 4.664 2.855 6.567l112.204 112.204L62.244 254.677c-1.906 1.903-2.855 4.093-2.855 6.564 0 2.477.949 4.667 2.855 6.57l14.274 14.271c1.903 1.905 4.093 2.854 6.567 2.854 2.473 0 4.663-.951 6.567-2.854l133.042-133.044c1.902-1.902 2.854-4.093 2.854-6.567s-.945-4.664-2.847-6.571z"/></svg><svg viewBox="0 0 329.269 329" id="close" xmlns="http://www.w3.org/2000/svg"><path d="M194.8 164.77L323.013 36.555c8.343-8.34 8.343-21.825 0-30.164-8.34-8.34-21.825-8.34-30.164 0L164.633 134.605 36.422 6.391c-8.344-8.34-21.824-8.34-30.164 0-8.344 8.34-8.344 21.824 0 30.164l128.21 128.215L6.259 292.984c-8.344 8.34-8.344 21.825 0 30.164a21.266 21.266 0 0015.082 6.25c5.46 0 10.922-2.09 15.082-6.25l128.21-128.214 128.216 128.214a21.273 21.273 0 0015.082 6.25c5.46 0 10.922-2.09 15.082-6.25 8.343-8.34 8.343-21.824 0-30.164zm0 0"/></svg><svg viewBox="0 0 12 21" id="down-arrow" xmlns="http://www.w3.org/2000/svg"><path d="M.09 14.632a.995.995 0 01.922-.618h3.986V1.011a.998.998 0 011.993 0v13.003h3.987a1.002 1.002 0 01.705 1.708l-4.984 5.003a.994.994 0 01-1.409 0L.307 15.722a1.002 1.002 0 01-.216-1.09zm3.327 1.383l2.578 2.588 2.577-2.588z"/></svg><svg viewBox="0 0 117 22" id="logo" xmlns="http://www.w3.org/2000/svg"><path d="M1 1h17L8 18h9v4H0L10 6H1zm32 21c-6.075 0-11-4.925-11-11 0-.666.07-1.315.183-1.949l5.726 5.09c1.057 1.71 2.933 2.859 5.09 2.859a6 6 0 100-12c-2.243 0-4.176 1.246-5.205 3.07l-3.822-3.345A10.98 10.98 0 0133 0c6.075 0 11 4.925 11 11s-4.925 11-11 11zm17 0V12l5 3v7zm0-22l14 11V0h5v22L50 6zm41 4H81v5h9v4h-9v5h10v4H76V0h15zm26 18h-6l-5-6.875L101 22h-6l8-11-8-11h6l5 6.875L111 0h6l-8 11z"/></svg><svg viewBox="0 0 12 2" id="minus" xmlns="http://www.w3.org/2000/svg"><path d="M0 0h12v2H0z"/></svg><svg viewBox="0 0 512 512" id="next-arrow" xmlns="http://www.w3.org/2000/svg"><path d="M506.134 241.843l-.018-.019-104.504-104c-7.829-7.791-20.492-7.762-28.285.068-7.792 7.829-7.762 20.492.067 28.284L443.558 236H20c-11.046 0-20 8.954-20 20s8.954 20 20 20h423.557l-70.162 69.824c-7.829 7.792-7.859 20.455-.067 28.284 7.793 7.831 20.457 7.858 28.285.068l104.504-104 .018-.019c7.833-7.818 7.808-20.522-.001-28.314z"/></svg><svg viewBox="0 0 12 12" id="plus" xmlns="http://www.w3.org/2000/svg"><path d="M12 7H7v5H5V7H0V5h5V0h2v5h5z"/></svg><svg viewBox="0 0 512 512" id="prev-arrow" xmlns="http://www.w3.org/2000/svg"><path d="M492 236H68.442l70.164-69.824c7.829-7.792 7.859-20.455.067-28.284-7.792-7.83-20.456-7.859-28.285-.068l-104.504 104-.018.019c-7.809 7.792-7.834 20.496-.002 28.314l.018.019 104.504 104c7.828 7.79 20.492 7.763 28.285-.068 7.792-7.829 7.762-20.492-.067-28.284L68.442 276H492c11.046 0 20-8.954 20-20s-8.954-20-20-20z"/></svg><svg viewBox="0 0 12 21" id="to-top" xmlns="http://www.w3.org/2000/svg"><path fill="#375973" d="M11.91 6.367a.996.996 0 01-.922.618H7.002v13.004a.998.998 0 11-1.993 0V6.985H1.022a1.002 1.002 0 01-.705-1.708L5.302.275a.993.993 0 011.409 0l4.983 5.002c.285.286.37.716.216 1.09zM8.581 4.984L6.005 2.396 3.428 4.984z"/></svg></svg>