<svg width="69" height="22" viewBox="0 0 69 22" fill="none" xmlns="http://www.w3.org/2000/svg">
<path d="M7.32 14.28C7.32 15.816 7.016 17.128 6.408 18.216C5.8 19.304 4.952 20.136 3.864 20.712C2.792 21.304 1.544 21.624 0.12 21.672V18.288C1.208 18.224 2.096 17.888 2.784 17.28C3.472 16.672 3.816 15.648 3.816 14.208V0.335999H7.32V14.28ZM16.4974 18.288C15.2174 18.288 14.1294 18.048 13.2334 17.568C12.3534 17.088 11.6814 16.424 11.2174 15.576C10.7534 14.728 10.5214 13.752 10.5214 12.648C10.5214 11.592 10.7934 10.64 11.3374 9.792C11.8814 8.944 12.6094 8.272 13.5214 7.776C14.4334 7.264 15.4494 7.008 16.5694 7.008C18.0734 7.008 19.3054 7.448 20.2654 8.328C21.2414 9.192 21.8734 10.448 22.1614 12.096L14.0014 14.688L13.2574 12.864L19.1614 10.872L18.4654 11.184C18.3374 10.768 18.1054 10.408 17.7694 10.104C17.4494 9.784 16.9614 9.624 16.3054 9.624C15.8094 9.624 15.3694 9.744 14.9854 9.984C14.6174 10.208 14.3294 10.536 14.1214 10.968C13.9294 11.384 13.8334 11.88 13.8334 12.456C13.8334 13.112 13.9534 13.664 14.1934 14.112C14.4334 14.544 14.7614 14.872 15.1774 15.096C15.5934 15.32 16.0574 15.432 16.5694 15.432C16.9374 15.432 17.2894 15.368 17.6254 15.24C17.9774 15.112 18.3214 14.944 18.6574 14.736L20.1454 17.232C19.5854 17.552 18.9774 17.808 18.3214 18C17.6814 18.192 17.0734 18.288 16.4974 18.288ZM28.011 18.216C27.147 18.216 26.339 18.064 25.587 17.76C24.851 17.456 24.227 17.032 23.715 16.488L25.107 14.64C25.619 15.104 26.091 15.44 26.523 15.648C26.971 15.84 27.371 15.936 27.723 15.936C27.995 15.936 28.235 15.912 28.443 15.864C28.667 15.8 28.843 15.712 28.971 15.6C29.099 15.472 29.163 15.312 29.163 15.12C29.163 14.848 29.051 14.632 28.827 14.472C28.619 14.312 28.347 14.184 28.011 14.088C27.675 13.976 27.315 13.864 26.931 13.752C25.971 13.448 25.275 13.008 24.843 12.432C24.427 11.84 24.219 11.2 24.219 10.512C24.219 9.984 24.355 9.456 24.627 8.928C24.915 8.384 25.363 7.936 25.971 7.584C26.595 7.216 27.395 7.032 28.371 7.032C29.251 7.032 29.995 7.12 30.603 7.296C31.211 7.472 31.787 7.76 32.331 8.16L31.059 10.128C30.755 9.888 30.411 9.688 30.027 9.528C29.659 9.352 29.315 9.256 28.995 9.24C28.707 9.224 28.459 9.256 28.251 9.336C28.059 9.416 27.907 9.52 27.795 9.648C27.683 9.776 27.627 9.912 27.627 10.056C27.611 10.36 27.723 10.6 27.963 10.776C28.219 10.952 28.539 11.088 28.923 11.184C29.307 11.28 29.683 11.392 30.051 11.52C30.563 11.68 31.003 11.896 31.371 12.168C31.739 12.44 32.019 12.768 32.211 13.152C32.419 13.52 32.523 13.968 32.523 14.496C32.523 15.136 32.355 15.744 32.019 16.32C31.699 16.88 31.203 17.336 30.531 17.688C29.875 18.04 29.035 18.216 28.011 18.216ZM38.7454 18.216C37.8814 18.216 37.0734 18.064 36.3214 17.76C35.5854 17.456 34.9614 17.032 34.4494 16.488L35.8414 14.64C36.3534 15.104 36.8254 15.44 37.2574 15.648C37.7054 15.84 38.1054 15.936 38.4574 15.936C38.7294 15.936 38.9694 15.912 39.1774 15.864C39.4014 15.8 39.5774 15.712 39.7054 15.6C39.8334 15.472 39.8974 15.312 39.8974 15.12C39.8974 14.848 39.7854 14.632 39.5614 14.472C39.3534 14.312 39.0814 14.184 38.7454 14.088C38.4094 13.976 38.0494 13.864 37.6654 13.752C36.7054 13.448 36.0094 13.008 35.5774 12.432C35.1614 11.84 34.9534 11.2 34.9534 10.512C34.9534 9.984 35.0894 9.456 35.3614 8.928C35.6494 8.384 36.0974 7.936 36.7054 7.584C37.3294 7.216 38.1294 7.032 39.1054 7.032C39.9854 7.032 40.7294 7.12 41.3374 7.296C41.9454 7.472 42.5214 7.76 43.0654 8.16L41.7934 10.128C41.4894 9.888 41.1454 9.688 40.7614 9.528C40.3934 9.352 40.0494 9.256 39.7294 9.24C39.4414 9.224 39.1934 9.256 38.9854 9.336C38.7934 9.416 38.6414 9.52 38.5294 9.648C38.4174 9.776 38.3614 9.912 38.3614 10.056C38.3454 10.36 38.4574 10.6 38.6974 10.776C38.9534 10.952 39.2734 11.088 39.6574 11.184C40.0414 11.28 40.4174 11.392 40.7854 11.52C41.2974 11.68 41.7374 11.896 42.1054 12.168C42.4734 12.44 42.7534 12.768 42.9454 13.152C43.1534 13.52 43.2574 13.968 43.2574 14.496C43.2574 15.136 43.0894 15.744 42.7534 16.32C42.4334 16.88 41.9374 17.336 41.2654 17.688C40.6094 18.04 39.7694 18.216 38.7454 18.216ZM46.0718 7.512H49.4318V18H46.0718V7.512ZM45.9998 3.792C45.9998 3.296 46.1918 2.888 46.5758 2.568C46.9758 2.248 47.3998 2.088 47.8478 2.088C48.2958 2.088 48.7038 2.248 49.0718 2.568C49.4558 2.888 49.6478 3.296 49.6478 3.792C49.6478 4.288 49.4558 4.696 49.0718 5.016C48.7038 5.32 48.2958 5.472 47.8478 5.472C47.3998 5.472 46.9758 5.32 46.5758 5.016C46.1918 4.696 45.9998 4.288 45.9998 3.792ZM58.0521 18.288C56.7721 18.288 55.6841 18.048 54.7881 17.568C53.9081 17.088 53.2361 16.424 52.7721 15.576C52.3081 14.728 52.0761 13.752 52.0761 12.648C52.0761 11.592 52.3481 10.64 52.8921 9.792C53.4361 8.944 54.1641 8.272 55.0761 7.776C55.9881 7.264 57.0041 7.008 58.1241 7.008C59.6281 7.008 60.8601 7.448 61.8201 8.328C62.7961 9.192 63.4281 10.448 63.7161 12.096L55.5561 14.688L54.8121 12.864L60.7161 10.872L60.0201 11.184C59.8921 10.768 59.6601 10.408 59.3241 10.104C59.0041 9.784 58.5161 9.624 57.8601 9.624C57.3641 9.624 56.9241 9.744 56.5401 9.984C56.1721 10.208 55.8841 10.536 55.6761 10.968C55.4841 11.384 55.3881 11.88 55.3881 12.456C55.3881 13.112 55.5081 13.664 55.7481 14.112C55.9881 14.544 56.3161 14.872 56.7321 15.096C57.1481 15.32 57.6121 15.432 58.1241 15.432C58.4921 15.432 58.8441 15.368 59.1801 15.24C59.5321 15.112 59.8761 14.944 60.2121 14.736L61.7001 17.232C61.1401 17.552 60.5321 17.808 59.8761 18C59.2361 18.192 58.6281 18.288 58.0521 18.288ZM64.7897 16.272C64.7897 15.776 64.9657 15.36 65.3177 15.024C65.6857 14.688 66.0857 14.52 66.5177 14.52C66.9177 14.52 67.2937 14.688 67.6457 15.024C68.0137 15.36 68.1977 15.776 68.1977 16.272C68.1977 16.8 68.0137 17.224 67.6457 17.544C67.2937 17.848 66.9177 18 66.5177 18C66.0857 18 65.6857 17.848 65.3177 17.544C64.9657 17.224 64.7897 16.8 64.7897 16.272Z" fill="#EEEEEE"/>
</svg>
