<svg width="200" height="71" viewBox="0 0 200 71" fill="none" xmlns="http://www.w3.org/2000/svg">
<g clip-path="url(#clip0_1_141)">
<path d="M99.893 1.24734L91.4434 11.0691L91.3106 11.2235L91.1214 11.2221L79.0948 11.1333L79.1722 24.9343L79.1734 25.1514L79.0388 25.304L70.4799 35.0001L79.0387 44.696L79.1734 44.8486L79.1722 45.0657L79.0948 58.8667L91.1214 58.7779L91.3106 58.7765L91.4434 58.9309L99.893 68.7527L108.342 58.9309L108.475 58.7765L108.664 58.7779L120.691 58.8667L120.614 45.0657L120.612 44.8486L120.747 44.696L129.306 35.0001L120.747 25.304L120.612 25.1514L120.614 24.9343L120.691 11.1333L108.664 11.2221L108.475 11.2235L108.342 11.0691L99.893 1.24734V1.24734Z" stroke="black" stroke-width="1.02941"/>
<path d="M109.348 26.9922C109.264 26.6619 108.855 26.683 108.811 27.0234C108.556 29.0181 110.029 33.7355 109.502 35.9184C109.499 35.9325 109.495 35.9466 109.492 35.9607C109.378 36.4295 108.777 36.3376 108.772 35.8512C108.754 33.9655 108.322 31.9035 107.394 30.6408C103.899 25.8833 107.631 22.3732 107.493 21.2354C107.475 21.081 107.346 20.9935 107.217 21.0431C107.212 21.0454 107.208 21.0467 107.206 21.048C106.984 21.1888 106.774 21.3599 106.565 21.5261C105.167 22.6416 103.886 23.9835 103.146 25.7905C102.721 26.8295 102.608 27.9889 102.365 29.0916C102.273 29.5112 102.166 29.9264 102.042 30.3354C101.903 30.7942 101.708 31.2548 101.399 31.5947C101.261 31.7465 101.092 31.8586 100.904 31.9004C100.413 32.0096 100.153 31.6181 100.06 31.1575C99.7999 29.8771 99.9907 28.5844 100.088 27.2957C100.48 22.1071 95.5498 21.6242 97.3514 14.0588C97.829 12.0535 91.3777 18.643 93.551 24.3764C93.976 25.4975 93.9369 26.5673 93.4547 27.6485C92.9411 28.799 92.3094 29.8411 91.9978 31.1012C91.8859 31.5543 91.8231 32.0126 91.7735 32.4785C91.7099 33.0775 91.8617 33.9779 91.1718 34.1335C90.8858 34.1982 90.4895 34.1626 90.2527 33.9479C90.0675 33.7799 89.9652 33.5183 89.9043 33.2565C89.6187 32.0328 89.654 30.7951 89.7896 29.546C89.9088 28.4464 89.9924 26.3751 88.9958 28.4423C85.785 35.103 85.8999 43.3991 89.8199 49.6488C91.3271 52.0518 93.2393 53.5834 95.7415 54.2831C100.829 55.7056 106.912 55.275 110.116 50.259C111.339 48.3429 112.074 46.003 112.554 43.7113C113.168 40.7836 113.286 38.0025 112.325 35.1615C111.393 32.4045 110.075 29.8419 109.348 26.9922Z" fill="black"/>
</g>
<path d="M160.5 35.5C160.5 31.0817 164.082 27.5 168.5 27.5C172.918 27.5 176.5 31.0817 176.5 35.5C176.5 39.9183 172.918 43.5 168.5 43.5C164.082 43.5 160.5 39.9183 160.5 35.5Z" fill="#8B83F6" stroke="black"/>
<path d="M22.5 35.5C22.5 31.0817 26.0817 27.5 30.5 27.5C34.9183 27.5 38.5 31.0817 38.5 35.5C38.5 39.9183 34.9183 43.5 30.5 43.5C26.0817 43.5 22.5 39.9183 22.5 35.5Z" fill="#FB4B4D" stroke="black"/>
<defs>
<clipPath id="clip0_1_141">
<rect width="61" height="70" fill="white" transform="translate(69)"/>
</clipPath>
</defs>
</svg>
