<svg width="68" height="31" viewBox="0 0 68 31" fill="none" xmlns="http://www.w3.org/2000/svg">
<path d="M39.7563 21.7571C39.6255 21.6819 39.4936 21.6077 39.3638 21.5304C38.8941 21.2388 38.3925 21.0019 37.8688 20.8247C37.6325 20.7439 37.4007 20.6507 37.1744 20.5454C36.9869 20.462 36.788 20.4105 36.5922 20.3497C35.8195 20.1148 35.0066 20.0375 34.2215 19.8572C34.1865 19.849 34.1515 19.8397 34.1154 19.8387C34.0659 19.8366 34.0196 19.8634 34.0052 19.9128C33.9731 20.0235 33.9476 20.136 33.9289 20.2497C33.9238 20.2776 33.9516 20.3219 33.9763 20.3383C34.0721 20.4033 34.1752 20.4517 34.2936 20.4723C34.6831 20.5423 35.0705 20.6176 35.4579 20.6928C35.6258 20.7247 35.7927 20.7587 35.9596 20.7958C36.0204 20.8092 36.0822 20.8257 36.1369 20.8535C36.2656 20.9194 36.4016 20.9545 36.549 20.9658C36.6365 20.973 36.7272 20.9967 36.8065 21.0338C37.2568 21.2502 37.7328 21.4047 38.1985 21.584C38.3067 21.6252 38.4107 21.6767 38.5107 21.7344C38.9661 21.9961 39.4194 22.2619 39.8738 22.5277C40.0427 22.6256 40.2107 22.7266 40.3786 22.8255C40.7341 23.0336 41.1173 23.1789 41.5161 23.286C41.991 23.4138 42.4639 23.5477 42.9399 23.6755C43.2171 23.7497 43.4994 23.8043 43.792 23.8053C44.2216 23.8074 44.6368 23.8795 45.0541 23.9516C45.3632 24.0052 45.6775 24.0443 45.9896 24.0887L47.2188 24.2638C47.3259 24.2793 47.4331 24.2937 47.5402 24.305C47.7772 24.3318 48.0121 24.2978 48.246 24.2133C48.3497 24.1731 48.4575 24.144 48.5675 24.1268C48.7498 24.1031 48.8848 24.0196 48.9538 23.8331C48.9806 23.759 49.029 23.7239 49.1001 23.7177C49.4113 23.693 49.7214 23.6683 50.0222 23.7456C50.117 23.7703 50.2149 23.7868 50.3118 23.8053C50.4577 23.8371 50.6103 23.814 50.7404 23.7404C51.0546 23.5622 51.3792 23.5405 51.7068 23.5766C52.3456 23.6487 52.9699 23.7723 53.5861 23.932C54.0888 24.0619 54.5855 24.2164 55.0944 24.3215C55.692 24.4451 56.2762 24.6151 56.8665 24.7645C57.4013 24.9005 57.9453 24.952 58.5068 24.9047C58.8993 24.8707 59.2919 24.847 59.6844 24.8016C60.2325 24.7357 60.7796 24.7213 61.3267 24.6965C62.0304 24.6656 62.7331 24.61 63.4347 24.4822C63.4883 24.4719 63.546 24.4616 63.5975 24.4688C63.6253 24.473 63.649 24.5121 63.6665 24.541C63.6707 24.5502 63.6439 24.5935 63.6253 24.5997C63.3121 24.7068 63.0278 24.884 62.7434 25.0602C62.4024 25.2714 62.0603 25.4816 61.7203 25.6949C61.6317 25.7505 61.541 25.8072 61.4627 25.8773C61.397 25.9339 61.3416 26.0016 61.2989 26.0771C61.201 26.2595 61.3082 26.4316 61.5039 26.412C61.5681 26.4038 61.6307 26.3857 61.6894 26.3584C61.7584 26.3275 61.8233 26.2853 61.8882 26.2451C62.3189 25.9793 62.7516 25.7165 63.1802 25.4456C63.5172 25.2333 63.8736 25.0953 64.2497 25.0221C64.3218 25.0077 64.3939 24.9891 64.4671 24.9788C65.2079 24.8696 65.8395 24.4946 66.4061 23.9722C66.5345 23.8443 66.6882 23.7446 66.8574 23.6796C66.9682 23.6459 67.0655 23.5782 67.1356 23.4859C67.1977 23.3997 67.2914 23.3415 67.3962 23.3242C67.5178 23.3036 67.6157 23.354 67.6507 23.4715C67.6718 23.5449 67.6778 23.6219 67.6682 23.6977C67.6586 23.7735 67.6338 23.8466 67.5951 23.9125C67.4447 24.1742 67.3087 24.4451 67.1232 24.6873C66.9759 24.881 66.843 25.086 66.6977 25.2817C66.4288 25.6475 66.1001 25.9453 65.7375 26.2028C65.3927 26.4437 65.0312 26.6596 64.6556 26.8488C64.4197 26.9694 64.1848 27.0951 63.9509 27.2197C63.8239 27.2894 63.7085 27.3784 63.6088 27.4835C63.4863 27.6073 63.3602 27.7275 63.2307 27.8441C63.1052 27.9631 62.9625 28.0624 62.8073 28.1388C62.731 28.1748 62.661 28.2274 62.5909 28.2779C62.4188 28.4005 62.253 28.5334 62.0778 28.6498C61.8048 28.8311 61.5163 28.9692 61.2041 29.0413C61.0702 29.0722 60.9332 29.1176 60.8064 29.1783C60.6507 29.2614 60.4759 29.3019 60.2995 29.2958C60.1984 29.2889 60.0969 29.3018 60.0007 29.3339C59.3506 29.5668 58.685 29.6574 58.0184 29.7306C57.6527 29.7718 57.2869 29.7842 56.9232 29.8161C56.6131 29.8429 56.3019 29.8759 55.9918 29.9099C55.59 29.9542 55.1892 30.0026 54.7874 30.05C54.7328 30.0562 54.6802 30.0603 54.6339 30.1056C54.4701 30.2622 54.2702 30.3045 54.0672 30.3343C53.769 30.3764 53.4674 30.3895 53.1667 30.3735C53.0026 30.3605 52.8374 30.3713 52.6763 30.4054C52.5973 30.4278 52.5147 30.4341 52.4333 30.4238C52.3518 30.4135 52.2733 30.387 52.2024 30.3457C52.1405 30.3076 52.0859 30.3127 52.0231 30.3354C51.953 30.3611 51.8819 30.3848 51.8108 30.4116C51.545 30.5095 51.2751 30.5713 50.999 30.5919C50.8444 30.6043 50.6899 30.63 50.5343 30.6507C50.2767 30.6836 50.0284 30.6692 49.776 30.6239C48.9615 30.4776 48.1451 30.3423 47.327 30.2179C46.4007 30.0788 45.4693 29.9655 44.5452 29.8223C44.0755 29.7443 43.6091 29.6481 43.147 29.5338C42.5288 29.3875 41.9138 29.2247 41.3162 29.0125C40.9633 28.8871 40.6126 28.7555 40.2642 28.6179C40.1319 28.5642 40.0053 28.4976 39.8861 28.419C39.5873 28.2253 39.2885 28.0306 39.0001 27.8214C38.7682 27.6545 38.5828 27.432 38.4076 27.2033C38.3131 27.0823 38.222 26.9586 38.1346 26.8323C37.8029 26.3481 37.3681 25.9834 36.8828 25.6763C36.5809 25.4847 36.2512 25.3487 35.9246 25.2076C35.7185 25.12 35.5084 25.0458 35.3013 24.9644C35.1949 24.915 35.0785 24.8911 34.9613 24.8943C34.9083 24.8953 34.857 24.9127 34.8144 24.944C34.7718 24.9754 34.7399 25.0192 34.7233 25.0695C34.7045 25.1129 34.7001 25.1612 34.7106 25.2074C34.7212 25.2535 34.7462 25.2951 34.782 25.326C34.8541 25.3899 34.9365 25.4476 35.0252 25.4868C35.2446 25.5847 35.4682 25.6722 35.6928 25.7608C36.244 25.9782 36.755 26.2616 37.1991 26.6572C37.2856 26.7345 37.3639 26.822 37.4412 26.9086C37.4711 26.9405 37.4927 26.9807 37.5164 27.0178C37.4639 27.0652 37.4134 27.0405 37.3619 27.025C37.0631 26.9292 36.7437 26.9117 36.4336 26.8643C35.9978 26.7963 35.5619 26.7324 35.1251 26.6654C34.8869 26.6238 34.6534 26.5592 34.4276 26.4728C33.8485 26.2667 33.2675 26.0607 32.6905 25.8463C32.3484 25.7196 32.0105 25.5805 31.6736 25.4383C31.2388 25.255 30.8071 25.0643 30.3754 24.8748C30.1786 24.7893 29.9839 24.7017 29.7902 24.611C29.4759 24.4627 29.1638 24.3102 28.8495 24.1618C28.5682 24.0299 28.2828 23.9022 28.0005 23.7713C27.7255 23.6446 27.4504 23.5189 27.1784 23.387C26.929 23.2675 26.6848 23.1397 26.4365 23.0182C25.9873 22.8018 25.5402 22.5803 25.0869 22.3732C24.7581 22.214 24.4515 22.0124 24.175 21.7736C23.5072 21.2224 22.8637 20.6425 22.2463 20.0354C22.0742 19.8665 21.8878 19.714 21.7085 19.5533C21.6972 19.543 21.692 19.5244 21.6838 19.51L21.759 19.4801C21.7672 19.477 21.7775 19.4801 21.7858 19.4822C22.0948 19.5399 22.4019 19.611 22.6924 19.7263C23.1643 19.9139 23.6238 20.1313 24.0607 20.3899C24.513 20.6577 24.9756 20.9071 25.4619 21.108C25.9667 21.3151 26.4963 21.448 27.0393 21.5356C27.1208 21.545 27.2033 21.5408 27.2835 21.5232C27.3391 21.5109 27.3911 21.4855 27.4349 21.449C27.5534 21.3542 27.5688 21.2017 27.472 21.1008C27.436 21.0616 27.3911 21.0316 27.3412 21.0132C27.2484 20.9823 27.1516 20.9637 27.0547 20.9431C26.6591 20.8628 26.2645 20.7752 25.8905 20.6289C25.5144 20.4888 25.1493 20.3208 24.7984 20.1261C24.5665 19.9942 24.3388 19.8531 24.1029 19.7284C23.6393 19.4832 23.1695 19.2493 22.6646 19.0896C22.2278 18.9485 21.7744 18.8654 21.3159 18.8423C21.0718 18.831 20.8265 18.8238 20.5824 18.8135C20.4917 18.8104 20.4 18.8094 20.3104 18.798C20.2135 18.7857 20.1167 18.7713 20.0445 18.6888C19.9807 18.6167 19.89 18.5971 19.7952 18.6322C19.6994 18.6672 19.6128 18.6445 19.5284 18.6198C19.0745 18.4867 18.6281 18.3295 18.191 18.149C17.7964 17.9841 17.4008 17.8223 17.0185 17.6307C16.8985 17.5727 16.7813 17.5091 16.6672 17.4401C16.4096 17.2794 16.1572 17.1125 15.9048 16.9476C15.6312 16.7775 15.3841 16.5682 15.1712 16.3263C15.0733 16.211 14.9909 16.0791 14.9033 15.9544C14.8776 15.9173 14.8611 15.872 14.8343 15.837C14.7972 15.7875 14.7261 15.7473 14.721 15.6937C14.7158 15.6144 14.7519 15.5268 14.7776 15.4444C14.8013 15.3713 14.8353 15.3002 14.8652 15.228C14.9641 14.9931 15.0342 14.752 15.0507 14.5007C15.0579 14.4048 15.0682 14.309 15.0692 14.2142C15.0775 13.7928 15.1444 13.3766 15.232 12.9583C15.3144 12.5585 15.4319 12.1753 15.6019 11.7992C15.9336 11.0646 16.4467 10.5731 17.205 10.3928C17.5914 10.3001 17.9695 10.2795 18.3301 10.4299C18.3961 10.4577 18.4682 10.468 18.5352 10.4928C18.7742 10.5824 19.0235 10.5979 19.2832 10.567C19.7138 10.5154 20.1414 10.502 20.5638 10.5597C21.0099 10.6216 21.455 10.6906 21.8795 10.8338C22.0578 10.8925 22.2298 10.9677 22.406 11.0296C22.4891 11.0625 22.5766 11.0833 22.6656 11.0914C22.8346 11.0986 22.9418 10.9265 22.8645 10.773C22.7794 10.6132 22.6408 10.4885 22.473 10.4207C22.153 10.2815 21.8185 10.1785 21.4756 10.1136C21.3087 10.0796 21.1398 10.0518 20.9718 10.0209C20.4342 9.92682 19.8857 9.91259 19.3439 9.97865C19.1111 10.0065 18.8885 9.99926 18.6773 9.91271C18.6444 9.89829 18.6052 9.89829 18.5743 9.88489C18.0561 9.66544 17.5162 9.71489 16.966 9.86326C16.9032 9.87974 16.8413 9.90344 16.7775 9.91683C16.7548 9.92096 16.7177 9.91374 16.7332 9.87356C16.7929 9.71902 16.8568 9.5655 16.9825 9.45011C17.067 9.37077 17.1484 9.28526 17.2401 9.21726C17.442 9.06786 17.6357 8.90817 17.8129 8.72889C17.8793 8.66022 17.9647 8.61288 18.0581 8.59289C18.2951 8.54035 18.5135 8.43629 18.733 8.31471C18.9298 8.20447 19.1502 8.14368 19.3635 8.07774C19.4398 8.05302 19.5273 8.06641 19.6067 8.07774C19.7313 8.09423 19.856 8.11689 19.9776 8.1478C20.4196 8.26114 20.8636 8.37138 21.3005 8.49811C21.5838 8.58053 21.861 8.68047 22.135 8.78659C22.8748 9.07405 23.6166 9.35635 24.3759 9.59332C24.6397 9.67574 24.9086 9.74786 25.1744 9.82514C25.5433 9.93435 25.8977 10.0807 26.2408 10.2527C26.6859 10.4773 27.1268 10.7071 27.5534 10.9677C28.0098 11.2459 28.3725 11.623 28.6661 12.0763C28.8196 12.3113 28.969 12.5503 29.1298 12.777C29.445 13.222 29.8232 13.6033 30.2198 13.9639C30.3115 14.0463 30.4218 14.1102 30.5279 14.1751C30.6052 14.2225 30.6927 14.239 30.7885 14.2204C30.9462 14.1905 31.0482 14.0092 30.9719 13.8701C30.9239 13.7839 30.8583 13.7088 30.7793 13.6496C30.5351 13.4673 30.3249 13.2478 30.1116 13.0314C29.8544 12.7668 29.6232 12.478 29.4213 12.1691C29.397 12.1309 29.3756 12.091 29.3575 12.0496C29.3533 12.0423 29.3708 12.0125 29.3781 12.0125C29.4502 12.0125 29.5223 12.0125 29.5944 12.0187C30.0951 12.0692 30.5885 12.1752 31.0657 12.335C31.3109 12.4153 31.5541 12.506 31.7766 12.6389C32.0826 12.8213 32.3948 12.9943 32.6936 13.187C32.9336 13.3395 33.1562 13.5208 33.3921 13.6785C33.7836 13.9422 34.1648 14.2204 34.5801 14.4481C34.6027 14.4605 34.6254 14.478 34.6512 14.4842C34.8974 14.548 35.1004 14.6974 35.3209 14.8118C35.4785 14.8942 35.6402 14.9684 35.7989 15.0498C36.0998 15.2054 36.3913 15.3733 36.6675 15.5722C37.1156 15.8947 37.5442 16.2429 37.9708 16.5953C38.3623 16.9188 38.7518 17.2464 39.1587 17.5493C39.509 17.81 39.8758 18.0459 40.2436 18.2808C41.0267 18.7785 41.7633 19.3359 42.4011 20.0231C42.7741 20.4249 43.1862 20.7803 43.6045 21.1286C43.7817 21.2759 43.9744 21.4068 44.165 21.5366C44.4019 21.6963 44.6389 21.856 44.8852 21.9982C45.1551 22.1527 45.4312 22.297 45.7135 22.4288C46.4399 22.7709 47.1147 23.2047 47.8225 23.5828C47.8535 23.5993 47.8844 23.6178 47.9132 23.6384C47.9266 23.6487 47.9348 23.6662 47.9462 23.6796C47.9225 23.694 47.8978 23.7188 47.8741 23.7188C47.7484 23.7198 47.6185 23.727 47.4949 23.7105C47.1735 23.6673 46.8551 23.6127 46.5347 23.5622C46.4553 23.5498 46.376 23.5292 46.2946 23.5251C45.833 23.4973 45.3828 23.4128 44.9315 23.3303C44.6034 23.2668 44.2704 23.2323 43.9362 23.2273C43.6833 23.2258 43.4316 23.1918 43.1872 23.1263C42.6082 22.9718 42.0312 22.8111 41.4553 22.6473C41.1973 22.5739 40.9495 22.4687 40.7176 22.334L39.746 21.7736C39.7501 21.7694 39.7532 21.7633 39.7563 21.7571Z" fill="black"/>
<path d="M7.80454 8.10141C7.94466 8.16323 8.12806 8.25596 8.31969 8.32602C8.6123 8.4342 8.90903 8.53208 9.20781 8.6248C9.49939 8.71547 9.80333 8.75256 10.1145 8.74844C10.2598 8.74844 10.4061 8.74535 10.5513 8.73608C10.9946 8.70415 11.4402 8.73152 11.8763 8.81747C11.9299 8.82778 11.9845 8.8319 12.036 8.84632C12.1184 8.86899 12.1957 8.84838 12.274 8.80511C12.4162 8.72784 12.5604 8.65777 12.7036 8.58359C12.8201 8.52301 12.9477 8.48689 13.0787 8.47747C13.2971 8.46202 13.5165 8.44141 13.735 8.43626C13.9544 8.43111 14.1687 8.40638 14.3871 8.34147C14.6272 8.26935 14.8745 8.23123 15.1187 8.1828C15.301 8.14571 15.4782 8.09008 15.6524 8.01487C16.0219 7.8592 16.4113 7.75586 16.8094 7.70784C17.0845 7.67074 17.3544 7.70784 17.6192 7.75935C17.7377 7.78202 17.7665 7.87681 17.7016 7.99632C17.6131 8.15908 17.4839 8.2961 17.3266 8.39402C16.9485 8.63099 16.6394 8.95038 16.3561 9.29862C16.2873 9.38111 16.2326 9.47441 16.1943 9.57474C16.1123 9.78394 15.9858 9.97275 15.8234 10.128C15.7358 10.2187 15.6462 10.3083 15.5617 10.4021C15.4934 10.4826 15.4092 10.5482 15.3144 10.5947C15.1764 10.6586 15.0981 10.7647 15.0599 10.9244C15.0115 11.1202 14.9456 11.316 14.859 11.5014C14.6839 11.8764 14.587 12.269 14.5201 12.6698C14.4768 12.9263 14.4428 13.1839 14.3985 13.4394C14.3053 14.013 14.1633 14.5776 13.974 15.127C13.9328 15.2445 13.8741 15.3599 13.8091 15.4691C13.6804 15.6855 13.3785 15.7432 13.2157 15.5783C13.142 15.4994 13.0787 15.4115 13.0271 15.3166C12.9859 15.2446 12.9557 15.1668 12.9375 15.0858C12.8654 14.7695 12.7088 14.5078 12.5223 14.2616C12.3544 14.038 12.2081 13.798 12.0381 13.5754C11.8402 13.3189 11.627 13.0767 11.423 12.8264C11.2236 12.5831 11.0258 12.3386 10.8295 12.0928C10.7237 11.9642 10.6581 11.8072 10.641 11.6415C10.6348 11.5797 10.6049 11.5385 10.5482 11.5189C10.0959 11.3555 9.65255 11.1681 9.22018 10.9574C8.71224 10.7204 8.21048 10.4701 7.72624 10.1878C7.39654 9.99614 7.08848 9.76638 6.77527 9.54796C6.44007 9.31191 6.11909 9.05629 5.81399 8.78244C5.37883 8.39353 4.98865 7.95705 4.65078 7.48117C4.48284 7.24626 4.32109 7.0062 4.17066 6.75893C3.78339 6.11319 3.55001 5.38696 3.4886 4.6365C3.43215 4.12286 3.45298 3.60366 3.55042 3.0962C3.60709 2.82214 3.66993 2.54808 3.73793 2.27608C3.76236 2.19423 3.76765 2.10787 3.75339 2.02365C3.70239 1.74639 3.75599 1.46007 3.90381 1.22002C4.00169 1.05105 4.11193 0.88826 4.23351 0.736805C4.39733 0.532805 4.62399 0.489533 4.82593 0.610078C4.89393 0.65129 4.95987 0.702805 5.0083 0.764624C5.1546 0.945957 5.29884 1.13141 5.43072 1.32511C5.61824 1.6002 5.61721 1.91547 5.41218 2.20087C5.32623 2.33 5.25862 2.47043 5.21127 2.61814C5.1783 2.70881 5.15975 2.80462 5.13193 2.89838C5.08557 3.06014 5.05981 3.20953 5.16696 3.35481C5.21539 3.41971 5.21436 3.53099 5.2226 3.62371C5.22981 3.70717 5.22054 3.79474 5.21848 3.88129C5.20053 4.49112 5.32802 5.09645 5.59042 5.64723C5.71509 5.91099 5.85109 6.16959 5.99636 6.42202C6.25703 6.87535 6.60218 7.25141 7.01533 7.55432C7.25951 7.73359 7.51193 7.89947 7.80454 8.10141Z" fill="black"/>
</svg>
