<svg width="225" height="156" viewBox="0 0 225 156" fill="none" xmlns="http://www.w3.org/2000/svg">
<path d="M91.3007 0.126828C93.4241 0.0970644 95.0601 0.430617 96.5513 1.14083C100.688 3.11238 101.206 7.04933 99.7103 9.95072C99.5912 10.1806 99.4588 10.4136 99.2905 10.6076C98.3412 11.6934 97.6207 12.9342 96.8725 14.1566C95.5045 16.3867 93.9691 18.4845 92.0663 20.297C89.8064 22.4502 87.1913 23.8973 84.0703 24.354C83.4124 24.4505 82.8069 24.6753 82.306 25.1227C82.1849 25.2295 82.1069 25.3999 82.0484 25.5579C81.9653 25.7837 82.2814 26.1347 82.4928 26.0577C82.6965 25.9857 82.8924 25.8936 83.0778 25.7827C83.4494 25.5585 83.8617 25.4102 84.2909 25.3465C88.2936 24.703 91.4546 22.6103 94.1107 19.6402C95.4778 18.111 96.6447 16.4411 97.7254 14.7056C97.9327 14.3741 98.1862 14.058 98.3227 13.6988C98.7599 12.5452 99.7123 12.5452 100.675 12.6345C100.94 12.6581 101.226 12.885 101.422 13.0943C101.758 13.4494 101.907 13.9133 101.928 14.4049C101.993 15.8469 101.916 17.2663 101.365 18.6313C100.672 20.3432 99.6805 21.8611 98.4459 23.2261C97.0716 24.7451 95.5394 26.0947 93.8942 27.3109C93.4436 27.6454 92.9592 27.9513 92.4553 28.1976C90.3503 29.227 88.2433 30.2543 86.1106 31.2263C85.3675 31.5649 84.5619 31.7876 83.7675 31.9888C82.3522 32.348 81.1986 31.8585 80.3191 30.7357C79.8655 30.1558 79.4867 29.5164 79.0731 28.9047C78.2741 27.7108 77.2801 26.6596 76.1327 25.795C74.5953 24.6373 72.8516 24.0328 70.9581 23.8635C70.3541 23.8162 69.7465 23.8507 69.1518 23.9661C68.4025 24.1067 67.8914 23.8101 67.4511 23.2723C67.4234 23.2395 67.3947 23.2066 67.3711 23.1697C66.1262 21.2874 64.8802 19.4062 63.6415 17.5188C63.4762 17.2663 63.3531 16.9851 63.2207 16.7121C63.1293 16.5222 63.2094 16.3672 63.388 16.2913C64.3465 15.8808 65.3482 15.9588 66.3376 16.0932C67.2859 16.2215 68.1983 16.512 69.0902 16.863C70.0621 17.2458 71.0648 17.487 72.1024 17.6501C73.4359 17.869 74.8016 17.7827 76.0968 17.3977C77.8816 16.864 79.6273 16.1969 81.3885 15.5801C81.5496 15.5236 81.7005 15.4282 81.8483 15.3389C82.0505 15.2167 82.1531 14.9407 82.0577 14.7867C82.0024 14.6921 81.9173 14.6184 81.8157 14.5774C81.7141 14.5363 81.6018 14.5302 81.4963 14.5599C81.1176 14.6482 80.744 14.7662 80.3755 14.8935C79.2261 15.2906 78.0756 15.6806 76.9374 16.1045C74.5522 16.9912 72.1886 16.941 69.8106 16.0542C68.8798 15.7073 67.915 15.4395 66.9493 15.1993C65.6633 14.8791 64.3691 14.8832 63.0903 15.2947C62.7424 15.4076 62.649 15.3112 62.5525 14.9561C62.221 13.743 62.4253 12.5391 62.6203 11.3404C62.7065 10.8139 63.0246 10.3756 63.4033 10.0102C65.145 8.34249 67.0129 6.88512 69.4525 6.35759C70.9355 6.03738 72.4082 5.66688 73.8861 5.31485C75.5787 4.92254 77.2206 4.33713 78.7796 3.57012C79.6335 3.14522 80.5038 2.75112 81.3711 2.35188C83.8024 1.22909 86.3867 0.687196 89.0233 0.350565C89.9254 0.23767 90.8337 0.171986 91.3007 0.126828ZM32.0114 47.5929C32.0956 46.2854 32.1859 45.2899 32.2167 44.2943C32.2403 43.5585 32.2423 42.8123 32.151 42.0836C31.9704 40.6365 32.3234 39.3311 33.048 38.0995C33.4472 37.4201 33.9265 36.7961 34.5208 36.2829C36.8402 34.2836 38.6784 31.8523 40.615 29.5092C42.1104 27.7019 43.5605 25.8566 45.0887 24.0769C47.5355 21.2238 50.3209 18.7442 53.5322 16.7716C54.3779 16.2523 55.2924 15.8366 56.1914 15.4066C57.112 14.9674 58.1086 14.8914 59.1144 14.8616C59.4628 14.8458 59.8106 14.9038 60.135 15.0319C60.4594 15.1599 60.753 15.3551 60.9966 15.6047C61.4574 16.0614 61.909 16.5427 62.2785 17.0723C62.8041 17.8176 63.2803 18.5966 63.7041 19.4041C64.3585 20.6782 65.0931 21.9095 65.9035 23.0906C66.5069 23.963 66.9513 24.8867 66.8035 25.9982C66.781 26.1675 66.8087 26.3461 66.8323 26.5175C67.21 29.304 66.6588 31.9601 65.7002 34.5566C65.3513 35.5009 64.8156 36.3476 64.2152 37.1481C62.0907 39.9807 59.605 42.4644 56.836 44.6587C55.0933 46.038 53.1299 47.0756 51.1491 48.0742C50.0264 48.6418 48.9097 49.2237 47.7982 49.8128C47.1065 50.1802 46.4568 50.6103 45.9036 51.1799C45.7651 51.3236 45.5239 51.4898 45.3597 51.4621C44.8599 51.3821 44.4175 51.6058 43.9516 51.6366C43.1767 51.6889 42.3875 51.7084 41.6177 51.6202C40.848 51.5319 40.0783 51.3739 39.3424 51.0844C38.9842 50.9428 38.587 50.9017 38.2083 50.8094C38.04 50.7683 37.9784 50.5292 38.1057 50.3937C38.314 50.172 38.5131 49.937 38.7502 49.7502C39.365 49.2679 39.9736 48.7732 40.6253 48.3442C42.1494 47.3435 43.7001 46.3819 45.2376 45.3986C47.7284 43.8068 50.168 42.1452 52.4084 40.2055C54.9484 38.0192 57.1523 35.4705 58.9491 32.6415C60.0771 30.866 60.9115 28.9796 61.3435 26.9065C61.6545 25.4183 61.9655 23.9332 62.0507 22.4112C62.0725 22.1097 62.0535 21.8066 61.9942 21.5101C61.9644 21.3767 61.7807 21.2032 61.6504 21.1879C61.5283 21.1735 61.2953 21.3172 61.2635 21.4342C61.1475 21.8498 61.0551 22.2809 61.0285 22.7099C60.9186 24.4105 60.5451 26.0608 60.1253 27.7009C59.6676 29.4866 58.7942 31.0877 57.7781 32.6169C55.591 35.9062 52.8569 38.6773 49.7246 41.0696C47.3744 42.8657 44.8712 44.4329 42.369 46.0042C41.1967 46.7506 40.0418 47.5239 38.9052 48.3236C37.9723 48.9743 37.1358 49.7348 36.5611 50.7355C36.364 51.0783 36.0869 51.2158 35.7113 51.223C35.4075 51.2291 35.1027 51.2692 34.7999 51.2589C33.6135 51.2179 32.6262 50.4933 32.2988 49.3335C32.1171 48.6746 32.072 47.9757 32.0114 47.5929ZM130.079 18.8499C130.089 18.9772 130.141 19.1167 130.104 19.2296C129.831 20.0517 129.572 20.882 129.246 21.6846C128.819 22.7361 128.154 23.6741 127.303 24.4249C127.074 24.626 126.848 24.8302 126.633 25.0447C124.859 26.7977 122.668 27.6259 120.249 28.0098C118.174 28.3382 116.088 28.3361 114.011 28.1945C112.062 28.0631 110.151 27.6239 108.27 27.0902C108.021 27.0204 107.786 26.8962 107.54 26.8131C106.93 26.6068 106.545 26.1973 106.232 25.6287C104.984 23.3585 104.127 20.9641 103.84 18.3829C103.788 17.9129 103.775 17.4182 103.859 16.9564C104.063 15.8397 104.033 14.7159 104.078 13.5931C104.079 13.5787 104.23 13.5356 104.283 13.5623C105.213 14.0324 106.163 14.4501 107.169 14.7446C108.764 15.2116 110.406 15.3563 112.049 15.4836C114.471 15.6745 116.898 15.812 119.319 16.0183C120.136 16.0881 120.939 16.3077 121.754 16.4299C122.175 16.4925 122.607 16.5048 123.036 16.5161C123.186 16.5202 123.278 16.202 123.16 16.0984C122.998 15.9588 122.84 15.7853 122.649 15.7186C122.119 15.5339 121.581 15.3337 121.029 15.2516C118.967 14.9526 116.891 14.7574 114.809 14.6666C112.515 14.5609 110.208 14.445 107.96 13.9102C106.515 13.5664 105.147 13.0184 103.964 12.0834C103.313 11.5682 102.71 11.0068 102.4 10.2042C102.354 10.0831 102.307 9.9497 102.221 9.85835C101.545 9.13378 101.606 8.25525 101.751 7.3952C101.873 6.66758 102.061 5.95267 102.314 5.25943C102.701 4.20028 103.183 3.17704 103.596 2.12712C103.865 1.44359 104.278 1.14904 105.062 1.12646C107.764 1.04846 110.444 1.20035 113.103 1.67554C116.266 2.24001 119.396 2.9533 122.433 4.01862C123.414 4.36346 124.374 4.77296 125.35 5.13833C125.546 5.21222 125.765 5.23378 125.976 5.25635C126.11 5.27072 126.263 4.96591 126.18 4.85096C126.08 4.71651 125.982 4.55538 125.841 4.48149C125.192 4.13459 124.548 3.76922 123.867 3.49212C121.975 2.72033 120.009 2.17535 118.03 1.6817C117.148 1.46309 116.259 1.28349 115.374 1.0813C115.3 1.06488 115.233 1.01767 115.165 0.983801C115.247 0.960196 115.329 0.933512 115.411 0.914012C115.454 0.90566 115.498 0.903586 115.541 0.907854C118.359 1.1162 121.159 1.43641 123.862 2.32109C125.47 2.84862 127.062 3.42028 128.586 4.16846C129.995 4.86225 131.335 5.66175 132.527 6.68806C133.34 7.38699 134.228 7.87346 135.311 7.98533C135.654 8.02125 135.999 8.10335 136.327 8.21214C137.41 8.5693 137.796 9.66746 137.152 10.6178C136.887 11.0078 136.549 11.3609 136.198 11.679C135.586 12.2332 134.945 12.7536 134.305 13.275C133.292 14.1032 132.353 14.9971 131.616 16.0932C131.403 16.4114 131.125 16.7111 130.814 16.9348C128.515 18.58 126.137 20.0856 123.46 21.0739C121.735 21.7123 119.948 22.0284 118.135 22.2367C117.23 22.3404 116.318 22.3999 115.408 22.4482C113.579 22.5446 111.766 22.3794 109.958 22.1074C109.404 22.0233 108.84 21.9935 108.279 21.9648C108.19 21.9607 108.039 22.0879 108.015 22.1803C107.992 22.2757 108.059 22.4359 108.14 22.5056C108.273 22.6173 108.427 22.6995 108.594 22.7468C109.095 22.8854 109.596 23.0486 110.108 23.1163C111.914 23.3554 113.72 23.6325 115.551 23.3975C115.939 23.3472 116.331 23.3298 116.723 23.3216C120.809 23.2251 124.588 22.09 128.072 19.9583C128.591 19.6412 129.101 19.3097 129.625 19.0039C129.764 18.9238 129.944 18.9146 130.105 18.8735L130.079 18.8499ZM133.733 33.7366C134.092 33.6319 134.289 33.9183 134.528 34.0815C135.787 34.9436 137.102 35.703 138.569 36.1536C139.354 36.3948 140.159 36.5775 140.964 36.7437C141.299 36.8125 141.662 36.8156 142.002 36.7694C143.773 36.5333 145.553 36.5446 147.334 36.522C148.114 36.5118 148.893 36.4256 149.671 36.3578C149.842 36.3418 150.005 36.2848 150.149 36.1916C150.198 36.1533 150.239 36.1048 150.268 36.0494C150.297 35.9939 150.314 35.9328 150.317 35.8703C150.315 35.7626 150.227 35.6076 150.134 35.5635C149.945 35.4731 149.726 35.389 149.522 35.3951C147.482 35.4619 145.444 35.547 143.405 35.6281C143.144 35.6384 142.877 35.6302 142.627 35.6876C141.569 35.9237 140.55 35.703 139.545 35.4188C138.332 35.0747 137.173 34.5627 136.101 33.8977C134.537 32.934 133.16 31.7456 131.879 30.438C131.507 30.0583 131.209 29.6437 131.15 29.0915C130.923 26.9065 130.999 24.7543 131.819 22.6791C131.957 22.3271 132.072 22.2583 132.398 22.4276C134.251 23.3801 136.11 24.3212 137.941 25.3136C140.348 26.6146 142.679 28.0532 144.922 29.6221C145.279 29.8661 145.653 30.0849 146.04 30.2769C146.118 30.318 146.309 30.2492 146.375 30.1702C146.437 30.0932 146.457 29.9074 146.406 29.8222C146.298 29.6396 146.152 29.4661 145.986 29.3337C145.274 28.7662 144.578 28.1719 143.82 27.668C140.635 25.5466 137.28 23.7218 133.862 22.0048C133.629 21.8888 133.39 21.7831 133.158 21.6661C132.299 21.2402 132.299 21.2392 132.665 20.4099C133.125 19.3733 133.692 18.3983 134.396 17.5085C134.961 16.7921 135.528 16.0768 136.126 15.3892C136.702 14.7272 137.202 14.0272 137.518 13.2031C137.581 13.0414 137.655 12.884 137.739 12.732C137.89 12.4529 138.078 12.3544 138.38 12.458C139.117 12.7136 139.864 12.9527 140.573 13.2729C142.675 14.2222 144.659 15.3871 146.581 16.6597C148.937 18.2199 151.139 20.0011 153.157 21.9791C153.558 22.3712 153.997 22.7284 154.436 23.0804C154.506 23.1368 154.706 23.1235 154.777 23.0619C154.853 22.9962 154.911 22.8002 154.867 22.7232C154.698 22.4224 154.501 22.1379 154.28 21.8734C153.058 20.451 151.687 19.1845 150.209 18.035C147.708 16.0833 145.027 14.3737 142.202 12.9291C141.157 12.3954 140.088 11.9202 138.964 11.5723C138.564 11.4491 138.514 11.2849 138.766 10.9329C139.356 10.1077 140.053 9.41293 141.028 9.0373C141.379 8.90183 141.67 8.86591 142.001 9.09683C143.822 10.3736 145.849 11.2819 147.817 12.2917C150.017 13.4289 152.11 14.7627 154.07 16.2769C154.756 16.8045 155.374 17.4264 155.986 18.0401C157.859 19.9206 159.452 22.06 160.718 24.393C161.514 25.8449 161.993 27.4491 162.124 29.0997C162.214 30.2205 162.722 30.9676 163.658 31.4962C164.036 31.7096 164.409 31.9324 164.78 32.1581C165.272 32.4578 165.673 32.8489 165.925 33.3743C166.341 34.2354 165.938 34.9641 164.994 35.0462C164.693 35.0719 164.387 35.0636 164.082 35.0595C160.463 35.0041 157.034 35.896 153.688 37.1707C151.777 37.8994 149.981 38.8672 148.187 39.8442C147.732 40.0926 147.257 40.3122 146.781 40.5195C146.16 40.7895 145.517 40.8326 144.873 40.6078C144.013 40.3081 143.141 40.0361 142.31 39.6687C141.358 39.2479 140.445 38.742 139.518 38.2647C137.452 37.1994 135.68 35.7359 134.007 34.1451C133.89 34.0353 133.833 33.8618 133.75 33.7181L133.732 33.7366H133.733ZM40.8942 155.028C40.3728 155.028 39.8514 155.035 39.3311 155.027C36.7109 154.986 34.4335 154.074 32.4148 152.41C31.0804 151.299 29.6965 150.249 28.2674 149.264C26.068 147.762 23.5813 147.035 20.9354 146.865C18.9803 146.74 17.0334 146.9 15.0844 147.061C12.8326 147.249 10.5717 147.256 8.3148 147.157C7.48657 147.121 6.68502 146.93 5.94812 146.515C5.64638 146.346 5.31899 146.224 5.00596 146.073C3.86265 145.52 2.68342 145.416 1.46313 145.777C1.33997 145.814 1.20962 145.841 1.08236 145.844C1.00436 145.846 0.866843 145.802 0.859658 145.761C0.839132 145.649 0.833988 145.495 0.897619 145.416C1.05795 145.211 1.24348 145.028 1.44978 144.869C1.93728 144.509 2.42477 144.14 2.95025 143.842C3.31869 143.631 3.73641 143.44 4.18696 143.668C5.13528 143.593 6.0877 143.544 7.03396 143.44C9.0168 143.22 10.9966 142.964 12.9784 142.738C17.0365 142.274 21.0586 141.64 24.9463 140.333C26.5576 139.791 28.0724 139.045 29.5452 138.205C31.9745 136.821 34.5659 135.852 37.2549 135.117C38.5819 134.755 39.9346 134.77 41.2626 134.972C42.6328 135.181 43.968 135.581 45.215 136.228C47.0326 137.17 48.532 138.444 49.506 140.274C49.8953 141.001 50.273 141.734 50.6391 142.473C51.1963 143.602 51.767 144.724 52.275 145.874C52.6111 146.626 52.8887 147.402 53.1053 148.196C53.5528 149.876 52.9616 151.281 51.7731 152.446C51.4457 152.768 50.9757 152.97 50.5405 153.152C49.2977 153.667 48.0209 154.077 46.699 154.354C44.7819 154.755 42.8647 155.112 40.8942 155.028ZM176.515 56.3197C176.426 57.9956 176.381 59.3001 175.996 60.5563C175.842 61.0551 175.895 61.4769 176.181 61.908C176.517 62.4143 176.832 62.9348 177.123 63.468C177.441 64.0478 177.611 64.6718 177.556 65.3451C177.499 66.0574 177.194 66.4545 176.511 66.669C175.872 66.8702 175.225 66.8178 174.577 66.7286C173.632 66.5982 172.686 66.4648 171.742 66.3355C170.947 66.2277 170.236 65.9352 169.64 65.3882C169.066 64.8586 168.506 64.3095 167.917 63.7964C167.199 63.1683 166.482 62.5309 165.716 61.9644C163.877 60.6035 161.808 59.9097 159.506 60.0041C158.545 60.0452 157.595 59.9816 156.652 59.8061C154.931 59.4859 153.422 58.8003 152.428 57.2659C151.142 55.278 150.285 53.1063 149.676 50.8289C149.656 50.754 149.699 50.6626 149.713 50.5795C149.804 50.6164 149.937 50.6287 149.976 50.6955C151.305 52.9595 153.353 54.4066 155.611 55.5848C157.345 56.49 159.059 57.423 160.685 58.5098C160.867 58.6261 161.057 58.73 161.253 58.8208C161.466 58.9234 161.742 58.8619 161.828 58.7017C161.951 58.476 161.875 58.2625 161.71 58.1126C161.389 57.8253 161.064 57.5246 160.697 57.3019C159.547 56.606 158.378 55.9369 157.21 55.2698C156.796 55.0327 156.348 54.852 155.941 54.6047C155.089 54.0844 154.217 53.5866 153.422 52.9893C150.692 50.9397 149.5 48.104 149.333 44.7685C149.312 44.3672 149.403 43.9988 149.592 43.6436C150.002 42.8708 150.477 42.1401 151.119 41.5469C151.725 40.9886 152.374 40.4754 153.018 39.9612C153.137 39.8658 153.326 39.8586 153.482 39.8093C153.511 39.9756 153.551 40.1419 153.564 40.3102C153.576 40.4395 153.554 40.5698 153.55 40.7002C153.501 41.9974 153.858 43.1839 154.497 44.3025C155.153 45.4459 155.999 46.425 156.971 47.3076C158.288 48.5053 159.561 49.7482 160.721 51.107C162.515 53.2069 163.908 55.5448 165.029 58.0593C165.191 58.4102 165.382 58.7473 165.599 59.0671C165.65 59.1451 165.866 59.2016 165.941 59.1574C166.08 59.0684 166.188 58.9377 166.248 58.7839C166.289 58.6802 166.24 58.5252 166.197 58.4072C165.982 57.8386 165.787 57.2608 165.528 56.7138C164.117 53.7457 162.275 51.0742 159.937 48.7578C158.98 47.8095 158.004 46.8817 157.035 45.9457C156.248 45.1934 155.602 44.3064 155.127 43.3265C154.496 42.0169 154.39 40.6673 154.821 39.2726C154.92 38.9565 155.081 38.7307 155.384 38.6055C156.383 38.1878 157.385 37.7752 158.382 37.3503C158.824 37.1614 159.101 37.3544 159.39 37.6756C162.106 40.6787 164.279 44.1318 165.811 47.8803C166.65 49.9288 167.464 51.9876 168.074 54.1203C168.164 54.4082 168.291 54.6832 168.452 54.9382C168.501 55.0204 168.688 55.0758 168.794 55.0532C168.854 55.0349 168.91 55.0037 168.957 54.9617C169.004 54.9197 169.042 54.8679 169.067 54.81C169.123 54.6471 169.138 54.4729 169.11 54.303C169.04 53.9201 168.959 53.5342 168.838 53.1637C167.635 49.4844 166.242 45.8861 164.262 42.5414C163.459 41.1987 162.558 39.9178 161.564 38.7091C161.153 38.2042 160.732 37.7064 160.317 37.2035C160.167 37.0229 160.196 36.8895 160.405 36.8269C161.612 36.4615 162.848 36.2388 164.094 36.0633C164.624 35.9884 165.024 36.1823 165.349 36.5826C165.842 37.1881 166.355 37.7793 166.832 38.3981C169.095 41.3303 170.589 44.6381 171.523 48.2036C171.996 50.0068 172.385 51.8326 172.819 53.6461C172.899 53.9807 172.993 54.3142 173.112 54.6375C173.126 54.6788 173.149 54.7167 173.178 54.749C173.207 54.7813 173.243 54.8073 173.282 54.8253C173.322 54.8434 173.365 54.8532 173.408 54.8541C173.452 54.855 173.495 54.8469 173.535 54.8305C173.642 54.7894 173.782 54.6673 173.792 54.5708C173.823 54.2732 173.843 53.9622 173.789 53.6707C173.582 52.5623 173.391 51.4467 173.108 50.3578C172.691 48.7179 172.226 47.0905 171.714 45.4777C170.675 42.253 168.952 39.4019 166.839 36.7745C166.678 36.5744 166.531 36.364 166.397 36.1464C166.379 36.1146 166.475 35.9535 166.511 35.9565C167.067 35.9976 167.63 36.0171 168.176 36.1269C168.406 36.1731 168.635 36.3835 168.794 36.5785C169.235 37.1122 169.671 37.6582 170.056 38.2339C171.87 40.9557 173.348 43.8489 174.436 46.9371C175.071 48.7383 175.77 50.5241 176.051 52.4238C176.264 53.8401 176.394 55.2667 176.515 56.3197ZM84.9734 123.91C83.6926 123.785 82.2034 124.021 80.7727 124.605C80.4843 124.722 80.2431 124.669 80.0902 124.426C79.1111 122.869 77.7102 121.667 76.5792 120.237C76.1574 119.702 75.557 119.306 75.0202 118.866C74.6492 118.556 74.1763 118.395 73.6932 118.414C72.6761 118.449 71.8499 117.995 71.1089 117.362C70.8134 117.109 70.5681 116.798 70.2879 116.527C69.3211 115.592 68.2332 115.092 66.861 115.562C66.4515 115.702 66.0205 115.775 65.6038 115.894C65.377 115.96 65.2374 116.216 65.3041 116.394C65.3383 116.498 65.4026 116.589 65.4886 116.656C65.5747 116.723 65.6787 116.763 65.7875 116.771C65.9127 116.784 66.0441 116.753 66.1703 116.726C66.5511 116.642 66.9308 116.55 67.3095 116.461C67.8883 116.321 68.4631 116.358 68.9229 116.736C69.7265 117.393 70.4849 118.104 71.2536 118.802C71.2762 118.821 71.2434 118.954 71.2003 118.984C71.0956 119.058 70.9745 119.114 70.8544 119.16C70.2468 119.392 69.6351 119.609 69.0306 119.85C68.8079 119.938 68.6386 119.938 68.4456 119.769C68.1203 119.484 67.7796 119.212 67.4244 118.969C65.886 117.919 63.9668 118.223 62.9918 119.778C62.4027 120.718 61.7602 121.686 61.7807 122.885C61.7859 123.165 61.6555 123.383 61.4359 123.552C61.3661 123.604 61.2943 123.656 61.2368 123.72C60.542 124.495 59.7055 124.944 58.6402 125.02C58.2287 125.049 57.8346 125.311 57.4322 125.465C57.0946 125.593 56.8883 125.469 56.7189 125.123C56.5075 124.69 56.5886 124.287 56.7446 123.867C57.3635 122.182 58.2133 120.629 59.3391 119.228C59.3935 119.16 59.4448 119.088 59.5085 119.031C60.7462 117.888 61.3251 116.411 61.6514 114.808C61.713 114.512 61.7664 114.212 61.8177 113.913C62.1071 112.248 62.9713 110.937 64.285 109.905C65.3772 109.044 66.5777 108.331 67.8555 107.783C70.4562 106.667 73.1287 105.791 75.9203 105.3C77.547 105.013 79.1912 104.819 80.8405 104.87C81.7857 104.899 82.7258 105.131 83.6649 105.301C84.0898 105.378 84.5034 105.518 84.919 105.642C87.1626 106.312 89.403 106.991 91.6783 107.541C92.183 107.669 92.6766 107.838 93.1542 108.045C93.7854 108.314 94.1908 108.492 93.2825 109.126C92.9007 109.393 92.6092 109.796 92.3044 110.16C92.055 110.459 91.8436 110.79 91.6229 111.113C90.7382 112.407 89.482 112.961 87.9487 112.966C87.3832 112.968 86.8187 112.951 86.2563 112.982C84.6378 113.073 83.2349 113.718 81.9951 114.73C81.7354 114.943 81.5209 115.237 81.3608 115.534C81.2705 115.7 81.3105 115.951 81.3321 116.16C81.3495 116.337 81.7323 116.469 81.8688 116.357C81.9705 116.28 82.0616 116.189 82.1398 116.088C83.0419 114.846 84.3617 114.322 85.7883 114.039C86.3743 113.922 86.9953 113.961 87.5998 113.968C89.5857 113.993 91.2719 113.402 92.4409 111.695C92.6616 111.372 92.8699 111.039 93.1234 110.742C93.4026 110.414 93.7217 110.119 94.0337 109.819C94.0871 109.768 94.2062 109.735 94.2718 109.759C94.3303 109.779 94.3878 109.886 94.396 109.96C94.5336 111.15 94.3057 112.297 93.9506 113.42C93.7556 114.038 93.4898 114.636 93.2517 115.24C93.0926 115.644 92.9243 116.042 92.7652 116.445C92.6339 116.776 92.6236 117.103 92.7098 117.46C93.3122 119.983 91.899 121.934 90.145 122.932C89.0852 123.536 87.8928 123.871 86.673 123.906C86.1906 123.924 85.7124 123.91 84.9734 123.91Z" fill="black"/>
<path d="M55.3134 148.507C54.051 148.515 53.5645 147.952 53.7862 146.783C53.8909 146.23 54.0633 145.691 54.2018 145.145C54.3394 144.599 54.4718 144.052 54.6083 143.506C54.7396 142.979 54.6442 142.474 54.4759 141.972C54.3886 141.709 54.2378 141.519 53.9761 141.414C53.7739 141.333 53.5778 141.24 53.3828 141.146C52.5392 140.743 51.75 139.189 52.334 138.107C52.5587 137.69 52.7876 137.263 53.0873 136.901C54.4502 135.254 55.9589 133.765 57.8278 132.681C58.7279 132.158 59.6157 131.615 60.5106 131.083C60.6964 130.971 60.8975 130.881 61.07 130.752C62.1425 129.942 63.2262 129.146 64.269 128.3C65.5242 127.279 66.4817 125.978 67.5132 124.75C68.1546 123.985 68.7765 123.203 69.4437 122.462C70.1144 121.712 70.9963 121.182 71.9735 120.942C72.5739 120.788 73.1948 120.721 73.7768 120.899C75.1305 121.311 76.3077 122.022 77.14 123.206C77.414 123.597 77.6696 124 77.9169 124.409C78.6148 125.567 78.8847 126.813 78.6569 128.154C78.6199 128.367 78.5645 128.579 78.5214 128.79C78.3664 129.557 78.4958 130.243 79.0264 130.856C80.0486 132.036 80.1788 133.386 79.8782 134.886C79.5354 136.589 78.6732 137.93 77.3997 139.051C75.2137 140.979 72.6965 142.494 69.9702 143.523C67.9011 144.307 65.8054 145.009 63.6634 145.561C62.1024 145.964 60.6102 146.536 59.1487 147.203C58.4395 147.527 57.7272 147.85 57.0016 148.136C56.4341 148.357 55.8553 148.56 55.3134 148.507ZM46.8309 127.63C45.4792 127.729 44.2599 127.398 43.0673 126.996C41.7054 126.538 40.3343 126.165 38.9067 125.976C38.1359 125.874 37.3723 125.684 36.619 125.489C35.2037 125.122 33.7874 125.167 32.3557 125.36C30.4662 125.616 28.5758 125.886 26.6771 126.065C23.476 126.367 20.3078 126.833 17.2062 127.705C16.2466 127.975 15.2737 128.203 14.3244 128.504C12.6022 129.051 11.0719 129.927 9.83519 131.272C9.77566 131.335 9.72128 131.428 9.64841 131.448C9.49241 131.49 9.31075 131.547 9.16604 131.505C8.90946 131.43 8.89919 131.204 8.95974 130.973C9.12703 130.345 9.29946 129.719 9.45546 129.088C9.78798 127.741 10.5619 126.72 11.7955 126.119C12.8844 125.587 14.0011 125.087 15.1516 124.716C17.6671 123.903 20.2144 123.188 22.7453 122.421C24.2396 121.968 25.7349 121.522 27.2149 121.026C29.7376 120.181 32.0899 118.978 34.3211 117.533C35.3423 116.873 36.3727 116.228 37.4011 115.579C39.4978 114.257 41.7188 113.17 43.9787 112.159C45.8548 111.32 47.8346 110.854 49.8759 110.638C50.3932 110.583 50.9084 110.509 51.4277 110.469C52.7034 110.372 53.9401 110.628 55.145 110.994C56.3458 111.36 57.522 111.814 58.7043 112.242C58.9476 112.334 59.1808 112.452 59.4001 112.592C59.7942 112.836 60.0334 113.165 59.9667 113.668C59.8404 114.613 59.7686 115.56 59.4699 116.48C59.1364 117.501 58.496 118.094 57.4245 118.207C55.6654 118.393 54.4759 119.381 53.6928 120.901C53.3962 121.476 53.1786 122.095 52.9385 122.698C52.6973 123.301 52.4756 123.914 52.2416 124.521C51.4595 126.55 49.8287 127.374 47.8048 127.623C47.4631 127.667 47.11 127.63 46.8309 127.63ZM177.59 84.3025L177.901 85.5587C178.506 88.0096 178.236 90.3054 176.628 92.3293C176.064 93.0395 175.42 93.6943 174.778 94.3388C173.674 95.4462 172.538 96.5208 171.427 97.6189C169.874 99.1523 168.547 100.872 167.406 102.724C166.793 103.717 166.338 104.806 165.809 105.85C165.534 106.39 165.269 106.937 164.961 107.459C164.671 107.95 164.198 108.144 163.634 108.126C163.012 108.108 162.427 107.96 161.908 107.615C160.65 106.78 159.273 106.301 157.766 106.214C157.037 106.172 156.736 105.659 156.473 105.099C156.44 105.031 156.46 104.925 156.486 104.847C156.515 104.766 156.562 104.691 156.622 104.629C158.557 102.5 160.023 100.021 161.774 97.7524C163.445 95.5858 165.115 93.4213 166.9 91.3441C168.427 89.5654 169.929 87.7653 171.447 85.9785C172.238 85.0456 173.132 84.2286 174.181 83.5872C174.738 83.2354 175.408 83.1105 176.053 83.2382C176.341 83.2895 176.616 83.6374 176.879 83.4178C177.041 83.2834 176.992 82.9242 177.103 82.6973C177.328 82.2376 177.959 81.9481 178.561 82.0754C179.07 82.1802 179.564 82.347 180.033 82.5721C180.772 82.9355 181.491 83.345 182.189 83.7832C183.918 84.866 185.62 85.9887 187.202 87.287C188.914 88.691 190.694 90.0098 192.319 91.5206C194.449 93.5043 196.438 95.6339 198.272 97.894C198.574 98.2638 198.833 98.6662 199.045 99.0938C199.442 99.9046 199.284 100.477 198.57 101.028C197.916 101.531 197.249 102.014 196.599 102.523C195.498 103.383 194.321 103.553 193.074 102.897C192.501 102.596 191.924 102.274 191.421 101.87C190.105 100.806 188.792 99.7332 187.544 98.5898C185.355 96.5844 183.547 94.2455 181.91 91.7823C181.046 90.483 180.291 89.1098 179.533 87.7427C179.157 87.0643 178.85 86.3387 178.582 85.608C178.377 85.0507 178.094 84.6042 177.563 84.3312L177.499 84.2573C177.528 84.2745 177.559 84.2895 177.59 84.3025ZM160.196 62.0663C162.072 62.0376 163.648 62.7571 164.969 64.0697C165.308 64.4053 165.605 64.7799 165.918 65.1402C167.033 66.4231 168.245 67.5982 169.685 68.5198C170.633 69.1274 171.585 69.734 172.533 70.3426C172.898 70.5766 173.026 70.9409 172.879 71.3514C172.821 71.5126 172.739 71.6686 172.649 71.8153C171.972 72.9268 171.293 74.0373 170.611 75.1457C169.796 76.4837 168.772 77.6826 167.578 78.6968C166.353 79.7313 165.088 80.7217 163.839 81.7306C163.737 81.8127 163.624 81.8794 163.524 81.9615C162.789 82.5598 161.982 82.7107 161.086 82.3761C160.721 82.2396 160.341 82.1431 159.98 81.9964C156.763 80.695 153.446 79.6748 150.176 78.5264C148.541 77.9517 146.947 77.261 145.255 76.8556C145.17 76.835 145.09 76.7991 145.01 76.7663C144.729 76.6503 144.625 76.4266 144.77 76.1402C145.357 74.9805 145.888 73.7828 146.566 72.6785C148.667 69.2711 151.431 66.4733 154.674 64.1436C155.737 63.3811 156.903 62.8104 158.143 62.3845C158.81 62.1567 159.482 62.0294 160.196 62.0663ZM67.0154 67.2657C67.079 68.6532 66.6192 70.0429 65.8639 71.3401C65.5365 71.9036 65.1413 72.428 64.4907 72.6785C64.1715 72.8016 63.841 72.622 63.8472 72.2833C63.8523 72.0308 63.8636 71.7486 63.9754 71.5321C64.9894 69.5513 64.8786 67.4884 64.3501 65.4357C63.7548 63.1224 62.438 61.2699 60.4439 59.9265C60.1206 59.7079 59.783 59.5057 59.433 59.3343C57.7765 58.5163 56.1652 58.62 54.6031 59.5981C53.7166 60.1502 52.9143 60.8274 52.2211 61.6086C51.3261 62.6144 50.4404 63.6294 49.5742 64.6598C48.7501 65.64 47.7525 66.3923 46.6482 67.0173C45.6834 67.5623 44.6366 67.8055 43.5374 67.863C40.4205 68.0221 37.7285 66.9803 35.4326 64.9216C32.7026 62.4748 31.1867 59.3897 30.6653 55.7637C30.457 54.3177 30.5525 52.9075 30.7526 51.4871C30.8306 50.9226 30.9814 50.3807 31.4341 49.9784C31.6763 49.7629 32.1032 49.8008 32.2161 50.0779C33.0444 52.1306 34.7152 53.0892 36.7432 53.591C38.0733 53.9205 39.4157 53.8517 40.7571 53.6947C43.1279 53.4176 45.4905 53.0686 47.8664 52.8511C50.9731 52.5668 54.0305 52.8449 56.9452 54.0529C61.0433 55.7514 64.1283 58.5461 66.0312 62.5846C66.7055 64.0184 67.0257 65.5394 67.0154 67.2646V67.2657ZM139.501 110.34C139.514 110.269 139.565 109.927 139.647 109.593C139.876 108.66 140.248 107.782 140.711 106.942C140.856 106.679 140.834 106.458 140.633 106.236C138.756 104.165 137.318 101.776 135.764 99.4745C135.163 98.5837 134.772 97.5502 134.299 96.5742C134.128 96.2232 133.993 95.8557 133.851 95.4914C133.42 94.383 132.632 93.6102 131.589 93.0755C131.28 92.9164 130.966 92.7665 130.665 92.5931C130.067 92.2493 129.99 91.9876 130.374 91.4559C130.679 91.0351 131.017 90.6369 131.37 90.2551C132.138 89.429 132.974 88.6602 133.687 87.791C134.467 86.8426 135.441 86.1098 136.294 85.2477C136.479 85.061 136.782 85.0486 137.012 85.2334C137.384 85.531 137.766 85.8297 138.075 86.1878C138.996 87.2521 140.071 88.0988 141.294 88.7988C141.925 89.1601 142.46 89.6978 143.011 90.1864C144.766 91.7429 146.512 93.3098 148.248 94.8869C149.308 95.8496 150.345 96.842 151.389 97.8252C151.551 97.9704 151.699 98.1294 151.833 98.3004C152.215 98.8197 152.353 99.3308 152.018 99.9795C150.702 102.533 149.314 105.036 147.341 107.163C146.484 108.085 145.644 109.024 144.758 109.918C144.302 110.378 143.781 110.78 143.258 111.167C142.661 111.61 141.973 111.882 141.265 112.111C140.186 112.459 139.611 111.959 139.5 110.877C139.493 110.791 139.5 110.703 139.5 110.34H139.501ZM144.732 77.4683C145.11 77.5504 145.501 77.5966 145.865 77.7197C146.522 77.9404 147.169 78.1928 147.81 78.4535C150.949 79.7262 153.988 81.2082 156.981 82.7877C158.745 83.7185 160.522 84.6248 162.293 85.5423C162.409 85.6018 162.534 85.6459 162.644 85.7127C163.286 86.0903 163.445 86.8929 163.002 87.5005C162.95 87.5693 162.894 87.637 162.828 87.6955C161.876 88.5422 161.219 89.6198 160.49 90.6462C159.182 92.4853 157.526 93.9068 155.455 94.8489C154.511 95.2779 153.628 95.3138 152.733 94.7637C152.291 94.4907 151.822 94.2588 151.386 93.9766C149.345 92.6557 147.322 91.3102 145.275 89.9996C143.926 89.1312 142.558 88.2929 141.172 87.4851C140.48 87.0838 139.894 86.6045 139.441 85.9456C138.953 85.2323 138.521 84.4718 137.805 83.9392C137.618 83.8006 137.581 83.5646 137.646 83.3439C137.726 83.0556 137.831 82.775 137.961 82.5054C138.067 82.3154 138.206 82.1453 138.371 82.0025C139.681 80.7997 140.906 79.5024 142.348 78.4494C142.664 78.2196 142.996 78.0127 143.341 77.8306C143.769 77.5986 144.246 77.4742 144.732 77.4683Z" fill="black"/>
<path d="M127.685 114.974C127.761 114.575 127.826 113.969 127.997 113.393C128.192 112.733 128.165 112.115 127.891 111.496C127.663 110.981 127.46 110.452 127.199 109.952C125.169 106.05 123.754 101.908 122.415 97.736C122.374 97.6128 122.324 97.4907 122.297 97.3655C122.218 96.9991 122.295 96.6707 122.594 96.4264C123.707 95.5233 124.842 94.6509 126.187 94.1069C126.752 93.8791 127.329 93.7128 127.952 93.7036C128.291 93.6975 128.629 93.5969 128.969 93.5373C129.266 93.485 129.562 93.4019 129.862 93.3854C130.272 93.3608 130.628 93.5045 130.867 93.8658C130.962 94.0112 131.055 94.1584 131.144 94.3071C133.399 97.9608 135.651 101.619 137.912 105.269C138.299 105.893 138.671 106.54 139.148 107.094C139.558 107.57 139.552 108.025 139.353 108.532C139.243 108.812 139.079 109.073 138.92 109.331C137.019 112.421 134.435 114.828 131.446 116.835C130.904 117.198 130.302 117.462 129.668 117.615C128.718 117.846 128.035 117.432 127.828 116.477C127.738 116.056 127.742 115.615 127.685 114.974ZM121.995 125.84C121.985 125.131 122.172 124.465 122.442 123.821C122.524 123.622 122.611 123.398 122.765 123.264C123.539 122.578 124.177 121.739 125.119 121.238C126.578 120.462 128.042 119.693 129.639 119.248C132.248 118.519 134.668 117.345 137.084 116.16C139.466 114.994 141.741 113.644 143.943 112.161C145.055 111.411 146.243 110.765 147.42 110.117C148.637 109.449 149.871 108.81 151.121 108.202C151.702 107.919 152.323 107.712 152.94 107.517C153.573 107.317 154.213 107.36 154.871 107.476C155.467 107.58 155.919 107.852 156.308 108.288C157.143 109.219 157.359 110.367 157.393 111.552C157.409 112.084 157.14 112.577 156.71 112.91C156.199 113.309 155.68 113.717 155.109 114.019C152.654 115.325 150.134 116.481 147.436 117.221C145.889 117.645 144.361 118.145 142.832 118.635C139.838 119.593 137.075 121.056 134.329 122.551C133.032 123.256 131.739 123.972 130.464 124.715C129.678 125.174 128.925 125.69 128.164 126.193C127.439 126.672 126.74 127.188 126.006 127.651C125.642 127.88 125.241 128.07 124.832 128.197C123.385 128.648 122.098 127.744 121.995 126.23C121.988 126.101 121.995 125.971 121.995 125.84ZM105.396 116.04C105.402 117.047 105.197 118.044 104.793 118.966C104.482 119.672 104.01 120.211 103.306 120.535C102.2 121.043 101.085 121.49 99.8542 121.65C97.6127 121.942 95.4082 122.407 93.3155 123.307C92.9974 123.443 92.6638 123.551 92.3272 123.632C92.1712 123.67 91.9865 123.631 91.8233 123.591C91.6416 123.546 91.4846 123.21 91.5677 123.057C91.669 122.867 91.7843 122.684 91.9125 122.51C93.0323 121.023 93.7384 119.373 93.9026 117.506C93.9949 116.453 94.3193 115.472 94.7903 114.531C95.4882 113.139 95.7346 111.659 95.6822 110.11C95.6545 109.293 95.3651 108.584 94.9227 107.929C94.4558 107.238 93.7414 106.946 92.946 106.794C92.0942 106.632 91.2537 106.405 90.3977 106.272C89.8086 106.181 89.3468 105.882 88.8849 105.56C88.5986 105.36 88.6427 104.991 88.967 104.819C89.1204 104.739 89.2804 104.674 89.4453 104.623C90.605 104.246 91.7914 103.976 93.0035 103.874C94.388 103.759 95.7766 103.712 97.1611 103.622C97.6804 103.588 98.1967 103.523 98.7129 103.462C99.6233 103.354 100.52 103.341 101.429 103.561C102.447 103.808 103.019 104.395 103.136 105.427C103.199 105.989 103.317 106.555 103.284 107.111C103.207 108.411 103.581 109.594 104.033 110.778C104.404 111.749 104.766 112.729 105.035 113.732C105.237 114.481 105.282 115.27 105.396 116.04ZM33.1467 126.026C34.6801 126.043 36.1723 126.31 37.6533 126.653C39.8475 127.165 42.0387 127.693 44.2381 128.186C44.9966 128.356 45.7714 128.482 46.5453 128.56C48.0181 128.709 49.3861 128.37 50.6403 127.57C51.1514 127.244 51.6625 126.908 52.2075 126.646C52.6724 126.424 53.1794 126.281 53.6792 126.146C53.8742 126.094 54.1092 126.135 54.3145 126.179C54.6234 126.244 54.7948 126.647 54.6286 126.903C54.5116 127.082 54.3792 127.262 54.2211 127.405C53.5119 128.043 52.8089 128.691 52.0699 129.294C51.0898 130.095 49.9096 130.37 48.68 130.467C47.5993 130.553 46.5176 130.628 45.4358 130.694C43.92 130.784 42.4144 130.963 40.9098 131.175C39.8373 131.328 38.7545 131.413 37.6738 131.489C35.9424 131.613 34.2079 131.689 32.4776 131.814C30.7913 131.935 29.1082 132.114 27.423 132.224C25.1723 132.371 22.9195 132.48 20.6678 132.596C18.9784 132.683 17.285 132.716 15.5998 132.851C14.2995 132.955 13.033 133.249 11.8702 133.896C11.3037 134.212 10.7104 134.481 10.1193 134.748C10.0279 134.789 9.83703 134.749 9.77032 134.676C9.66769 134.559 9.56301 134.372 9.58354 134.235C9.61535 134.033 9.73133 133.829 9.85551 133.659C10.3389 132.991 10.8162 132.316 11.3385 131.679C12.3741 130.418 13.6098 129.465 15.2283 129.009C18.3185 128.139 21.4242 127.337 24.6057 126.897C26.5373 126.629 28.4852 126.477 30.4249 126.28C31.3332 126.189 32.2405 126.11 33.1467 126.026ZM173.088 120.031C173.034 120.679 172.862 121.258 172.534 121.781C171.912 122.77 171.277 123.752 170.644 124.735C170.573 124.845 170.492 124.949 170.407 125.045C169.965 125.543 169.493 125.672 168.896 125.371C168.434 125.133 167.996 124.852 167.588 124.531C166.904 123.997 166.266 123.406 165.589 122.866C164.573 122.056 163.537 121.267 162.51 120.469C161.964 120.044 161.415 119.62 160.87 119.19C159.684 118.257 159.054 117.022 158.82 115.542C158.631 114.345 158.387 113.156 158.138 111.971C157.912 110.897 157.909 109.819 158.012 108.736C158.053 108.309 158.277 108.085 158.725 107.944C159.238 107.781 159.587 107.855 160.033 108.146C162.099 109.496 164.2 110.792 166.283 112.115C166.653 112.341 167.007 112.594 167.341 112.871C168.626 113.971 169.9 115.084 171.162 116.21C172.16 117.103 172.834 118.193 173.016 119.547C173.04 119.719 173.067 119.889 173.088 120.031ZM119.605 124.748C119.452 125.775 119.303 126.763 118.894 127.683C118.755 127.996 118.59 128.315 118.367 128.571C117.856 129.158 117.337 129.748 116.757 130.265C115.755 131.158 114.701 131.994 113.674 132.859C111.781 134.446 109.893 136.041 107.998 137.627C107.499 138.044 106.997 138.461 106.464 138.83C106.114 139.071 105.711 139.247 105.315 139.413C104.936 139.57 104.663 139.472 104.417 139.143C104.289 138.969 104.169 138.786 104.076 138.591C103.797 137.999 103.351 137.641 102.709 137.5C102.417 137.436 102.125 137.33 101.853 137.201C101.53 137.046 101.38 136.675 101.469 136.319C101.658 135.554 101.948 134.82 102.492 134.241C103.05 133.638 103.648 133.072 104.281 132.548C104.884 132.056 105.549 131.639 106.204 131.214C106.906 130.758 107.47 130.179 107.954 129.496C108.848 128.217 109.765 126.955 110.706 125.71C111.922 124.118 113.296 122.678 114.923 121.492C115.236 121.264 115.507 120.977 115.8 120.72C116.021 120.526 116.264 120.503 116.512 120.666C117.056 121.022 117.618 121.355 118.135 121.746C119.131 122.505 119.608 123.536 119.605 124.748ZM29.4982 155.876C29.0517 155.8 28.5386 155.728 28.0316 155.623C25.825 155.175 23.6256 154.7 21.3852 154.427C19.7092 154.222 18.0517 153.881 16.3819 153.618C15.3987 153.464 14.4124 153.302 13.421 153.221C10.5852 152.989 7.88395 152.23 5.25145 151.2C4.36471 150.853 3.50158 150.447 2.61895 150.091C1.80611 149.765 1.67987 149.004 1.52592 148.31C1.4161 147.813 1.76095 147.412 2.15711 147.105C2.22191 147.048 2.30336 147.013 2.38946 147.005C2.47556 146.998 2.56178 147.019 2.63538 147.064C2.86322 147.19 3.08798 147.321 3.32095 147.435C5.35409 148.438 7.50319 148.81 9.75801 148.633C10.5351 148.566 11.3142 148.524 12.0939 148.507C13.4394 148.485 14.7839 148.514 16.1294 148.493C16.7329 148.484 17.3343 148.404 17.9378 148.359C18.1092 148.347 18.2816 148.33 18.4519 148.336C19.5788 148.379 20.7047 148.459 21.8316 148.466C24.4107 148.482 26.6666 149.351 28.6576 150.959C29.6008 151.722 30.5419 152.49 31.4708 153.271C31.7361 153.494 31.9751 153.747 32.183 154.024C32.4591 154.395 32.3739 154.883 32.028 155.197C31.6606 155.529 31.2173 155.702 30.74 155.775C30.3541 155.833 29.961 155.84 29.4982 155.876ZM125.952 112.537C125.998 113.142 125.835 113.678 125.517 114.16C124.629 115.504 123.659 116.786 122.485 117.892C122.052 118.3 121.5 118.592 120.975 118.891C120.664 119.069 120.218 118.804 120.199 118.45C120.183 118.105 120.201 117.759 120.251 117.418C120.331 116.859 120.45 116.308 120.548 115.754C120.82 114.208 120.677 112.707 119.876 111.343C118.817 109.542 118.001 107.626 117.116 105.744C116.378 104.178 115.772 102.547 115.111 100.944C115.062 100.825 115.024 100.698 114.991 100.575C114.782 99.7578 114.869 99.0599 115.604 98.4852C116.527 97.7647 117.385 96.9622 118.284 96.2119C118.519 96.0212 118.779 95.8624 119.057 95.7398C119.813 95.396 120.387 95.552 120.871 96.2294C121.202 96.6933 121.396 97.2187 121.53 97.775C121.848 99.0797 122.18 100.381 122.527 101.678C122.638 102.096 122.807 102.499 122.951 102.907C123.442 104.296 123.94 105.684 124.421 107.075C124.816 108.222 125.202 109.372 125.58 110.525C125.799 111.182 126.011 111.846 125.952 112.537ZM72.1426 151.135C71.8286 151.056 71.4807 151.01 71.1666 150.882C70.5498 150.631 70.3702 149.901 70.7879 149.372C70.9505 149.169 71.1462 148.995 71.3667 148.858C71.8438 148.558 72.3324 148.277 72.8313 148.015C76.5979 146.033 80.5256 144.428 84.5405 143.026C85.6448 142.641 86.7409 142.232 87.8371 141.823C89.668 141.141 91.5657 140.685 93.4551 140.211C94.1602 140.034 94.893 139.966 95.6145 139.854C96.8194 139.666 97.9986 139.396 99.0495 138.742C99.885 138.224 100.767 137.911 101.761 138.041C102.058 138.08 102.36 138.144 102.639 138.254C103.427 138.562 103.621 138.906 103.564 139.754C103.546 140.027 103.465 140.267 103.259 140.447C102.868 140.79 102.488 141.148 102.073 141.459C99.7054 143.237 97.0811 144.405 94.1171 144.741C93.9457 144.761 93.7722 144.768 93.5978 144.774C89.199 144.944 85.0537 146.132 81.0972 147.992C78.5797 149.175 76.0313 150.245 73.3239 150.914C72.9493 151.004 72.5634 151.056 72.1426 151.135ZM114.663 120.288C114.366 120.728 114.09 121.22 113.729 121.641C113.392 122.031 112.989 122.378 112.572 122.686C111.266 123.648 110.215 124.855 109.196 126.098C108.563 126.87 107.933 127.644 107.275 128.392C106.342 129.453 105.192 130.22 103.888 130.748C103.044 131.089 102.199 131.429 101.336 131.712C99.1902 132.418 97.0677 133.165 95.2193 134.52C94.9484 134.718 94.6713 134.633 94.6189 134.332C94.4845 133.569 94.0965 132.976 93.531 132.46C93.3145 132.264 93.1688 131.98 93.022 131.718C92.8208 131.358 92.826 130.991 92.9809 130.596C93.2909 129.803 93.7425 129.169 94.4968 128.718C96.7659 127.361 99.086 126.09 101.452 124.91C103.12 124.078 104.801 123.272 106.471 122.447C108.46 121.464 110.513 120.655 112.684 120.187C113.267 120.06 113.882 120.086 114.482 120.055C114.524 120.053 114.572 120.165 114.663 120.288ZM175.383 73.2358C175.239 75.5163 174.69 77.4601 173.691 79.2787C172.788 80.9229 171.69 82.4316 170.521 83.8879C169.409 85.2765 168.198 86.5882 167.106 87.9932C163.852 92.1734 160.622 96.3731 157.411 100.586C156.224 102.144 154.987 103.65 153.573 105.006C153.261 105.307 152.975 105.638 152.663 105.939C152.542 106.054 152.389 106.144 152.236 106.217C152.011 106.326 151.66 106.075 151.699 105.829C151.736 105.617 151.792 105.409 151.866 105.207C152.153 104.389 152.464 103.578 152.74 102.757C153.243 101.266 154.044 99.9221 154.783 98.5478C155.071 98.0141 155.392 97.4969 155.673 96.9581C155.972 96.376 156.401 95.8714 156.929 95.4843C157.523 95.046 158.099 94.5821 158.716 94.1788C159.667 93.5579 160.518 92.8241 161.335 92.041C163.24 90.2141 164.272 87.9839 164.424 85.3597C164.461 84.748 164.666 84.2646 165.115 83.8777C165.54 83.5082 165.969 83.1387 166.425 82.8072C167.451 82.059 168.326 81.1651 169.119 80.1768C170.83 78.042 172.528 75.897 174.008 73.5899C174.192 73.3005 174.437 73.0459 174.675 72.7955C174.87 72.5902 175.213 72.6816 175.308 72.9536C175.343 73.0447 175.368 73.1393 175.383 73.2358Z" fill="black"/>
<path d="M112.992 113.485C112.652 115.06 112.267 116.57 111.73 118.036C111.646 118.266 111.439 118.469 111.247 118.64C109.395 120.295 107.219 121.548 104.858 122.318C104.694 122.375 104.519 122.389 104.349 122.358C104.196 122.324 104.001 122.223 103.944 122.099C103.895 121.988 103.965 121.758 104.062 121.66C104.276 121.449 104.55 121.298 104.781 121.102C105.496 120.492 105.971 119.739 106.143 118.801C106.214 118.418 106.312 118.041 106.436 117.672C107.081 115.727 107.062 113.815 106.064 111.997C105.247 110.507 104.985 108.895 104.817 107.247C104.773 106.816 104.711 106.386 104.63 105.961C104.521 105.359 104.236 104.804 103.811 104.365C103.293 103.827 103.331 103.586 103.889 103.088C104.018 102.972 104.149 102.853 104.294 102.762C105.289 102.141 106.277 101.51 107.288 100.918C107.812 100.614 108.209 100.698 108.508 101.22C108.874 101.857 109.193 102.528 109.442 103.217C109.724 103.993 109.949 104.788 110.117 105.595C110.488 107.401 111.219 109.062 112.03 110.7C112.261 111.167 112.493 111.637 112.662 112.128C112.819 112.573 112.889 113.048 112.992 113.485ZM201.741 94.2269C199.725 94.1889 197.867 93.7035 196.249 92.4637C195.524 91.9111 194.809 91.3459 194.103 90.7682C191.958 88.9999 189.837 87.2028 187.681 85.4498C185.988 84.0746 184.149 82.9241 182.12 82.101C181.601 81.8895 181.054 81.7448 180.527 81.5498C180.222 81.4369 180.192 81.012 180.454 80.8058C180.74 80.582 181.057 80.4424 181.42 80.5307C182.177 80.7154 182.943 80.8786 183.683 81.1198C187.315 82.3103 190.832 83.7944 194.335 85.3164C197.041 86.4926 199.774 87.6041 202.486 88.7648C203.163 89.0553 203.837 89.3734 204.454 89.7675C205.547 90.4685 205.773 91.0833 205.431 92.3108C205.168 93.2539 204.62 93.9344 203.548 94.0268C202.945 94.0811 202.344 94.1602 201.741 94.2269ZM89.3071 138.593C88.2233 138.622 87.1478 138.61 86.0835 138.317C84.8037 137.964 83.8369 137.193 83.061 136.177C82.1178 134.942 82.1917 132.965 83.1882 131.671C84.5573 129.892 86.2426 128.634 88.5497 128.313C89.537 128.175 90.5028 127.93 91.5076 128.089C91.6359 128.11 91.7703 128.111 91.8914 128.149C92.4949 128.346 92.7535 128.725 92.4405 129.334C92.3615 129.489 92.2917 129.647 92.2106 129.802C91.7785 130.627 91.7949 131.439 92.1644 132.299C92.8469 133.887 92.8253 133.897 94.1729 135.439C94.6512 135.985 94.6265 136.951 94.0846 137.43C93.2821 138.139 92.345 138.564 91.2582 138.591C90.6085 138.606 89.9578 138.593 89.3071 138.593Z" fill="black"/>
<path d="M113.617 117.835C113.745 117.146 113.905 116.427 114.009 115.699C114.125 114.929 114.202 114.154 114.241 113.376C114.286 112.261 113.932 111.247 113.322 110.313C112.848 109.588 112.349 108.869 111.968 108.097C111.373 106.894 110.789 105.676 110.351 104.412C109.965 103.304 109.993 102.104 110.005 100.932C110.007 100.701 110.153 100.471 110.379 100.462C110.94 100.442 111.336 100.094 111.787 99.8465C112.014 99.7213 112.243 99.5879 112.487 99.5068C113.247 99.2502 113.723 99.4298 114.135 100.109C114.996 101.529 115.527 103.087 116.038 104.654C116.36 105.641 116.739 106.61 117.064 107.596C117.458 108.789 117.819 109.992 118.199 111.187C118.435 111.929 118.692 112.667 118.925 113.41C119.254 114.46 118.997 115.385 118.255 116.168C117.515 116.96 116.75 117.727 115.96 118.469C115.618 118.785 115.186 119.027 114.762 119.232C114.263 119.473 113.812 119.209 113.696 118.649C113.644 118.397 113.645 118.134 113.617 117.835ZM179.673 137.983C179.733 137.68 179.792 137.292 179.889 136.915C180.325 135.227 180.931 133.612 181.829 132.106C183.827 128.748 185.628 125.277 187.223 121.71C187.596 120.881 188.057 120.091 188.477 119.282C188.997 118.285 189.978 117.99 190.945 117.777C191.72 117.607 192.48 118.534 192.347 119.419C192.276 119.883 192.117 120.349 191.916 120.776C191.566 121.521 191.195 122.262 190.757 122.958C189.275 125.318 188.061 127.813 186.948 130.361C186.165 132.156 185.251 133.871 184.078 135.454C183.133 136.727 181.919 137.707 180.768 138.759C180.579 138.932 180.339 139.066 180.054 138.959C179.814 138.869 179.664 138.566 179.673 138.196V137.983ZM215.351 113.674C215.34 114.351 214.887 114.682 214.368 114.504C213.782 114.304 213.299 113.937 212.849 113.522C211.598 112.368 210.488 111.093 209.558 109.667C207.838 107.028 206.65 104.147 205.743 101.144C205.618 100.73 205.579 100.291 205.469 99.8711C205.295 99.204 205.173 98.5041 204.886 97.8852C204.487 97.0272 204.573 96.2996 205.155 95.5894C205.265 95.4559 205.347 95.2917 205.475 95.1809C205.732 94.9571 205.999 94.6082 206.283 94.5866C206.707 94.5559 207.022 94.9664 207.321 95.2589C207.499 95.4334 207.596 95.6961 207.715 95.928C209.4 99.2133 210.929 102.564 212.08 106.08C212.334 106.859 212.723 107.595 213.046 108.352C213.214 108.747 213.365 109.15 213.542 109.541C213.644 109.777 213.767 110.004 213.909 110.218C214.528 111.125 214.9 112.143 215.264 113.165C215.334 113.363 215.336 113.587 215.351 113.674ZM174.739 123.661C174.623 126.297 174.221 128.729 173.294 131.047C172.941 131.928 172.498 132.783 172.007 133.596C171.421 134.56 170.938 135.582 170.566 136.647C169.558 139.558 168.782 142.536 167.946 145.498C167.865 145.784 167.766 146.073 167.622 146.331C167.467 146.608 167.013 146.601 166.855 146.324C166.732 146.106 166.634 145.855 166.596 145.607C166.444 144.611 166.489 143.606 166.644 142.622C167.113 139.669 167.592 136.717 168.143 133.779C168.503 131.857 169.071 129.989 170.148 128.32C170.521 127.731 170.778 127.077 170.906 126.393C171.182 125.007 171.883 123.803 172.558 122.594C172.743 122.262 173.037 121.979 173.327 121.722C173.861 121.247 174.649 121.589 174.671 122.251C174.688 122.77 174.72 123.291 174.739 123.661ZM193.1 117.244C192.802 117.195 192.5 117.167 192.207 117.095C191.58 116.938 190.956 116.761 190.334 116.586C190.168 116.539 190.005 116.477 189.846 116.406C189.41 116.206 189.21 115.805 189.346 115.337C189.426 115.044 189.544 114.763 189.699 114.502C191.043 112.32 192.057 109.972 193.184 107.679C194.395 105.216 196.264 103.299 198.431 101.653C198.959 101.251 199.521 101.14 200.126 101.475C200.378 101.615 200.511 101.843 200.465 102.121C200.415 102.416 200.319 102.708 200.22 102.993C199.71 104.472 198.99 105.857 198.252 107.231C197.924 107.842 197.582 108.445 197.261 109.059C196.469 110.569 195.934 112.157 195.785 113.869C195.744 114.34 195.625 114.809 195.499 115.267C195.42 115.555 195.289 115.838 195.137 116.097C194.684 116.864 194.048 117.326 193.1 117.244ZM62.8656 81.4826C62.845 81.1563 62.8204 80.9407 62.8194 80.7242C62.8184 80.4717 62.9867 80.3321 63.2053 80.2644C63.4475 80.1895 63.7636 80.365 63.8026 80.6298C64.013 82.0625 64.6606 83.3536 65.0968 84.7125C65.5483 86.1165 65.9353 87.54 65.9927 89.0291C66.0276 89.9118 65.9209 90.7626 65.4396 91.5313C65.3472 91.6781 65.2671 91.8341 65.1594 91.9685C63.9186 93.5111 62.531 93.5521 61.1147 92.3216C60.2023 91.5293 59.8841 90.4639 60.0606 89.259C60.1759 88.4851 60.4124 87.7342 60.7616 87.034C61.2235 86.1021 61.7017 85.1764 62.1748 84.2486C62.6357 83.3454 62.9097 82.3981 62.8656 81.4826ZM65.8747 119.451C65.9856 119.467 66.2052 119.477 66.4135 119.53C66.7534 119.612 67.0543 119.809 67.2647 120.088C67.4752 120.368 67.582 120.711 67.5671 121.06C67.5568 121.361 67.522 121.674 67.4234 121.955C66.8384 123.62 65.9784 125.12 64.5939 126.251C63.856 126.853 63.0698 127.398 62.2826 127.939C61.633 128.385 60.892 128.644 60.1263 128.821C59.9611 128.86 59.7825 128.867 59.6121 128.854C59.2519 128.826 59.0138 128.349 59.2355 128.061C59.4438 127.79 59.7035 127.555 59.956 127.322C60.4332 126.881 60.9351 126.464 61.402 126.012C61.9142 125.516 62.2385 124.926 62.3072 124.189C62.3709 123.5 62.4992 122.816 62.6172 122.133C62.9117 120.419 64.0633 119.445 65.8747 119.451ZM222.23 119.535C222.057 119.493 221.678 119.411 221.304 119.312C219.282 118.78 217.781 117.535 216.594 115.863C216.471 115.689 216.376 115.49 216.292 115.291C216.117 114.885 216.419 114.645 216.644 114.396C216.814 114.207 217.077 114.211 217.356 114.385C217.574 114.523 217.78 114.684 217.996 114.827C219.19 115.609 220.387 116.387 221.581 117.169C221.943 117.405 222.311 117.635 222.657 117.893C222.861 118.053 223.045 118.236 223.206 118.439C223.371 118.645 223.485 118.882 223.339 119.155C223.204 119.407 222.983 119.52 222.705 119.533C222.618 119.538 222.531 119.535 222.23 119.535ZM133.471 33.4829C133.654 33.4685 133.769 33.525 133.733 33.7374L133.753 33.7179C133.576 33.72 133.486 33.6358 133.498 33.4552L133.471 33.4829ZM133.498 33.4552C133.328 33.449 133.244 33.3618 133.247 33.1914L133.214 33.2242C133.379 33.2325 133.476 33.3064 133.469 33.4819L133.498 33.4552Z" fill="black"/>
<path d="M133.246 33.1903L132.993 32.9337L132.967 32.9563L133.215 33.2231L133.246 33.1903ZM132.992 32.9337L132.919 32.8967L132.967 32.9552L132.992 32.9337ZM130.102 18.8732L130.212 18.75C130.205 18.7798 130.207 18.8239 130.19 18.8342C130.159 18.8506 130.118 18.8465 130.081 18.8506L130.102 18.8732Z" fill="black"/>
</svg>
