<svg width="58" height="58" viewBox="0 0 58 58" fill="none" xmlns="http://www.w3.org/2000/svg">
<g clip-path="url(#clip0_1_253)">
<path d="M29 57.5397C44.762 57.5397 57.5397 44.762 57.5397 29C57.5397 13.238 44.762 0.460327 29 0.460327C13.238 0.460327 0.460316 13.238 0.460316 29C0.460316 44.762 13.238 57.5397 29 57.5397Z" stroke="black" stroke-width="1.01587"/>
<path d="M37.9486 21.3956C37.8694 21.1157 37.4827 21.1341 37.4422 21.4223C37.2001 23.1116 38.5921 27.1081 38.095 28.9567C38.0915 28.969 38.0882 28.9813 38.0848 28.9936C37.9771 29.3894 37.4091 29.3121 37.4045 28.9006C37.3879 27.3033 36.9791 25.5559 36.1027 24.4861C32.8004 20.4565 36.3273 17.4829 36.1966 16.519C36.1937 16.4893 36.184 16.4608 36.1683 16.4355C36.1526 16.4102 36.1313 16.3888 36.106 16.3731C36.0808 16.3573 36.0522 16.3476 36.0226 16.3446C35.9929 16.3417 35.963 16.3456 35.9351 16.356C35.9305 16.3578 35.9269 16.3588 35.9259 16.3606C35.7142 16.4803 35.5172 16.6248 35.3202 16.7657C33.9991 17.7103 32.7884 18.8463 32.0887 20.3773C31.6873 21.2575 31.5815 22.2398 31.3522 23.1742C31.2638 23.5296 31.1635 23.8813 31.0457 24.2274C30.914 24.6159 30.7299 25.0063 30.438 25.2944C30.3073 25.4233 30.148 25.5182 29.9713 25.5531C29.5073 25.6452 29.2615 25.3138 29.1731 24.9244C28.9273 23.8398 29.1086 22.7443 29.2007 21.6524C29.5708 17.2573 24.9124 16.8485 26.6137 10.4391C27.0648 8.74143 20.9702 14.3232 23.0232 19.1796C23.4256 20.1297 23.3878 21.0356 22.933 21.9507C22.4478 22.9266 21.8504 23.8085 21.5557 24.8765C21.4508 25.2604 21.391 25.6489 21.344 26.0429C21.2842 26.5502 21.4269 27.3134 20.776 27.445C20.5053 27.5003 20.1315 27.4699 19.9069 27.2885C19.732 27.1458 19.6353 26.924 19.5782 26.7021C19.3085 25.6655 19.3416 24.6169 19.4696 23.5591C19.5828 22.6274 19.6611 20.8726 18.7202 22.6237C15.6858 28.2672 15.7944 35.2944 19.4981 40.588C20.9224 42.6236 22.7296 43.9207 25.0928 44.5136C29.9004 45.7197 35.6479 45.3542 38.674 41.1054C39.8304 39.4824 40.5245 37.5002 40.9784 35.5586C41.5584 33.0784 41.6689 30.7225 40.7611 28.316C39.881 25.9803 38.6363 23.8095 37.9486 21.3956Z" fill="black"/>
</g>
<defs>
<clipPath id="clip0_1_253">
<rect width="58" height="58" fill="white"/>
</clipPath>
</defs>
</svg>
