<svg width="436" height="658" viewBox="0 0 436 658" fill="none" xmlns="http://www.w3.org/2000/svg">
<path d="M435.002 656.485H1.39479L0.9977 137.544C0.9977 137.544 23.5909 131.523 26.609 120.962C36.9572 84.7532 78.889 94.7385 78.889 94.7385C76.8158 85.7075 85.9638 75.5304 93.9136 69.7009C100.092 65.1684 107.485 61.7599 115.554 59.7639C126.609 57.0274 139.554 56.3906 150.727 59.0104C152.244 59.366 153.769 59.7508 155.206 60.2712C155.937 60.5394 157.978 61.1702 158.24 61.8624C151.609 43.7583 164.609 27.5266 189.816 23.3638C215.022 19.2009 217.15 1.51465 217.15 1.51465C217.15 1.51465 219.271 19.2079 244.485 23.3638C269.691 27.5256 282.7 43.7583 276.061 61.8624C276.314 61.1692 278.364 60.5323 279.094 60.2712C280.532 59.7508 282.056 59.3671 283.574 59.0094C294.747 56.3976 307.691 57.0274 318.746 59.7639C326.806 61.7599 334.208 65.1684 340.387 69.7009C348.336 75.5374 357.485 85.7065 355.412 94.7385C355.412 94.7385 397.336 84.7462 407.691 120.962C410.709 131.523 434.581 137.784 434.581 137.784L435.002 656.485Z" fill="#CFFD3C" stroke="black" stroke-width="1.2498"/>
</svg>
