<svg width="225" height="156" viewBox="0 0 225 156" fill="none" xmlns="http://www.w3.org/2000/svg">
<path d="M133.699 0.127316C131.575 0.0975529 129.939 0.431106 128.448 1.14132C124.311 3.11287 123.794 7.04982 125.289 9.95121C125.408 10.1811 125.54 10.4141 125.709 10.6081C126.658 11.6939 127.378 12.9347 128.127 14.1571C129.495 16.3872 131.03 18.485 132.933 20.2975C135.193 22.4507 137.808 23.8978 140.929 24.3545C141.587 24.451 142.192 24.6758 142.693 25.1232C142.814 25.23 142.892 25.4003 142.951 25.5584C143.034 25.7842 142.718 26.1352 142.506 26.0582C142.303 25.9862 142.107 25.8941 141.921 25.7832C141.55 25.559 141.138 25.4107 140.708 25.347C136.706 24.7035 133.545 22.6108 130.888 19.6407C129.521 18.1114 128.355 16.4416 127.274 14.7061C127.066 14.3746 126.813 14.0585 126.676 13.6993C126.239 12.5457 125.287 12.5457 124.324 12.635C124.059 12.6586 123.773 12.8854 123.577 13.0948C123.241 13.4499 123.093 13.9138 123.071 14.4054C123.006 15.8474 123.083 17.2668 123.634 18.6318C124.327 20.3437 125.319 21.8616 126.553 23.2266C127.928 24.7456 129.46 26.0952 131.105 27.3113C131.556 27.6459 132.04 27.9518 132.544 28.1981C134.649 29.2275 136.756 30.2548 138.889 31.2267C139.632 31.5654 140.437 31.7881 141.232 31.9893C142.647 32.3485 143.801 31.8589 144.68 30.7362C145.134 30.1563 145.512 29.5169 145.926 28.9052C146.725 27.7113 147.719 26.6601 148.866 25.7955C150.404 24.6378 152.148 24.0333 154.041 23.8639C154.645 23.8167 155.253 23.8512 155.847 23.9666C156.597 24.1072 157.108 23.8106 157.548 23.2728C157.576 23.2399 157.605 23.2071 157.628 23.1702C158.873 21.2879 160.119 19.4067 161.358 17.5193C161.523 17.2668 161.646 16.9856 161.779 16.7126C161.87 16.5227 161.79 16.3677 161.611 16.2918C160.653 15.8813 159.651 15.9593 158.662 16.0937C157.713 16.222 156.801 16.5124 155.909 16.8634C154.937 17.2463 153.934 17.4874 152.897 17.6506C151.563 17.8695 150.198 17.7831 148.902 17.3982C147.118 16.8645 145.372 16.1974 143.611 15.5806C143.45 15.5241 143.299 15.4287 143.151 15.3394C142.949 15.2172 142.846 14.9412 142.942 14.7872C142.997 14.6926 143.082 14.6189 143.183 14.5779C143.285 14.5368 143.397 14.5307 143.503 14.5604C143.882 14.6487 144.255 14.7667 144.624 14.8939C145.773 15.2911 146.924 15.6811 148.062 16.105C150.447 16.9917 152.811 16.9414 155.189 16.0547C156.119 15.7078 157.084 15.4399 158.05 15.1998C159.336 14.8796 160.63 14.8837 161.909 15.2952C162.257 15.4081 162.35 15.3117 162.447 14.9566C162.778 13.7434 162.574 12.5396 162.379 11.3408C162.293 10.8143 161.975 10.3761 161.596 10.0107C159.854 8.34297 157.986 6.88561 155.547 6.35808C154.064 6.03787 152.591 5.66737 151.113 5.31534C149.421 4.92303 147.779 4.33761 146.22 3.57061C145.366 3.14571 144.495 2.75161 143.628 2.35237C141.197 1.22958 138.613 0.687684 135.976 0.351053C135.074 0.238158 134.166 0.172474 133.699 0.127316ZM192.988 47.5934C192.904 46.2859 192.813 45.2903 192.783 44.2948C192.759 43.5589 192.757 42.8128 192.848 42.0841C193.029 40.637 192.676 39.3316 191.951 38.1C191.552 37.4206 191.073 36.7966 190.478 36.2834C188.159 34.2841 186.321 31.8528 184.384 29.5097C182.889 27.7024 181.439 25.8571 179.91 24.0774C177.464 21.2243 174.678 18.7447 171.467 16.7721C170.621 16.2528 169.707 15.8371 168.808 15.4071C167.887 14.9678 166.891 14.8919 165.885 14.8621C165.536 14.8463 165.189 14.9043 164.864 15.0324C164.54 15.1604 164.246 15.3556 164.003 15.6052C163.542 16.0619 163.09 16.5432 162.721 17.0728C162.195 17.8181 161.719 18.597 161.295 19.4046C160.641 20.6787 159.906 21.91 159.096 23.0911C158.492 23.9635 158.048 24.8872 158.196 25.9987C158.218 26.168 158.191 26.3466 158.167 26.518C157.789 29.3044 158.34 31.9606 159.299 34.5571C159.648 35.5013 160.184 36.3481 160.784 37.1486C162.909 39.9812 165.394 42.4649 168.163 44.6592C169.906 46.0385 171.869 47.0761 173.85 48.0747C174.973 48.6423 176.09 49.2242 177.201 49.8133C177.893 50.1807 178.542 50.6108 179.096 51.1804C179.234 51.3241 179.475 51.4903 179.64 51.4626C180.139 51.3826 180.582 51.6063 181.048 51.6371C181.823 51.6894 182.612 51.7089 183.381 51.6207C184.151 51.5324 184.921 51.3743 185.657 51.0849C186.015 50.9433 186.412 50.9022 186.791 50.8099C186.959 50.7688 187.021 50.5297 186.894 50.3942C186.685 50.1725 186.486 49.9375 186.249 49.7507C185.634 49.2683 185.026 48.7737 184.374 48.3447C182.85 47.344 181.299 46.3823 179.762 45.3991C177.271 43.8073 174.831 42.1457 172.591 40.206C170.051 38.0196 167.847 35.471 166.05 32.642C164.922 30.8665 164.088 28.9801 163.656 26.907C163.345 25.4188 163.034 23.9337 162.949 22.4117C162.927 22.1102 162.946 21.8071 163.005 21.5106C163.035 21.3772 163.218 21.2037 163.349 21.1883C163.471 21.174 163.704 21.3177 163.736 21.4347C163.852 21.8503 163.944 22.2814 163.971 22.7104C164.081 24.411 164.454 26.0613 164.874 27.7013C165.332 29.4871 166.205 31.0882 167.221 32.6174C169.408 35.9067 172.142 38.6778 175.275 41.0701C177.625 42.8662 180.128 44.4334 182.63 46.0047C183.803 46.751 184.957 47.5244 186.094 48.3241C187.027 48.9748 187.863 49.7353 188.438 50.736C188.635 51.0788 188.912 51.2163 189.288 51.2235C189.592 51.2296 189.897 51.2697 190.199 51.2594C191.386 51.2183 192.373 50.4938 192.7 49.334C192.882 48.6751 192.927 47.9762 192.988 47.5934ZM94.9202 18.8504C94.91 18.9777 94.8587 19.1172 94.8956 19.2301C95.1686 20.0522 95.4272 20.8825 95.7536 21.6851C96.1804 22.7365 96.8455 23.6746 97.6964 24.4253C97.9253 24.6265 98.1511 24.8307 98.3666 25.0452C100.14 26.7982 102.331 27.6264 104.75 28.0103C106.825 28.3387 108.911 28.3366 110.988 28.195C112.937 28.0636 114.848 27.6244 116.729 27.0907C116.978 27.0209 117.213 26.8967 117.459 26.8136C118.069 26.6073 118.455 26.1978 118.768 25.6292C120.016 23.359 120.873 20.9646 121.159 18.3834C121.211 17.9134 121.225 17.4187 121.141 16.9568C120.936 15.8402 120.966 14.7164 120.921 13.5936C120.92 13.5792 120.769 13.5361 120.717 13.5628C119.786 14.0329 118.836 14.4506 117.831 14.7451C116.235 15.2121 114.594 15.3568 112.951 15.4841C110.528 15.675 108.101 15.8125 105.68 16.0188C104.863 16.0886 104.061 16.3082 103.246 16.4303C102.824 16.4929 102.392 16.5053 101.963 16.5166C101.813 16.5207 101.722 16.2025 101.84 16.0988C102.001 15.9593 102.159 15.7858 102.35 15.7191C102.88 15.5344 103.418 15.3342 103.97 15.2521C106.032 14.9531 108.108 14.7579 110.19 14.6671C112.485 14.5614 114.791 14.4454 117.039 13.9107C118.484 13.5669 119.853 13.0189 121.035 12.0839C121.687 11.5687 122.289 11.0073 122.599 10.2047C122.645 10.0836 122.692 9.95018 122.779 9.85884C123.454 9.13426 123.393 8.25574 123.249 7.39568C123.126 6.66806 122.938 5.95316 122.685 5.25992C122.298 4.20076 121.816 3.17753 121.403 2.12761C121.134 1.44408 120.721 1.14953 119.938 1.12695C117.235 1.04895 114.556 1.20084 111.897 1.67603C108.733 2.2405 105.603 2.95379 102.566 4.01911C101.585 4.36395 100.626 4.77345 99.6495 5.13882C99.4535 5.21271 99.2338 5.23426 99.0234 5.25684C98.889 5.27121 98.7361 4.9664 98.8192 4.85145C98.9188 4.717 99.0173 4.55587 99.1579 4.48197C99.8076 4.13508 100.451 3.76971 101.133 3.49261C103.024 2.72082 104.99 2.17584 106.969 1.68218C107.851 1.46358 108.741 1.28397 109.625 1.08179C109.699 1.06537 109.766 1.01816 109.835 0.98429C109.753 0.960684 109.67 0.934 109.588 0.9145C109.545 0.906148 109.502 0.904074 109.458 0.908342C106.64 1.11668 103.84 1.4369 101.138 2.32158C99.5294 2.84911 97.9376 3.42076 96.4135 4.16895C95.0044 4.86274 93.664 5.66224 92.4725 6.68855C91.6596 7.38747 90.7708 7.87395 89.6881 7.98582C89.3453 8.02174 89.0004 8.10384 88.672 8.21263C87.5893 8.56979 87.2034 9.66795 87.8469 10.6183C88.1127 11.0083 88.4503 11.3614 88.8013 11.6795C89.413 12.2337 90.0545 12.7541 90.6939 13.2754C91.7068 14.1037 92.6459 14.9976 93.3828 16.0937C93.5963 16.4119 93.8744 16.7116 94.1854 16.9353C96.4843 18.5805 98.8623 20.0861 101.539 21.0744C103.264 21.7128 105.051 22.0289 106.865 22.2372C107.77 22.3409 108.681 22.4004 109.591 22.4487C111.42 22.5451 113.233 22.3799 115.041 22.1079C115.595 22.0238 116.159 21.994 116.72 21.9653C116.809 21.9612 116.96 22.0884 116.984 22.1808C117.008 22.2762 116.94 22.4363 116.859 22.5061C116.726 22.6178 116.572 22.7 116.405 22.7473C115.904 22.8859 115.403 23.0491 114.891 23.1168C113.085 23.3559 111.28 23.633 109.448 23.398C109.06 23.3477 108.668 23.3303 108.277 23.3221C104.19 23.2256 100.411 22.0905 96.9277 19.9588C96.4084 19.6417 95.8983 19.3102 95.3739 19.0043C95.2353 18.9243 95.0557 18.9151 94.8946 18.874L94.9202 18.8504ZM91.2665 33.7371C90.9073 33.6324 90.7103 33.9188 90.4712 34.0819C89.2119 34.9441 87.8972 35.7035 86.4305 36.1541C85.6454 36.3953 84.8398 36.5779 84.0351 36.7442C83.7006 36.813 83.3372 36.8161 82.9975 36.7699C81.2261 36.5338 79.4465 36.5451 77.6648 36.5225C76.8848 36.5123 76.1058 36.4261 75.3279 36.3583C75.1577 36.3423 74.9939 36.2852 74.8506 36.1921C74.8011 36.1538 74.7604 36.1053 74.7313 36.0499C74.7023 35.9944 74.6856 35.9333 74.6823 35.8708C74.6844 35.7631 74.7726 35.6081 74.865 35.5639C75.0538 35.4736 75.2735 35.3895 75.4777 35.3956C77.517 35.4623 79.5553 35.5475 81.5946 35.6286C81.8552 35.6389 82.1221 35.6307 82.3725 35.6881C83.4306 35.9242 84.4487 35.7035 85.4545 35.4192C86.6676 35.0752 87.8265 34.5632 88.8978 33.8982C90.4619 32.9345 91.8392 31.7461 93.1201 30.4385C93.4926 30.0588 93.7903 29.6442 93.8488 29.092C94.0766 26.907 94.0007 24.7548 93.1806 22.6796C93.0421 22.3276 92.9271 22.2588 92.6008 22.4281C90.7483 23.3806 88.8896 24.3217 87.0587 25.3141C84.6509 26.6151 82.32 28.0537 80.0777 29.6226C79.7204 29.8666 79.3466 30.0854 78.959 30.2774C78.881 30.3184 78.6901 30.2497 78.6244 30.1707C78.5618 30.0937 78.5423 29.9079 78.5936 29.8227C78.7014 29.6401 78.8471 29.4666 79.0134 29.3342C79.7256 28.7667 80.4215 28.1724 81.1789 27.6685C84.3646 25.5471 87.7196 23.7223 91.1372 22.0053C91.3702 21.8893 91.6093 21.7836 91.8413 21.6666C92.7003 21.2407 92.7003 21.2397 92.3339 20.4104C91.8741 19.3738 91.3076 18.3988 90.6035 17.509C90.0381 16.7926 89.4715 16.0773 88.8732 15.3897C88.2974 14.7277 87.7976 14.0277 87.4815 13.2036C87.4181 13.0418 87.3441 12.8845 87.2598 12.7325C87.1089 12.4534 86.9211 12.3548 86.6194 12.4585C85.8825 12.7141 85.1353 12.9532 84.4262 13.2734C82.3243 14.2227 80.3404 15.3876 78.4181 16.6602C76.0622 18.2204 73.8603 20.0016 71.8425 21.9796C71.4412 22.3717 71.0019 22.7288 70.5637 23.0809C70.4929 23.1373 70.2928 23.124 70.2219 23.0624C70.146 22.9967 70.0885 22.8007 70.1327 22.7237C70.3017 22.4229 70.4982 22.1384 70.7197 21.8739C71.941 20.4514 73.3122 19.185 74.7901 18.0355C77.2915 16.0838 79.9726 14.3742 82.7974 12.9296C83.8422 12.3959 84.9116 11.9207 86.0354 11.5728C86.4357 11.4496 86.4849 11.2854 86.2335 10.9334C85.6434 10.1082 84.9465 9.41342 83.9715 9.03779C83.6205 8.90232 83.329 8.8664 82.9985 9.09732C81.1768 10.3741 79.1499 11.2823 77.1824 12.2922C74.9821 13.4294 72.8891 14.7632 70.9291 16.2774C70.2435 16.8049 69.6257 17.4269 69.0129 18.0406C67.1401 19.9211 65.5468 22.0605 64.2816 24.3935C63.4854 25.8453 63.0062 27.4495 62.8756 29.1002C62.7853 30.2209 62.2772 30.9681 61.3412 31.4967C60.9635 31.7101 60.59 31.9328 60.2195 32.1586C59.7268 32.4583 59.3266 32.8493 59.0741 33.3748C58.6584 34.2359 59.0608 34.9646 60.005 35.0467C60.3067 35.0723 60.6126 35.0641 60.9174 35.06C64.5362 35.0046 67.9651 35.8965 71.3109 37.1712C73.2219 37.8998 75.0179 38.8677 76.8119 39.8447C77.2676 40.0931 77.7418 40.3127 78.218 40.52C78.8389 40.7899 79.4824 40.8331 80.1259 40.6083C80.9859 40.3086 81.8583 40.0366 82.6896 39.6692C83.641 39.2484 84.5544 38.7424 85.4812 38.2652C87.5472 37.1999 89.3196 35.7364 90.9925 34.1456C91.1095 34.0358 91.166 33.8623 91.2491 33.7186L91.2676 33.7371H91.2665ZM184.105 155.028C184.626 155.028 185.148 155.035 185.668 155.027C188.288 154.986 190.566 154.075 192.584 152.41C193.919 151.299 195.303 150.25 196.732 149.264C198.931 147.763 201.418 147.035 204.064 146.866C206.019 146.741 207.966 146.901 209.915 147.062C212.167 147.25 214.428 147.257 216.684 147.157C217.513 147.121 218.314 146.93 219.051 146.516C219.353 146.347 219.68 146.224 219.993 146.074C221.137 145.52 222.316 145.417 223.536 145.778C223.659 145.815 223.79 145.842 223.917 145.845C223.995 145.847 224.132 145.803 224.14 145.762C224.16 145.65 224.165 145.496 224.102 145.417C223.941 145.212 223.756 145.028 223.549 144.87C223.062 144.509 222.574 144.141 222.049 143.842C221.681 143.632 221.263 143.44 220.812 143.669C219.864 143.594 218.912 143.545 217.965 143.44C215.982 143.22 214.003 142.965 212.021 142.738C207.963 142.274 203.941 141.641 200.053 140.333C198.442 139.791 196.927 139.045 195.454 138.206C193.025 136.821 190.433 135.852 187.744 135.118C186.417 134.755 185.065 134.771 183.737 134.973C182.366 135.181 181.031 135.581 179.784 136.228C177.967 137.17 176.467 138.445 175.493 140.275C175.104 141.002 174.726 141.734 174.36 142.473C173.803 143.602 173.232 144.725 172.724 145.874C172.388 146.626 172.111 147.403 171.894 148.197C171.446 149.876 172.038 151.281 173.226 152.447C173.553 152.768 174.024 152.97 174.459 153.152C175.702 153.667 176.978 154.078 178.3 154.355C180.217 154.755 182.134 155.112 184.105 155.028ZM48.4846 56.3202C48.5728 57.9961 48.618 59.3006 49.0029 60.5568C49.1568 61.0556 49.1045 61.4774 48.8181 61.9084C48.482 62.4148 48.1676 62.9352 47.876 63.4684C47.5578 64.0483 47.3885 64.6723 47.4429 65.3456C47.5003 66.0578 47.8052 66.455 48.4887 66.6695C49.1271 66.8707 49.7747 66.8183 50.4223 66.729C51.3675 66.5987 52.3127 66.4653 53.2569 66.336C54.0523 66.2282 54.7636 65.9357 55.3588 65.3887C55.9336 64.8591 56.4929 64.31 57.082 63.7969C57.8004 63.1688 58.5168 62.5314 59.2835 61.9649C61.1226 60.604 63.1917 59.9102 65.4937 60.0046C66.4543 60.0457 67.4047 59.9821 68.3469 59.8066C70.068 59.4863 71.5777 58.8008 72.5712 57.2664C73.8572 55.2785 74.7141 53.1068 75.3227 50.8294C75.3433 50.7544 75.3002 50.6631 75.2858 50.58C75.1955 50.6169 75.0621 50.6292 75.0231 50.6959C73.694 52.96 71.6465 54.4071 69.3886 55.5853C67.6541 56.4905 65.9402 57.4234 64.3145 58.5103C64.1321 58.6266 63.9422 58.7305 63.7459 58.8213C63.5334 58.9239 63.2574 58.8623 63.1712 58.7022C63.048 58.4764 63.1239 58.263 63.2892 58.1131C63.6104 57.8258 63.9347 57.5251 64.3022 57.3023C65.4527 56.6065 66.6216 55.9373 67.7896 55.2702C68.2032 55.0332 68.6517 54.8525 69.0581 54.6052C69.9099 54.0848 70.7823 53.5871 71.5777 52.9898C74.3077 50.9402 75.4993 48.1045 75.6665 44.769C75.6871 44.3677 75.5957 43.9992 75.4069 43.6441C74.9974 42.8713 74.5222 42.1406 73.8797 41.5474C73.2742 40.9891 72.6256 40.4759 71.981 39.9617C71.862 39.8663 71.6732 39.8591 71.5172 39.8098C71.4884 39.9761 71.4484 40.1423 71.435 40.3107C71.4227 40.44 71.4453 40.5703 71.4494 40.7007C71.4987 41.9979 71.1415 43.1843 70.5021 44.303C69.8463 45.4463 69.0006 46.4254 68.0287 47.3081C66.7109 48.5058 65.4383 49.7487 64.2785 51.1075C62.4845 53.2073 61.0908 55.5453 59.9701 58.0598C59.8081 58.4107 59.6176 58.7478 59.4005 59.0676C59.3492 59.1456 59.1336 59.2021 59.0587 59.1579C58.9193 59.0689 58.8115 58.9382 58.7508 58.7843C58.7098 58.6807 58.759 58.5257 58.8021 58.4077C59.0177 57.8391 59.2127 57.2613 59.4713 56.7143C60.8825 53.7462 62.7247 51.0747 65.0627 48.7583C66.0192 47.8099 66.9952 46.8822 67.9641 45.9462C68.7512 45.1939 69.3973 44.3069 69.872 43.327C70.5032 42.0174 70.6089 40.6678 70.1778 39.2731C70.0793 38.9569 69.9182 38.7312 69.6154 38.6059C68.6158 38.1882 67.6141 37.7757 66.6175 37.3508C66.1752 37.1619 65.8981 37.3549 65.6097 37.6761C62.8931 40.6792 60.7201 44.1323 59.188 47.8808C58.3495 49.9293 57.5357 51.9881 56.925 54.1208C56.8353 54.4087 56.7083 54.6837 56.5473 54.9387C56.498 55.0208 56.3113 55.0763 56.2055 55.0537C56.1451 55.0354 56.0893 55.0042 56.0422 54.9622C55.995 54.9202 55.9576 54.8684 55.9325 54.8104C55.8765 54.6476 55.8617 54.4734 55.8894 54.3034C55.9592 53.9206 56.0403 53.5347 56.1614 53.1642C57.3643 49.4849 58.757 45.8866 60.7367 42.5419C61.5397 41.1992 62.4416 39.9183 63.4349 38.7096C63.8465 38.2047 64.2673 37.7069 64.6819 37.204C64.8317 37.0234 64.803 36.8899 64.5947 36.8273C63.3877 36.462 62.151 36.2393 60.9051 36.0638C60.3755 35.9888 59.9752 36.1828 59.6499 36.5831C59.1572 37.1886 58.6441 37.7798 58.1668 38.3986C55.9038 41.3308 54.4105 44.6386 53.4766 48.2041C53.0034 50.0073 52.6145 51.8331 52.1803 53.6466C52.1003 53.9812 52.0059 54.3147 51.8868 54.638C51.8728 54.6793 51.8505 54.7172 51.8214 54.7495C51.7922 54.7818 51.7567 54.8078 51.7171 54.8258C51.6775 54.8439 51.6346 54.8537 51.591 54.8546C51.5475 54.8554 51.5043 54.8474 51.464 54.831C51.3572 54.7899 51.2177 54.6678 51.2074 54.5713C51.1766 54.2737 51.1561 53.9627 51.2105 53.6712C51.4168 52.5628 51.6087 51.4472 51.8909 50.3583C52.3085 48.7184 52.7736 47.091 53.2857 45.4782C54.3243 42.2535 56.0475 39.4024 58.1607 36.775C58.3208 36.5749 58.4686 36.3645 58.602 36.1469C58.6205 36.1151 58.524 35.9539 58.4881 35.957C57.9318 35.9981 57.3694 36.0176 56.8234 36.1274C56.5935 36.1736 56.3646 36.384 56.2055 36.579C55.7642 37.1127 55.328 37.6587 54.9432 38.2344C53.1297 40.9562 51.6508 43.8494 50.5629 46.9376C49.9286 48.7388 49.2297 50.5246 48.9485 52.4243C48.735 53.8406 48.6057 55.2672 48.4846 56.3202ZM140.026 123.91C141.307 123.785 142.796 124.021 144.226 124.605C144.515 124.722 144.756 124.67 144.909 124.426C145.888 122.87 147.289 121.668 148.42 120.237C148.842 119.702 149.442 119.306 149.979 118.867C150.35 118.557 150.823 118.396 151.306 118.414C152.323 118.449 153.149 117.996 153.89 117.362C154.186 117.11 154.431 116.799 154.711 116.528C155.678 115.593 156.766 115.092 158.138 115.562C158.548 115.703 158.979 115.776 159.395 115.895C159.622 115.96 159.762 116.217 159.695 116.395C159.661 116.498 159.597 116.589 159.511 116.656C159.425 116.723 159.321 116.763 159.212 116.771C159.087 116.785 158.955 116.754 158.829 116.726C158.448 116.643 158.068 116.551 157.69 116.461C157.111 116.322 156.536 116.359 156.076 116.736C155.273 117.393 154.514 118.104 153.746 118.802C153.723 118.822 153.756 118.954 153.799 118.985C153.904 119.059 154.025 119.114 154.145 119.16C154.752 119.392 155.364 119.61 155.969 119.85C156.191 119.938 156.361 119.938 156.554 119.769C156.879 119.485 157.22 119.213 157.575 118.97C159.113 117.92 161.032 118.223 162.007 119.778C162.597 120.718 163.239 121.686 163.218 122.886C163.213 123.165 163.344 123.384 163.563 123.552C163.633 123.604 163.705 123.657 163.762 123.72C164.457 124.495 165.294 124.945 166.359 125.021C166.771 125.049 167.165 125.311 167.567 125.465C167.905 125.593 168.111 125.469 168.28 125.123C168.492 124.69 168.411 124.288 168.255 123.867C167.636 122.183 166.786 120.629 165.66 119.228C165.606 119.16 165.554 119.089 165.491 119.031C164.253 117.889 163.674 116.412 163.348 114.809C163.286 114.512 163.233 114.213 163.182 113.914C162.892 112.248 162.028 110.938 160.714 109.905C159.622 109.045 158.422 108.332 157.144 107.784C154.543 106.667 151.87 105.792 149.079 105.3C147.452 105.014 145.808 104.82 144.159 104.87C143.214 104.9 142.273 105.132 141.334 105.301C140.909 105.378 140.496 105.519 140.08 105.643C137.837 106.312 135.596 106.991 133.321 107.542C132.816 107.67 132.323 107.838 131.845 108.045C131.214 108.314 130.808 108.493 131.717 109.126C132.099 109.393 132.39 109.796 132.695 110.161C132.944 110.459 133.156 110.791 133.376 111.113C134.261 112.407 135.517 112.961 137.05 112.967C137.616 112.969 138.18 112.951 138.743 112.982C140.361 113.073 141.764 113.719 143.004 114.731C143.264 114.943 143.478 115.238 143.638 115.534C143.729 115.701 143.689 115.951 143.667 116.161C143.65 116.337 143.267 116.469 143.13 116.358C143.029 116.28 142.938 116.19 142.859 116.089C141.957 114.847 140.637 114.322 139.211 114.039C138.625 113.922 138.004 113.961 137.399 113.968C135.414 113.994 133.727 113.403 132.558 111.695C132.338 111.373 132.129 111.039 131.876 110.743C131.597 110.414 131.277 110.12 130.965 109.82C130.912 109.769 130.793 109.736 130.727 109.759C130.669 109.78 130.611 109.887 130.603 109.961C130.466 111.15 130.693 112.297 131.049 113.42C131.244 114.038 131.509 114.636 131.748 115.241C131.907 115.644 132.075 116.042 132.234 116.446C132.365 116.776 132.376 117.104 132.289 117.461C131.687 119.984 133.1 121.935 134.854 122.932C135.914 123.537 137.106 123.871 138.326 123.906C138.809 123.925 139.287 123.91 140.026 123.91Z" fill="black"/>
<path d="M169.687 148.508C170.95 148.516 171.436 147.953 171.214 146.784C171.11 146.232 170.937 145.692 170.799 145.146C170.661 144.6 170.529 144.053 170.392 143.507C170.261 142.98 170.356 142.475 170.525 141.973C170.612 141.711 170.763 141.52 171.025 141.415C171.227 141.334 171.423 141.242 171.618 141.147C172.461 140.744 173.251 139.19 172.667 138.108C172.442 137.692 172.213 137.265 171.913 136.902C170.55 135.255 169.042 133.766 167.173 132.682C166.273 132.159 165.385 131.616 164.49 131.084C164.304 130.972 164.103 130.882 163.931 130.753C162.858 129.943 161.774 129.147 160.732 128.301C159.477 127.281 158.519 125.979 157.488 124.751C156.846 123.986 156.224 123.204 155.557 122.463C154.886 121.713 154.004 121.183 153.027 120.943C152.427 120.789 151.806 120.722 151.224 120.9C149.87 121.313 148.693 122.023 147.861 123.207C147.587 123.598 147.331 124.002 147.084 124.41C146.386 125.568 146.116 126.814 146.344 128.155C146.381 128.368 146.436 128.58 146.479 128.791C146.634 129.558 146.505 130.245 145.974 130.857C144.952 132.038 144.822 133.387 145.122 134.887C145.465 136.59 146.327 137.931 147.601 139.052C149.787 140.98 152.304 142.495 155.031 143.524C157.1 144.308 159.195 145.01 161.337 145.562C162.898 145.965 164.391 146.537 165.852 147.204C166.561 147.528 167.273 147.851 167.999 148.137C168.567 148.358 169.145 148.561 169.687 148.508ZM178.17 127.632C179.521 127.73 180.741 127.399 181.933 126.997C183.295 126.54 184.666 126.166 186.094 125.977C186.865 125.876 187.628 125.685 188.382 125.49C189.797 125.123 191.213 125.168 192.645 125.361C194.534 125.617 196.425 125.887 198.324 126.066C201.525 126.368 204.693 126.834 207.794 127.706C208.754 127.976 209.727 128.204 210.676 128.505C212.398 129.052 213.929 129.928 215.165 131.273C215.225 131.337 215.279 131.429 215.352 131.449C215.508 131.492 215.69 131.548 215.835 131.506C216.091 131.431 216.101 131.205 216.041 130.974C215.874 130.346 215.701 129.72 215.545 129.089C215.213 127.742 214.439 126.721 213.205 126.12C212.116 125.588 211 125.088 209.849 124.717C207.334 123.904 204.786 123.189 202.255 122.422C200.761 121.969 199.266 121.523 197.786 121.027C195.263 120.183 192.911 118.979 190.68 117.534C189.658 116.874 188.628 116.229 187.6 115.581C185.503 114.258 183.282 113.171 181.022 112.16C179.146 111.321 177.166 110.855 175.125 110.639C174.607 110.584 174.092 110.511 173.573 110.471C172.297 110.373 171.061 110.629 169.856 110.995C168.655 111.361 167.479 111.815 166.296 112.243C166.053 112.336 165.82 112.453 165.601 112.593C165.206 112.837 164.967 113.166 165.034 113.67C165.16 114.614 165.232 115.561 165.531 116.481C165.864 117.502 166.505 118.095 167.576 118.208C169.335 118.394 170.525 119.382 171.308 120.902C171.604 121.477 171.822 122.096 172.062 122.699C172.303 123.303 172.525 123.915 172.759 124.522C173.541 126.551 175.172 127.375 177.196 127.624C177.538 127.669 177.891 127.632 178.17 127.632ZM47.4111 84.3036L47.1001 85.5598C46.4946 88.0107 46.7645 90.3065 48.3727 92.3304C48.9372 93.0406 49.5807 93.6954 50.2232 94.3399C51.3264 95.4473 52.4626 96.5219 53.5741 97.62C55.1269 99.1534 56.4539 100.873 57.5952 102.725C58.2079 103.718 58.6625 104.807 59.1921 105.851C59.4672 106.391 59.732 106.938 60.0399 107.46C60.3293 107.951 60.8024 108.145 61.3669 108.127C61.9888 108.109 62.5738 107.961 63.0932 107.616C64.3504 106.781 65.7277 106.302 67.2343 106.215C67.964 106.173 68.2648 105.66 68.5275 105.1C68.5603 105.032 68.5408 104.926 68.5152 104.848C68.4855 104.767 68.439 104.692 68.3787 104.63C66.4441 102.501 64.9775 100.022 63.2266 97.7535C61.5557 95.5869 59.8859 93.4224 58.1012 91.3452C56.574 89.5665 55.0715 87.7664 53.5536 85.9796C52.7623 85.0467 51.8683 84.2297 50.8194 83.5883C50.2632 83.2365 49.5931 83.1116 48.9474 83.2393C48.6601 83.2906 48.385 83.6385 48.1213 83.4189C47.9601 83.2845 48.0084 82.9253 47.8975 82.6984C47.6728 82.2387 47.0416 81.9492 46.4402 82.0765C45.9308 82.1813 45.4362 82.3481 44.9674 82.5732C44.2284 82.9366 43.51 83.3461 42.8121 83.7843C41.0828 84.8671 39.3812 85.9898 37.7986 87.2881C36.0867 88.6921 34.3071 90.0109 32.6814 91.5217C30.5516 93.5054 28.5626 95.635 26.7287 97.8951C26.4271 98.2649 26.1679 98.6673 25.9559 99.0949C25.5587 99.9057 25.7168 100.478 26.4311 101.029C27.0849 101.532 27.752 102.015 28.4016 102.524C29.5029 103.384 30.6801 103.554 31.927 102.898C32.4997 102.597 33.0765 102.275 33.5794 101.871C34.8962 100.807 36.2088 99.7343 37.4568 98.5909C39.6459 96.5855 41.4533 94.2465 43.0903 91.7834C43.9544 90.4841 44.7098 89.1109 45.4672 87.7438C45.8439 87.0654 46.1507 86.3398 46.4186 85.6091C46.6239 85.0518 46.9071 84.6053 47.4377 84.3323L47.5014 84.2584C47.4723 84.2756 47.4422 84.2906 47.4111 84.3036ZM64.805 62.0674C62.9289 62.0387 61.3525 62.7582 60.0317 64.0708C59.693 64.4064 59.3953 64.781 59.0823 65.1413C57.9677 66.4242 56.7557 67.5993 55.3157 68.5209C54.3674 69.1285 53.416 69.7351 52.4677 70.3437C52.1023 70.5777 51.9751 70.942 52.1218 71.3525C52.1793 71.5137 52.2614 71.6697 52.3517 71.8164C53.0291 72.9279 53.7075 74.0384 54.39 75.1468C55.2048 76.4848 56.2287 77.6837 57.4228 78.6979C58.6482 79.7324 59.9126 80.7228 61.1616 81.7317C61.2632 81.8138 61.3772 81.8805 61.4767 81.9626C62.2116 82.5609 63.0182 82.7118 63.9142 82.3772C64.2796 82.2407 64.6593 82.1442 65.0206 81.9975C68.2381 80.6961 71.5551 79.6759 74.825 78.5275C76.4599 77.9528 78.0538 77.2621 79.7462 76.8567C79.8303 76.8361 79.9104 76.8002 79.9904 76.7674C80.2716 76.6514 80.3753 76.4277 80.2306 76.1413C79.6435 74.9816 79.1129 73.7839 78.4345 72.6796C76.3337 69.2722 73.5698 66.4744 70.3266 64.1447C69.2634 63.3822 68.0975 62.8115 66.8577 62.3856C66.1906 62.1578 65.5183 62.0305 64.805 62.0674ZM157.985 67.2668C157.922 68.6543 158.381 70.044 159.137 71.3412C159.464 71.9047 159.859 72.4291 160.51 72.6796C160.829 72.8027 161.16 72.6231 161.154 72.2844C161.148 72.0319 161.137 71.7497 161.025 71.5332C160.011 69.5524 160.122 67.4895 160.651 65.4368C161.246 63.1235 162.563 61.271 164.557 59.9276C164.88 59.709 165.218 59.5068 165.568 59.3354C167.224 58.5174 168.835 58.6211 170.398 59.5992C171.284 60.1513 172.086 60.8285 172.78 61.6097C173.675 62.6155 174.56 63.6305 175.426 64.6609C176.251 65.6411 177.248 66.3934 178.353 67.0184C179.317 67.5634 180.364 67.8066 181.463 67.8641C184.58 68.0232 187.272 66.9814 189.568 64.9227C192.298 62.4759 193.814 59.3908 194.335 55.7648C194.544 54.3188 194.448 52.9086 194.248 51.4882C194.17 50.9237 194.019 50.3818 193.567 49.9795C193.324 49.764 192.897 49.8019 192.785 50.079C191.956 52.1317 190.285 53.0903 188.257 53.5921C186.927 53.9216 185.585 53.8528 184.244 53.6958C181.873 53.4187 179.51 53.0697 177.134 52.8522C174.028 52.5679 170.97 52.846 168.055 54.054C163.957 55.7525 160.872 58.5472 158.97 62.5857C158.295 64.0195 157.975 65.5405 157.985 67.2657V67.2668ZM85.4997 110.341C85.4863 110.27 85.4361 109.928 85.354 109.594C85.1251 108.661 84.7525 107.783 84.2897 106.943C84.1449 106.68 84.1665 106.459 84.3677 106.237C86.2448 104.166 87.6827 101.777 89.2365 99.4756C89.8379 98.5848 90.229 97.5513 90.7021 96.5753C90.8724 96.2243 91.0079 95.8568 91.1496 95.4925C91.5806 94.3841 92.3688 93.6113 93.4116 93.0765C93.7205 92.9175 94.0345 92.7676 94.3352 92.5942C94.9336 92.2504 95.0106 91.9887 94.6267 91.457C94.3219 91.0362 93.9832 90.638 93.6312 90.2562C92.8625 89.43 92.0271 88.6613 91.3138 87.792C90.5338 86.8437 89.5598 86.1109 88.7069 85.2488C88.5222 85.0621 88.2184 85.0497 87.9885 85.2345C87.617 85.5321 87.2352 85.8308 86.9252 86.1889C86.0046 87.2532 84.9301 88.0999 83.7067 88.7999C83.0755 89.1612 82.5408 89.6989 81.9897 90.1875C80.2347 91.744 78.4889 93.3109 76.7524 94.888C75.6922 95.8507 74.6556 96.8431 73.6119 97.8263C73.4502 97.9715 73.3015 98.1305 73.1675 98.3015C72.7857 98.8208 72.6482 99.3319 72.9827 99.9806C74.2985 102.534 75.6871 105.037 77.6597 107.164C78.5166 108.086 79.3572 109.025 80.2429 109.919C80.6986 110.379 81.2199 110.782 81.7423 111.168C82.3397 111.611 83.0273 111.883 83.7354 112.112C84.8151 112.461 85.3899 111.96 85.5007 110.878C85.5079 110.792 85.5007 110.705 85.5007 110.341H85.4997ZM80.2686 77.4694C79.8909 77.5515 79.4998 77.5977 79.1355 77.7208C78.4787 77.9415 77.8321 78.1939 77.1906 78.4546C74.0522 79.7273 71.0122 81.2093 68.0195 82.7888C66.2552 83.7196 64.4787 84.6259 62.7073 85.5434C62.5913 85.6029 62.4671 85.647 62.3563 85.7138C61.7148 86.0914 61.5557 86.894 61.9991 87.5016C62.0504 87.5704 62.1069 87.6381 62.1726 87.6966C63.125 88.5433 63.7818 89.6209 64.5105 90.6473C65.819 92.4864 67.4745 93.9079 69.5456 94.85C70.4898 95.279 71.3724 95.3149 72.2674 94.7648C72.7097 94.4918 73.1788 94.2599 73.6149 93.9777C75.6553 92.6568 77.6792 91.3113 79.7256 90.0007C81.0746 89.1323 82.4427 88.294 83.8288 87.4862C84.5206 87.0849 85.1066 86.6056 85.5592 85.9467C86.0477 85.2334 86.4798 84.4729 87.1962 83.9403C87.383 83.8017 87.4199 83.5657 87.3542 83.345C87.2748 83.0567 87.1697 82.7761 87.0402 82.5065C86.9333 82.3165 86.7944 82.1464 86.6297 82.0036C85.3201 80.8008 84.0947 79.5035 82.6527 78.4505C82.3368 78.2207 82.0048 78.0138 81.6592 77.8317C81.232 77.5997 80.7547 77.4753 80.2686 77.4694Z" fill="black"/>
<path d="M97.3146 114.973C97.2387 114.574 97.173 113.968 97.0026 113.392C96.8076 112.732 96.8343 112.114 97.1083 111.495C97.3362 110.98 97.5394 110.451 97.8001 109.951C99.8301 106.049 101.245 101.907 102.585 97.735C102.626 97.6119 102.675 97.4897 102.703 97.3645C102.782 96.9981 102.705 96.6697 102.405 96.4254C101.293 95.5223 100.158 94.6499 98.812 94.106C98.2476 93.8781 97.6708 93.7119 97.0478 93.7026C96.7081 93.6965 96.3704 93.5959 96.0307 93.5364C95.7331 93.484 95.4375 93.4009 95.1378 93.3845C94.7273 93.3598 94.3712 93.5035 94.132 93.8648C94.0371 94.0102 93.9447 94.1574 93.8549 94.3061C91.6001 97.9598 89.3484 101.618 87.0874 105.268C86.7005 105.892 86.3279 106.539 85.8517 107.093C85.4412 107.569 85.4473 108.024 85.6465 108.531C85.7563 108.811 85.9205 109.072 86.0796 109.33C87.9803 112.42 90.5646 114.827 93.5532 116.834C94.0954 117.197 94.6976 117.461 95.3318 117.614C96.2811 117.845 96.9647 117.431 97.171 116.476C97.2613 116.055 97.2572 115.614 97.3146 114.973ZM103.005 125.839C103.015 125.13 102.827 124.464 102.557 123.82C102.475 123.621 102.389 123.397 102.235 123.263C101.46 122.577 100.823 121.738 99.8804 121.237C98.421 120.461 96.9575 119.692 95.3605 119.247C92.7516 118.518 90.3316 117.344 87.9156 116.159C85.5336 114.993 83.2582 113.643 81.0568 112.16C79.9442 111.41 78.7568 110.764 77.5796 110.116C76.3621 109.448 75.128 108.809 73.8787 108.201C73.2978 107.918 72.6769 107.711 72.0591 107.516C71.4268 107.316 70.7864 107.359 70.1286 107.475C69.5323 107.579 69.0807 107.851 68.6917 108.287C67.8563 109.218 67.6408 110.366 67.6069 111.551C67.5905 112.083 67.8594 112.576 68.2894 112.909C68.8005 113.308 69.3198 113.716 69.8905 114.018C72.3454 115.324 74.865 116.48 77.5632 117.22C79.1109 117.645 80.638 118.144 82.1672 118.634C85.161 119.592 87.9249 121.055 90.6703 122.55C91.9675 123.255 93.2607 123.971 94.5354 124.714C95.3215 125.173 96.0748 125.689 96.8353 126.192C97.5599 126.671 98.2599 127.187 98.9937 127.65C99.357 127.879 99.7583 128.069 100.168 128.196C101.615 128.647 102.902 127.743 103.005 126.229C103.012 126.1 103.005 125.97 103.005 125.839ZM119.603 116.039C119.597 117.046 119.803 118.043 120.207 118.965C120.518 119.672 120.99 120.21 121.694 120.534C122.799 121.042 123.915 121.489 125.145 121.649C127.387 121.941 129.591 122.406 131.684 123.306C132.002 123.442 132.336 123.55 132.672 123.631C132.828 123.669 133.013 123.63 133.176 123.59C133.358 123.545 133.515 123.209 133.432 123.056C133.33 122.866 133.215 122.683 133.087 122.509C131.967 121.022 131.261 119.372 131.097 117.505C131.004 116.452 130.68 115.471 130.209 114.53C129.511 113.138 129.265 111.658 129.317 110.109C129.345 109.292 129.634 108.583 130.077 107.928C130.544 107.237 131.258 106.945 132.053 106.793C132.905 106.631 133.746 106.404 134.602 106.271C135.191 106.18 135.653 105.881 136.115 105.559C136.401 105.36 136.357 104.99 136.032 104.818C135.879 104.738 135.719 104.673 135.554 104.622C134.394 104.245 133.208 103.975 131.996 103.873C130.611 103.758 129.223 103.711 127.838 103.621C127.319 103.587 126.803 103.522 126.286 103.461C125.376 103.353 124.479 103.34 123.571 103.56C122.553 103.807 121.98 104.394 121.863 105.426C121.8 105.988 121.682 106.554 121.715 107.11C121.792 108.41 121.419 109.593 120.966 110.777C120.596 111.748 120.233 112.728 119.964 113.731C119.762 114.48 119.717 115.269 119.603 116.039ZM191.853 126.025C190.319 126.042 188.827 126.309 187.346 126.652C185.152 127.164 182.961 127.692 180.761 128.185C180.003 128.355 179.228 128.481 178.454 128.559C176.981 128.708 175.613 128.37 174.359 127.569C173.848 127.243 173.337 126.907 172.792 126.645C172.327 126.423 171.82 126.28 171.32 126.146C171.125 126.093 170.89 126.134 170.685 126.178C170.376 126.243 170.205 126.646 170.371 126.902C170.488 127.082 170.62 127.261 170.778 127.404C171.487 128.042 172.191 128.69 172.929 129.293C173.91 130.094 175.09 130.369 176.319 130.466C177.4 130.553 178.482 130.627 179.564 130.693C181.079 130.783 182.585 130.962 184.09 131.174C185.162 131.327 186.245 131.412 187.326 131.489C189.057 131.612 190.791 131.688 192.522 131.813C194.208 131.934 195.891 132.114 197.576 132.223C199.827 132.37 202.08 132.479 204.332 132.595C206.021 132.682 207.714 132.715 209.4 132.85C210.7 132.954 211.966 133.248 213.129 133.895C213.696 134.211 214.289 134.48 214.88 134.747C214.971 134.788 215.162 134.748 215.229 134.675C215.332 134.558 215.436 134.371 215.416 134.234C215.384 134.032 215.268 133.829 215.144 133.658C214.66 132.99 214.183 132.315 213.661 131.678C212.625 130.417 211.39 129.464 209.771 129.008C206.681 128.138 203.575 127.336 200.394 126.896C198.462 126.628 196.514 126.476 194.574 126.279C193.666 126.188 192.759 126.109 191.853 126.025ZM51.9114 120.03C51.9658 120.678 52.1372 121.257 52.4657 121.78C53.0876 122.769 53.7229 123.751 54.3551 124.734C54.4259 124.844 54.507 124.948 54.5922 125.044C55.0345 125.542 55.5066 125.671 56.1029 125.37C56.5651 125.133 57.0033 124.851 57.4115 124.53C58.095 123.996 58.7334 123.405 59.4107 122.865C60.4268 122.055 61.4623 121.266 62.4897 120.468C63.0357 120.043 63.5848 119.619 64.1297 119.189C65.3151 118.256 65.9453 117.021 66.1793 115.541C66.3681 114.344 66.6124 113.155 66.8618 111.97C67.0876 110.896 67.0907 109.818 66.987 108.735C66.9459 108.308 66.7222 108.084 66.2747 107.943C65.7616 107.78 65.4126 107.854 64.9662 108.145C62.9002 109.495 60.7993 110.791 58.7159 112.114C58.346 112.34 57.9927 112.593 57.6588 112.87C56.3736 113.97 55.0999 115.083 53.8378 116.209C52.8392 117.102 52.1649 118.192 51.9833 119.546C51.9597 119.718 51.932 119.888 51.9114 120.03ZM105.395 124.747C105.548 125.774 105.697 126.762 106.105 127.682C106.245 127.995 106.41 128.314 106.633 128.57C107.144 129.157 107.662 129.747 108.243 130.264C109.245 131.157 110.299 131.993 111.326 132.858C113.218 134.445 115.107 136.04 117.001 137.626C117.5 138.043 118.002 138.46 118.536 138.829C118.886 139.07 119.288 139.246 119.684 139.412C120.063 139.569 120.336 139.471 120.582 139.142C120.711 138.968 120.831 138.785 120.923 138.59C121.202 137.998 121.649 137.64 122.29 137.499C122.583 137.435 122.874 137.329 123.146 137.2C123.469 137.045 123.619 136.674 123.531 136.318C123.341 135.553 123.052 134.819 122.508 134.24C121.949 133.637 121.352 133.071 120.719 132.547C120.115 132.055 119.45 131.638 118.795 131.213C118.093 130.757 117.529 130.178 117.046 129.495C116.152 128.216 115.234 126.954 114.293 125.709C113.078 124.118 111.704 122.677 110.077 121.491C109.764 121.263 109.493 120.976 109.199 120.719C108.979 120.525 108.735 120.502 108.487 120.665C107.943 121.021 107.382 121.354 106.865 121.745C105.868 122.504 105.392 123.535 105.395 124.747ZM195.501 155.875C195.948 155.799 196.461 155.727 196.968 155.622C199.174 155.174 201.374 154.699 203.614 154.426C205.29 154.221 206.948 153.88 208.618 153.617C209.601 153.463 210.587 153.301 211.578 153.22C214.414 152.988 217.115 152.229 219.748 151.199C220.635 150.852 221.498 150.446 222.38 150.09C223.193 149.764 223.32 149.003 223.473 148.309C223.583 147.812 223.238 147.411 222.842 147.104C222.777 147.047 222.696 147.012 222.61 147.004C222.524 146.997 222.438 147.018 222.364 147.063C222.136 147.189 221.911 147.32 221.678 147.434C219.645 148.437 217.496 148.809 215.241 148.632C214.464 148.565 213.685 148.523 212.906 148.506C211.56 148.484 210.216 148.513 208.87 148.493C208.267 148.483 207.665 148.403 207.062 148.358C206.89 148.346 206.718 148.329 206.547 148.335C205.421 148.378 204.295 148.458 203.168 148.465C200.589 148.481 198.333 149.351 196.342 150.958C195.399 151.721 194.457 152.489 193.529 153.27C193.263 153.493 193.024 153.746 192.816 154.023C192.54 154.394 192.626 154.882 192.971 155.196C193.339 155.528 193.782 155.701 194.259 155.774C194.645 155.832 195.038 155.839 195.501 155.875ZM99.0471 112.536C99.0019 113.141 99.1641 113.677 99.4822 114.159C100.37 115.503 101.341 116.785 102.514 117.891C102.947 118.299 103.499 118.591 104.025 118.89C104.336 119.068 104.781 118.803 104.801 118.449C104.816 118.104 104.798 117.758 104.748 117.417C104.668 116.858 104.549 116.307 104.452 115.753C104.18 114.207 104.322 112.706 105.124 111.342C106.182 109.541 106.998 107.625 107.884 105.743C108.622 104.177 109.227 102.546 109.888 100.943C109.937 100.824 109.975 100.697 110.008 100.574C110.217 99.7569 110.13 99.059 109.395 98.4842C108.473 97.7638 107.615 96.9612 106.716 96.2109C106.48 96.0202 106.22 95.8614 105.943 95.7388C105.186 95.395 104.613 95.551 104.128 96.2284C103.798 96.6923 103.604 97.2178 103.469 97.774C103.152 99.0787 102.82 100.38 102.473 101.677C102.361 102.095 102.193 102.498 102.048 102.906C101.557 104.295 101.06 105.683 100.578 107.075C100.184 108.222 99.7975 109.371 99.4196 110.524C99.2 111.181 98.9886 111.845 99.0471 112.536ZM152.857 151.134C153.171 151.055 153.519 151.009 153.833 150.881C154.45 150.63 154.629 149.9 154.212 149.371C154.049 149.168 153.853 148.994 153.633 148.857C153.156 148.557 152.667 148.276 152.168 148.014C148.402 146.032 144.474 144.427 140.459 143.025C139.355 142.64 138.258 142.231 137.162 141.822C135.331 141.14 133.434 140.684 131.544 140.21C130.839 140.033 130.106 139.965 129.385 139.853C128.18 139.665 127.001 139.395 125.95 138.741C125.114 138.223 124.233 137.91 123.238 138.041C122.942 138.08 122.639 138.143 122.361 138.253C121.573 138.561 121.379 138.905 121.435 139.753C121.454 140.026 121.535 140.266 121.74 140.446C122.131 140.789 122.512 141.147 122.926 141.458C125.294 143.236 127.918 144.404 130.882 144.74C131.054 144.76 131.227 144.767 131.402 144.773C135.8 144.944 139.946 146.131 143.902 147.991C146.42 149.174 148.968 150.244 151.676 150.913C152.05 151.003 152.436 151.055 152.857 151.134ZM110.337 120.287C110.633 120.727 110.909 121.219 111.27 121.64C111.607 122.03 112.01 122.377 112.427 122.685C113.734 123.647 114.785 124.854 115.804 126.097C116.436 126.869 117.066 127.643 117.724 128.391C118.658 129.452 119.807 130.219 121.112 130.747C121.955 131.088 122.8 131.428 123.663 131.711C125.809 132.417 127.932 133.164 129.78 134.519C130.051 134.717 130.328 134.632 130.38 134.331C130.515 133.568 130.903 132.975 131.468 132.459C131.685 132.263 131.831 131.979 131.977 131.717C132.179 131.357 132.173 130.99 132.018 130.595C131.709 129.802 131.257 129.168 130.503 128.717C128.234 127.36 125.913 126.089 123.547 124.909C121.88 124.077 120.198 123.271 118.529 122.446C116.54 121.463 114.486 120.654 112.315 120.186C111.732 120.059 111.118 120.085 110.517 120.054C110.475 120.052 110.428 120.164 110.337 120.287ZM49.6166 73.2348C49.7603 75.5153 50.3094 77.4591 51.308 79.2778C52.2111 80.9219 53.3093 82.4306 54.4783 83.8869C55.5908 85.2756 56.8018 86.5872 57.8938 87.9922C61.1473 92.1724 64.3771 96.3721 67.5884 100.585C68.7759 102.143 70.0126 103.649 71.4268 105.005C71.7388 105.306 72.0242 105.637 72.3362 105.938C72.4573 106.053 72.6102 106.143 72.7631 106.216C72.9889 106.325 73.3399 106.074 73.3009 105.828C73.2634 105.616 73.2074 105.408 73.1336 105.206C72.8462 104.388 72.5353 103.577 72.2592 102.756C71.7563 101.265 70.9558 99.9211 70.2168 98.5468C69.9284 98.0132 69.6072 97.4959 69.326 96.9571C69.0277 96.375 68.598 95.8704 68.0708 95.4833C67.4766 95.0451 66.9008 94.5812 66.2829 94.1778C65.3326 93.5569 64.4818 92.8231 63.6648 92.04C61.7589 90.2132 60.7275 87.983 60.5756 85.3587C60.5387 84.747 60.3334 84.2636 59.8849 83.8767C59.459 83.5072 59.03 83.1377 58.5743 82.8062C57.548 82.058 56.6736 81.1641 55.8802 80.1758C54.1693 78.0411 52.4718 75.8961 50.9919 73.5889C50.8071 73.2995 50.5629 73.0449 50.3248 72.7945C50.1298 72.5893 49.7859 72.6806 49.6915 72.9526C49.6566 73.0437 49.6315 73.1384 49.6166 73.2348Z" fill="black"/>
<path d="M112.007 113.485C112.348 115.06 112.733 116.57 113.27 118.037C113.354 118.267 113.561 118.47 113.753 118.64C115.605 120.295 117.781 121.548 120.142 122.318C120.305 122.375 120.481 122.389 120.651 122.358C120.804 122.325 120.999 122.223 121.055 122.099C121.105 121.988 121.035 121.758 120.937 121.661C120.724 121.449 120.45 121.298 120.219 121.102C119.504 120.493 119.028 119.739 118.857 118.801C118.786 118.418 118.688 118.041 118.563 117.672C117.919 115.727 117.937 113.815 118.936 111.997C119.753 110.508 120.015 108.895 120.183 107.247C120.227 106.816 120.289 106.386 120.37 105.961C120.478 105.36 120.763 104.804 121.189 104.365C121.707 103.827 121.669 103.586 121.111 103.088C120.981 102.972 120.851 102.853 120.705 102.762C119.711 102.141 118.723 101.51 117.712 100.919C117.188 100.614 116.791 100.698 116.491 101.22C116.126 101.857 115.807 102.528 115.557 103.218C115.276 103.993 115.05 104.788 114.883 105.596C114.512 107.401 113.781 109.063 112.97 110.701C112.739 111.167 112.507 111.638 112.338 112.128C112.181 112.574 112.111 113.049 112.007 113.485ZM23.2588 94.2271C25.2744 94.1892 27.1331 93.7037 28.7506 92.4639C29.4758 91.9114 30.1913 91.3461 30.8966 90.7684C33.0416 89.0001 35.163 87.203 37.3193 85.4501C39.0117 84.0748 40.8508 82.9243 42.8799 82.1012C43.3992 81.8898 43.9462 81.7451 44.4727 81.5501C44.7775 81.4372 44.8083 81.0123 44.5456 80.806C44.2603 80.5823 43.9431 80.4427 43.5798 80.5309C42.8224 80.7157 42.0568 80.8789 41.3168 81.1201C37.6847 82.3106 34.1675 83.7946 30.6647 85.3167C27.9593 86.4928 25.2262 87.6043 22.5137 88.7651C21.8373 89.0555 21.163 89.3737 20.5462 89.7678C19.4532 90.4688 19.2264 91.0835 19.5692 92.311C19.8319 93.2542 20.3799 93.9346 21.4514 94.027C22.0549 94.0814 22.6563 94.1604 23.2588 94.2271ZM135.693 138.594C136.776 138.622 137.852 138.61 138.916 138.318C140.196 137.965 141.163 137.193 141.939 136.177C142.882 134.942 142.808 132.965 141.812 131.671C140.442 129.893 138.757 128.634 136.45 128.313C135.463 128.176 134.497 127.93 133.492 128.089C133.364 128.11 133.23 128.111 133.108 128.149C132.505 128.346 132.246 128.726 132.559 129.334C132.638 129.489 132.708 129.647 132.789 129.802C133.221 130.627 133.205 131.439 132.835 132.299C132.153 133.887 132.174 133.897 130.827 135.439C130.349 135.985 130.373 136.952 130.915 137.43C131.718 138.139 132.655 138.564 133.742 138.592C134.391 138.606 135.042 138.594 135.693 138.594Z" fill="black"/>
<path d="M111.383 117.834C111.255 117.146 111.095 116.426 110.991 115.699C110.876 114.929 110.798 114.154 110.759 113.376C110.714 112.26 111.068 111.246 111.678 110.313C112.152 109.588 112.651 108.868 113.033 108.097C113.627 106.894 114.211 105.676 114.649 104.411C115.035 103.304 115.007 102.104 114.995 100.932C114.993 100.701 114.847 100.47 114.621 100.462C114.06 100.441 113.664 100.093 113.213 99.8461C112.986 99.7209 112.758 99.5875 112.513 99.5064C111.753 99.2499 111.278 99.4295 110.865 100.109C110.004 101.528 109.473 103.086 108.962 104.653C108.64 105.641 108.261 106.61 107.936 107.596C107.542 108.788 107.182 109.991 106.801 111.187C106.565 111.929 106.308 112.667 106.075 113.41C105.746 114.46 106.003 115.385 106.745 116.168C107.485 116.959 108.251 117.727 109.04 118.469C109.382 118.785 109.814 119.027 110.238 119.231C110.737 119.472 111.188 119.209 111.304 118.648C111.357 118.397 111.356 118.134 111.383 117.834ZM45.3276 137.983C45.2671 137.679 45.2086 137.291 45.1111 136.915C44.6749 135.226 44.0694 133.612 43.1713 132.105C41.1735 128.747 39.3724 125.276 37.777 121.71C37.4045 120.88 36.9437 120.09 36.5229 119.281C36.0036 118.285 35.0224 117.989 34.0556 117.777C33.2807 117.607 32.5202 118.533 32.6537 119.419C32.7245 119.883 32.8836 120.349 33.0847 120.776C33.4347 121.521 33.8052 122.262 34.2434 122.958C35.7254 125.317 36.9395 127.812 38.0521 130.361C38.8352 132.156 39.7496 133.871 40.9227 135.453C41.8669 136.727 43.081 137.707 44.2326 138.759C44.4214 138.931 44.6616 139.066 44.9458 138.959C45.186 138.869 45.3358 138.566 45.3276 138.195V137.983ZM9.64879 113.674C9.66008 114.351 10.1137 114.682 10.632 114.504C11.218 114.304 11.7014 113.936 12.1509 113.522C13.402 112.367 14.5125 111.093 15.4423 109.667C17.1624 107.027 18.3499 104.146 19.2572 101.143C19.3824 100.73 19.4214 100.291 19.5312 99.8708C19.7057 99.2037 19.8268 98.5037 20.1141 97.8849C20.5134 97.0269 20.4272 96.2992 19.8452 95.589C19.7354 95.4556 19.6533 95.2914 19.525 95.1805C19.2684 94.9568 19.0016 94.6078 18.7173 94.5863C18.2934 94.5555 17.9784 94.966 17.6797 95.2585C17.5011 95.433 17.4047 95.6957 17.2856 95.9277C15.6004 99.2129 14.0712 102.564 12.9207 106.08C12.6662 106.859 12.2772 107.595 11.9539 108.351C11.7866 108.746 11.6357 109.15 11.4582 109.541C11.3561 109.777 11.2331 110.004 11.0908 110.218C10.4719 111.124 10.1004 112.142 9.73603 113.165C9.66624 113.363 9.66418 113.586 9.64879 113.674ZM50.2611 123.661C50.3771 126.296 50.7794 128.729 51.7062 131.046C52.0592 131.928 52.5026 132.783 52.9932 133.596C53.5788 134.559 54.0618 135.582 54.4341 136.647C55.442 139.557 56.2179 142.536 57.0543 145.498C57.1354 145.784 57.2339 146.072 57.3786 146.331C57.5336 146.607 57.9872 146.601 58.1453 146.324C58.2684 146.105 58.3659 145.855 58.4039 145.606C58.5558 144.611 58.5117 143.605 58.3567 142.622C57.8877 139.668 57.4084 136.717 56.8573 133.778C56.497 131.857 55.9295 129.989 54.8518 128.319C54.4797 127.731 54.2226 127.077 54.0944 126.393C53.8183 125.006 53.1174 123.802 52.4421 122.593C52.2573 122.262 51.9628 121.979 51.6733 121.722C51.1397 121.247 50.3514 121.589 50.3289 122.251C50.3124 122.77 50.2806 123.29 50.2611 123.661ZM31.9003 117.243C32.198 117.195 32.5007 117.166 32.7932 117.094C33.4203 116.937 34.0443 116.761 34.6663 116.585C34.8325 116.538 34.9957 116.477 35.1538 116.406C35.5899 116.206 35.7901 115.804 35.6546 115.336C35.5747 115.044 35.456 114.763 35.3015 114.502C33.9571 112.32 32.9431 109.972 31.8162 107.679C30.6051 105.216 28.7362 103.299 26.5697 101.652C26.0411 101.25 25.4797 101.139 24.8742 101.475C24.6227 101.614 24.4893 101.842 24.5355 102.12C24.5848 102.416 24.6812 102.708 24.7798 102.993C25.2898 104.472 26.0103 105.856 26.7482 107.23C27.0767 107.841 27.4184 108.445 27.7397 109.058C28.5309 110.569 29.0667 112.157 29.2155 113.869C29.2566 114.34 29.3756 114.809 29.5008 115.267C29.5798 115.555 29.7112 115.837 29.8631 116.097C30.3167 116.863 30.952 117.325 31.9003 117.243ZM162.135 81.4823C162.155 81.1559 162.18 80.9404 162.181 80.7238C162.182 80.4714 162.014 80.3318 161.795 80.264C161.553 80.1891 161.237 80.3646 161.198 80.6294C160.987 82.0621 160.34 83.3533 159.903 84.7121C159.452 86.1161 159.065 87.5396 159.007 89.0288C158.973 89.9114 159.079 90.7622 159.561 91.5309C159.653 91.6777 159.733 91.8337 159.841 91.9681C161.082 93.5107 162.469 93.5518 163.886 92.3212C164.798 91.5289 165.116 90.4636 164.94 89.2587C164.824 88.4847 164.588 87.7338 164.239 87.0336C163.777 86.1017 163.299 85.176 162.825 84.2482C162.365 83.345 162.091 82.3978 162.135 81.4823ZM159.126 119.451C159.015 119.466 158.795 119.476 158.587 119.53C158.247 119.612 157.946 119.809 157.736 120.088C157.525 120.367 157.418 120.711 157.433 121.06C157.443 121.361 157.478 121.674 157.577 121.955C158.162 123.62 159.022 125.119 160.406 126.25C161.144 126.853 161.93 127.398 162.718 127.938C163.367 128.385 164.108 128.644 164.874 128.821C165.039 128.86 165.218 128.866 165.388 128.854C165.748 128.825 165.986 128.349 165.765 128.061C165.556 127.79 165.297 127.555 165.044 127.322C164.567 126.88 164.065 126.464 163.598 126.012C163.086 125.515 162.762 124.925 162.693 124.188C162.629 123.5 162.501 122.816 162.383 122.133C162.089 120.419 160.937 119.445 159.126 119.451ZM2.77042 119.535C2.94284 119.493 3.32258 119.411 3.69616 119.311C5.718 118.78 7.2195 117.535 8.40592 115.863C8.52908 115.688 8.62453 115.489 8.70868 115.29C8.88316 114.885 8.58142 114.645 8.35666 114.395C8.18629 114.206 7.92355 114.21 7.64439 114.385C7.42579 114.522 7.22053 114.684 7.00397 114.826C5.81037 115.608 4.61368 116.386 3.41905 117.168C3.05676 117.404 2.68934 117.634 2.34347 117.893C2.13936 118.052 1.95503 118.236 1.79439 118.439C1.62916 118.644 1.51524 118.881 1.66097 119.154C1.79645 119.407 2.0171 119.52 2.29524 119.533C2.38247 119.538 2.46971 119.535 2.77042 119.535ZM91.5293 33.4825C91.3466 33.4681 91.2317 33.5246 91.2676 33.737L91.2471 33.7175C91.4246 33.7196 91.5139 33.6354 91.5026 33.4548L91.5293 33.4825ZM91.5026 33.4548C91.672 33.4486 91.7561 33.3614 91.753 33.191L91.7859 33.2239C91.6217 33.2321 91.5242 33.306 91.5313 33.4815L91.5026 33.4548Z" fill="black"/>
<path d="M91.7541 33.191L92.0076 32.9344L92.0332 32.957L91.7848 33.2238L91.7541 33.191ZM92.0086 32.9344L92.0815 32.8975L92.0332 32.956L92.0086 32.9344ZM94.8977 18.8739L94.7878 18.7507C94.795 18.7805 94.793 18.8246 94.8104 18.8349C94.8412 18.8513 94.8823 18.8472 94.9192 18.8513L94.8977 18.8739Z" fill="black"/>
</svg>
