<svg width="58" height="88" viewBox="0 0 58 88" fill="none" xmlns="http://www.w3.org/2000/svg">
<g clip-path="url(#clip0_1_269)">
<path d="M44.2457 54.3773C44.1647 54.1949 43.9594 54.2378 43.9161 54.433C43.4954 56.334 44.0248 64.3505 40.5245 63.3298C38.0922 62.6201 38.0922 56.0895 42.8998 52.4115C49.2392 47.5622 44.9878 35.7755 43.4199 31.6787C43.2846 31.3275 42.816 31.4562 42.8399 31.8366C43.1612 36.7944 43.9253 40.2289 42.1025 42.9008C40.0679 45.881 37.3566 40.1733 39.9556 38.1454C42.5545 36.1157 42.3308 32.0245 40.4638 29.3316C38.895 27.0684 38.512 23.1432 38.4319 20.7413C38.4117 20.1292 37.6438 20.0161 37.4837 20.6017C36.7223 23.3831 37.1191 26.3496 36.4553 29.1565C36.1948 30.2603 35.7391 31.3449 34.9933 32.2169C34.4934 32.8008 33.8352 33.3937 33.083 33.6254C32.0639 33.941 31.425 33.235 31.2777 32.2753C31.1294 31.3093 31.3329 30.2867 31.6257 29.3663C31.9663 28.299 32.2977 27.2408 32.4984 26.1361C32.8906 23.976 32.8934 21.5149 31.4443 19.7123C30.9214 19.0638 30.2456 18.5511 29.5018 18.1707C23.6981 15.206 25.9545 14.7517 25.7787 9.01027C25.7548 8.20478 24.6445 7.98859 24.3057 8.72109C20.6443 16.6692 21.3864 19.3028 23.0941 23.0556C25.4012 28.1275 27.7093 34.9755 23.5489 34.6726C19.8784 34.4044 21.4223 24.9074 20.3212 21.3634C20.1398 20.7769 19.2689 20.89 19.245 21.503C19.1547 23.904 18.7202 27.8301 16.9397 30.0924C14.8222 32.7862 14.5681 36.8774 17.5169 38.9062C20.4648 40.935 17.388 46.6418 15.0809 43.6616C13.0123 40.9897 13.8795 37.5543 14.2432 32.5964C14.2717 32.2151 13.7396 32.0865 13.5867 32.4377C11.8081 36.5345 7.96534 47.3861 14.1833 53.1723C15.7254 54.6063 17.5409 55.7785 18.7349 57.5463C19.5322 58.7267 19.9631 60.2821 19.5221 61.6723C19.0885 63.0406 17.3494 64.678 15.9196 63.4994C14.7182 62.5097 14.5065 60.4034 14.2883 58.9867C14.0931 57.7151 13.9937 56.4325 13.8031 55.16C13.7663 54.9164 13.5969 53.6138 13.259 54.3773C12.4194 56.2747 9.8416 63.7193 13.5223 69.6213C14.0415 70.4542 14.6096 71.2587 15.1518 72.0761C16.7141 74.4341 18.7524 76.504 21.3219 77.7728C25.0376 79.6064 29.4732 79.8718 33.4301 78.6851C38.327 77.2164 42.7423 72.6188 44.7999 68.0632C46.6955 63.8689 46.0704 58.5042 44.2466 54.3773H44.2457Z" fill="black"/>
<path d="M38.8775 0.669922H18.4127C8.49788 0.669922 0.460327 8.63395 0.460327 18.4581V69.2209C0.460327 79.045 8.49788 87.009 18.4127 87.009H38.8775C48.7923 87.009 56.8299 79.045 56.8299 69.2209V18.4581C56.8299 8.63395 48.7923 0.669922 38.8775 0.669922Z" stroke="black" stroke-width="1.01587"/>
</g>
<defs>
<clipPath id="clip0_1_269">
<rect width="58" height="88" fill="white"/>
</clipPath>
</defs>
</svg>
