<svg width="698" height="425" viewBox="0 0 698 425" fill="none" xmlns="http://www.w3.org/2000/svg">
<g clip-path="url(#clip0_1_166)">
<path d="M168.396 323.161C168.396 383.046 149.442 403.717 94.7026 403.717C39.9645 403.717 21 383.046 21 323.161V26.3712H47.3148V293.477C47.3148 318.386 61.0051 328.453 94.6923 328.453C128.38 328.453 142.07 318.386 142.07 293.477V26.3712H168.396V323.161ZM264.885 397.361H191.193V322.107H264.885C303.836 322.107 312.263 312.04 312.263 287.131V26.3712H338.589V316.794C338.589 376.162 325.426 397.361 264.885 397.361ZM434.02 397.361H360.327V322.107H434.02C472.97 322.107 481.397 312.04 481.397 287.131V26.3712H507.723V316.794C507.712 376.162 494.549 397.361 434.02 397.361ZM603.749 403.718C543.208 403.718 530.056 382.52 530.056 323.162V100.571C530.056 41.2141 543.219 20.0152 603.749 20.0152C664.289 20.0152 677.441 41.2133 677.441 100.571V323.162C677.441 382.52 664.289 403.718 603.749 403.718ZM603.749 95.2701C564.798 95.2701 556.371 105.336 556.371 130.245V293.477C556.371 318.386 564.798 328.453 603.749 328.453C642.699 328.453 651.126 318.386 651.126 293.477V130.256C651.126 105.347 642.699 95.2693 603.749 95.2693V95.2701Z" fill="black"/>
</g>
<g clip-path="url(#clip1_1_166)">
<path d="M624.061 162.447H525.724C525.424 162.446 525.129 162.375 524.861 162.24C524.594 162.104 524.362 161.908 524.185 161.666L499.879 128.526C487.298 111.386 476.235 99.689 466.981 93.7697C462.213 90.7117 455.83 88.403 448.029 86.8971C440.4 85.4318 431.135 84.6848 420.515 84.6848H404.782C403.448 84.6848 402.516 86.0179 402.993 87.2762L403.394 88.3385L412.041 111.321L412.236 111.831C412.374 112.194 412.618 112.507 412.938 112.728C413.257 112.949 413.637 113.067 414.025 113.066H432.944C448.017 113.066 459.601 114.66 467.349 117.804C474.977 120.894 483.321 128.32 492.174 139.865L507.052 159.357C508.017 160.615 507.118 162.435 505.535 162.435H73.5104C73.0019 162.436 72.5144 162.639 72.1548 162.999C71.7952 163.358 71.5929 163.846 71.592 164.355V185.148C71.5931 185.656 71.7955 186.144 72.1551 186.503C72.5147 186.863 73.002 187.065 73.5104 187.066H178.295C178.783 187.066 179.249 187.251 179.596 187.576C186.921 194.46 190.627 201.474 190.627 208.434C190.627 216.824 187.018 222.852 179.607 226.885C171.761 231.156 157.501 233.411 137.216 233.595L135.916 233.607C134.474 233.617 133.563 235.156 134.246 236.425L134.864 237.574L145.809 257.987L146.036 258.421C146.204 258.733 146.454 258.992 146.76 259.17C147.066 259.348 147.416 259.438 147.77 259.429L148.258 259.418C161.001 259.082 171.891 257.293 180.669 254.095C180.983 253.982 181.322 253.953 181.651 254.012C181.98 254.071 182.288 254.215 182.543 254.431C187.235 258.345 190.854 262.638 193.314 267.224C196.11 272.406 197.519 278.162 197.519 284.299C197.519 292.147 194.604 298.24 188.622 302.923C182.435 307.769 175.489 310.132 167.372 310.132C159.126 310.132 150.804 306.739 142.655 300.061C134.236 293.166 125.123 281.968 115.598 266.78L95.0527 234.181L94.6515 233.541C94.3888 233.123 93.9746 232.824 93.4958 232.704C93.017 232.585 92.5106 232.656 92.0828 232.902L91.4333 233.281L85.7545 236.533L85.0397 236.913C84.8163 237.041 84.6211 237.213 84.4656 237.419C84.3102 237.624 84.1977 237.859 84.135 238.109C84.0723 238.359 84.0606 238.619 84.1006 238.873C84.1406 239.128 84.2315 239.372 84.3679 239.59L84.8009 240.284L105.748 273.826C121.774 299.432 134.388 315.336 144.313 322.458C154.283 329.613 164.913 333.245 175.901 333.245C188.438 333.245 199.003 329.44 207.304 321.927C215.702 314.349 219.96 304.603 219.96 292.949C219.96 283.789 217.457 275.051 212.538 266.996C208.572 260.513 202.947 254.334 195.785 248.588C195.561 248.41 195.381 248.184 195.256 247.927C195.131 247.67 195.065 247.389 195.063 247.103C195.061 246.817 195.123 246.534 195.244 246.276C195.365 246.017 195.543 245.788 195.763 245.607C199.329 242.669 202.2 239.266 204.345 235.449C207.445 229.92 209.016 223.427 209.016 216.142C209.016 206.146 205.939 197.462 199.827 190.221C198.775 188.974 199.653 187.066 201.279 187.066H455.234C455.486 187.066 455.736 187.115 455.969 187.211C456.202 187.308 456.413 187.449 456.592 187.627C456.77 187.805 456.911 188.017 457.007 188.25C457.104 188.483 457.153 188.733 457.152 188.985V211.935C457.151 212.444 456.949 212.931 456.589 213.291C456.23 213.651 455.742 213.853 455.234 213.854H377.94C376.228 213.854 375.383 215.935 376.597 217.128L377.962 218.483C394.715 234.972 404.673 246.062 407.545 251.439C410.34 256.643 411.759 261.11 411.759 264.709C411.759 269.392 410.351 273.024 407.458 275.799C404.521 278.617 400.805 279.983 396.08 279.983C389.524 279.983 381.701 275.778 372.858 267.462C365.858 260.893 358.425 249.813 350.763 234.538L350.742 234.495L341.986 215.426L341.78 214.971C341.629 214.638 341.385 214.356 341.078 214.157C340.77 213.959 340.412 213.854 340.047 213.854H267.553C265.84 213.854 264.995 215.935 266.209 217.128L267.585 218.483C284.338 234.972 294.296 246.062 297.168 251.439C299.964 256.643 301.383 261.11 301.383 264.709C301.383 269.392 299.974 273.024 297.081 275.799C294.144 278.617 290.427 279.983 285.703 279.983C279.147 279.983 271.323 275.778 262.481 267.462C253.379 258.92 243.605 242.832 233.441 219.665L233.082 218.841C232.972 218.592 232.811 218.369 232.608 218.188C232.405 218.007 232.167 217.87 231.907 217.788C231.648 217.706 231.374 217.68 231.104 217.712C230.834 217.744 230.574 217.833 230.341 217.973L229.572 218.429L224.165 221.681L223.612 222.017C223.232 222.244 222.942 222.597 222.794 223.014C222.645 223.432 222.647 223.888 222.8 224.304L223.016 224.912C231.837 249.629 242.153 269.306 253.682 283.388C259.545 290.564 265.602 296.039 271.67 299.671C277.89 303.389 284.294 305.275 290.709 305.275C301.047 305.275 309.716 301.85 316.478 295.085C323.228 288.331 326.663 279.745 326.663 269.576C326.663 264.015 325.027 258.139 321.809 252.112C319.967 248.654 317.572 245.087 314.647 241.455C313.639 240.208 314.527 238.343 316.131 238.343H337.229C337.998 238.343 338.703 238.81 338.995 239.525C346.45 257.456 354.87 272.2 364.037 283.399C369.9 290.576 375.957 296.05 382.025 299.682C388.245 303.4 394.66 305.287 401.075 305.287C411.413 305.287 420.082 301.861 426.844 295.096C433.605 288.342 437.029 279.756 437.029 269.587C437.029 264.026 435.394 258.15 432.186 252.123C430.344 248.664 427.938 245.097 425.023 241.455C424.016 240.208 424.904 238.343 426.508 238.343H455.234C455.486 238.343 455.736 238.392 455.969 238.489C456.202 238.585 456.413 238.726 456.592 238.905C456.77 239.083 456.911 239.295 457.007 239.528C457.104 239.761 457.153 240.01 457.152 240.263V321.559C457.152 322.036 457.336 322.501 457.662 322.859L457.867 323.087L473.547 340.118L473.786 340.378C474.154 340.768 474.664 340.996 475.195 340.996H482.01C482.519 340.995 483.006 340.793 483.365 340.433C483.725 340.074 483.927 339.586 483.929 339.078V189.007C483.929 188.498 484.132 188.011 484.491 187.651C484.851 187.292 485.338 187.089 485.846 187.088H511.095C511.603 187.089 512.09 187.292 512.45 187.651C512.809 188.011 513.011 188.498 513.012 189.007V319.78C513.012 320.236 513.175 320.68 513.479 321.027L513.674 321.255L529.895 340.042L530.133 340.314C530.491 340.736 531.022 340.975 531.575 340.975H537.697C538.206 340.974 538.693 340.771 539.053 340.411C539.412 340.052 539.615 339.564 539.615 339.055V188.985C539.616 188.477 539.819 187.989 540.178 187.629C540.537 187.27 541.025 187.067 541.533 187.066H624.874C625.382 187.065 625.87 186.863 626.229 186.503C626.588 186.144 626.791 185.656 626.792 185.148V164.355C626.791 163.846 626.589 163.358 626.229 162.999C625.87 162.639 625.382 162.436 624.874 162.435L624.061 162.447Z" fill="#FFFCF7" stroke="black" stroke-width="2.6806" stroke-miterlimit="10"/>
</g>
<defs>
<clipPath id="clip0_1_166">
<rect width="657" height="384" fill="white" transform="translate(21 20)"/>
</clipPath>
<clipPath id="clip1_1_166">
<rect width="558" height="259" fill="white" transform="translate(70 83)"/>
</clipPath>
</defs>
</svg>
