<svg width="224" height="23" viewBox="0 0 224 23" fill="none" xmlns="http://www.w3.org/2000/svg">
<path d="M5.47 12.49L11.35 22H17.29L10.72 12.49H5.47ZM0.22 0.999999V22H5.29V0.999999H0.22ZM3.4 5.29H7.51C8.19 5.29 8.77 5.4 9.25 5.62C9.75 5.84 10.13 6.16 10.39 6.58C10.65 6.98 10.78 7.47 10.78 8.05C10.78 8.63 10.65 9.13 10.39 9.55C10.13 9.95 9.75 10.26 9.25 10.48C8.77 10.68 8.19 10.78 7.51 10.78H3.4V14.71H7.87C9.67 14.71 11.17 14.42 12.37 13.84C13.57 13.26 14.48 12.46 15.1 11.44C15.72 10.4 16.03 9.21 16.03 7.87C16.03 6.51 15.72 5.32 15.1 4.3C14.48 3.26 13.57 2.45 12.37 1.87C11.17 1.29 9.67 0.999999 7.87 0.999999H3.4V5.29ZM23.8138 11.5C23.8138 10.26 24.0538 9.17 24.5338 8.23C25.0338 7.27 25.7238 6.52 26.6038 5.98C27.5038 5.44 28.5538 5.17 29.7538 5.17C30.9738 5.17 32.0238 5.44 32.9038 5.98C33.7838 6.52 34.4638 7.27 34.9438 8.23C35.4238 9.17 35.6638 10.26 35.6638 11.5C35.6638 12.74 35.4138 13.84 34.9138 14.8C34.4338 15.74 33.7438 16.48 32.8438 17.02C31.9638 17.56 30.9338 17.83 29.7538 17.83C28.5538 17.83 27.5038 17.56 26.6038 17.02C25.7238 16.48 25.0338 15.74 24.5338 14.8C24.0538 13.84 23.8138 12.74 23.8138 11.5ZM18.4438 11.5C18.4438 13.12 18.7138 14.61 19.2538 15.97C19.8138 17.33 20.5938 18.51 21.5938 19.51C22.6138 20.51 23.8138 21.29 25.1938 21.85C26.5738 22.39 28.0938 22.66 29.7538 22.66C31.3938 22.66 32.9038 22.39 34.2838 21.85C35.6638 21.29 36.8538 20.51 37.8538 19.51C38.8738 18.51 39.6538 17.33 40.1938 15.97C40.7538 14.61 41.0338 13.12 41.0338 11.5C41.0338 9.88 40.7538 8.4 40.1938 7.06C39.6338 5.72 38.8438 4.56 37.8238 3.58C36.8038 2.6 35.6038 1.85 34.2238 1.33C32.8638 0.789999 31.3738 0.519999 29.7538 0.519999C28.1538 0.519999 26.6638 0.789999 25.2838 1.33C23.9038 1.85 22.7038 2.6 21.6838 3.58C20.6638 4.56 19.8638 5.72 19.2838 7.06C18.7238 8.4 18.4438 9.88 18.4438 11.5ZM48.0625 11.56H51.9925C53.4525 11.56 54.7325 11.36 55.8325 10.96C56.9525 10.54 57.8325 9.94 58.4725 9.16C59.1325 8.38 59.4625 7.44 59.4625 6.34C59.4625 5.14 59.1325 4.15 58.4725 3.37C57.8325 2.57 56.9525 1.98 55.8325 1.6C54.7325 1.2 53.4525 0.999999 51.9925 0.999999H44.2825V22H52.5025C54.1625 22 55.6025 21.8 56.8225 21.4C58.0425 20.98 58.9825 20.34 59.6425 19.48C60.3225 18.62 60.6625 17.49 60.6625 16.09C60.6625 15.03 60.4225 14.13 59.9425 13.39C59.4825 12.63 58.8625 12.01 58.0825 11.53C57.3025 11.03 56.4325 10.67 55.4725 10.45C54.5125 10.23 53.5225 10.12 52.5025 10.12H48.0625V12.88H51.9325C52.4325 12.88 52.8825 12.93 53.2825 13.03C53.7025 13.11 54.0725 13.25 54.3925 13.45C54.7125 13.65 54.9625 13.91 55.1425 14.23C55.3225 14.55 55.4125 14.93 55.4125 15.37C55.4125 16.05 55.2525 16.59 54.9325 16.99C54.6325 17.37 54.2225 17.65 53.7025 17.83C53.1825 17.99 52.5925 18.07 51.9325 18.07H49.3525V4.93H51.4525C52.3325 4.93 53.0125 5.11 53.4925 5.47C53.9725 5.83 54.2125 6.37 54.2125 7.09C54.2125 7.57 54.1025 7.98 53.8825 8.32C53.6625 8.64 53.3425 8.89 52.9225 9.07C52.5225 9.25 52.0325 9.34 51.4525 9.34H48.0625V11.56ZM68.3744 11.5C68.3744 10.26 68.6144 9.17 69.0944 8.23C69.5944 7.27 70.2844 6.52 71.1644 5.98C72.0644 5.44 73.1144 5.17 74.3144 5.17C75.5344 5.17 76.5844 5.44 77.4644 5.98C78.3444 6.52 79.0244 7.27 79.5044 8.23C79.9844 9.17 80.2244 10.26 80.2244 11.5C80.2244 12.74 79.9744 13.84 79.4744 14.8C78.9944 15.74 78.3044 16.48 77.4044 17.02C76.5244 17.56 75.4944 17.83 74.3144 17.83C73.1144 17.83 72.0644 17.56 71.1644 17.02C70.2844 16.48 69.5944 15.74 69.0944 14.8C68.6144 13.84 68.3744 12.74 68.3744 11.5ZM63.0044 11.5C63.0044 13.12 63.2744 14.61 63.8144 15.97C64.3744 17.33 65.1544 18.51 66.1544 19.51C67.1744 20.51 68.3744 21.29 69.7544 21.85C71.1344 22.39 72.6544 22.66 74.3144 22.66C75.9544 22.66 77.4644 22.39 78.8444 21.85C80.2244 21.29 81.4144 20.51 82.4144 19.51C83.4344 18.51 84.2144 17.33 84.7544 15.97C85.3144 14.61 85.5944 13.12 85.5944 11.5C85.5944 9.88 85.3144 8.4 84.7544 7.06C84.1944 5.72 83.4044 4.56 82.3844 3.58C81.3644 2.6 80.1644 1.85 78.7844 1.33C77.4244 0.789999 75.9344 0.519999 74.3144 0.519999C72.7144 0.519999 71.2244 0.789999 69.8444 1.33C68.4644 1.85 67.2644 2.6 66.2444 3.58C65.2244 4.56 64.4244 5.72 63.8444 7.06C63.2844 8.4 63.0044 9.88 63.0044 11.5ZM87.7248 19.96C87.7248 20.72 87.9948 21.37 88.5348 21.91C89.0748 22.45 89.7448 22.72 90.5448 22.72C91.3848 22.72 92.0648 22.45 92.5848 21.91C93.1048 21.37 93.3648 20.72 93.3648 19.96C93.3648 19.2 93.1048 18.55 92.5848 18.01C92.0648 17.47 91.3848 17.2 90.5448 17.2C89.7448 17.2 89.0748 17.47 88.5348 18.01C87.9948 18.55 87.7248 19.2 87.7248 19.96ZM99.9128 14.62L96.3728 17.17C96.8528 18.17 97.5228 19.09 98.3828 19.93C99.2428 20.77 100.253 21.44 101.413 21.94C102.593 22.42 103.863 22.66 105.223 22.66C106.203 22.66 107.153 22.51 108.073 22.21C109.013 21.93 109.843 21.51 110.563 20.95C111.303 20.39 111.883 19.7 112.303 18.88C112.743 18.04 112.963 17.09 112.963 16.03C112.963 15.15 112.823 14.37 112.543 13.69C112.263 13.01 111.873 12.41 111.373 11.89C110.893 11.37 110.333 10.93 109.693 10.57C109.053 10.19 108.363 9.86 107.623 9.58C106.643 9.24 105.803 8.92 105.103 8.62C104.423 8.32 103.893 7.99 103.513 7.63C103.153 7.27 102.973 6.85 102.973 6.37C102.973 5.91 103.163 5.53 103.543 5.23C103.923 4.91 104.473 4.75 105.193 4.75C105.733 4.75 106.233 4.86 106.693 5.08C107.173 5.28 107.603 5.57 107.983 5.95C108.383 6.31 108.733 6.74 109.033 7.24L112.903 5.08C112.543 4.36 112.023 3.65 111.343 2.95C110.663 2.25 109.803 1.67 108.763 1.21C107.743 0.749999 106.533 0.519999 105.133 0.519999C103.773 0.519999 102.533 0.759999 101.413 1.24C100.313 1.7 99.4328 2.38 98.7728 3.28C98.1328 4.18 97.8128 5.25 97.8128 6.49C97.8128 7.53 98.0028 8.42 98.3828 9.16C98.7628 9.88 99.2428 10.5 99.8228 11.02C100.403 11.52 101.013 11.93 101.653 12.25C102.313 12.57 102.893 12.82 103.393 13C104.413 13.38 105.233 13.72 105.853 14.02C106.473 14.32 106.923 14.64 107.203 14.98C107.483 15.3 107.623 15.73 107.623 16.27C107.623 16.91 107.383 17.42 106.903 17.8C106.423 18.16 105.813 18.34 105.073 18.34C104.373 18.34 103.703 18.19 103.063 17.89C102.443 17.59 101.863 17.16 101.323 16.6C100.803 16.04 100.333 15.38 99.9128 14.62ZM120.673 11.5C120.673 10.2 120.963 9.09 121.543 8.17C122.123 7.25 122.883 6.55 123.823 6.07C124.783 5.59 125.833 5.35 126.973 5.35C127.973 5.35 128.853 5.48 129.613 5.74C130.373 5.98 131.053 6.32 131.653 6.76C132.253 7.18 132.783 7.63 133.243 8.11V2.65C132.403 1.99 131.483 1.47 130.483 1.09C129.483 0.709999 128.213 0.519999 126.673 0.519999C124.993 0.519999 123.443 0.779999 122.023 1.3C120.603 1.82 119.383 2.57 118.363 3.55C117.343 4.53 116.553 5.69 115.993 7.03C115.433 8.37 115.153 9.86 115.153 11.5C115.153 13.14 115.433 14.63 115.993 15.97C116.553 17.31 117.343 18.47 118.363 19.45C119.383 20.43 120.603 21.18 122.023 21.7C123.443 22.22 124.993 22.48 126.673 22.48C128.213 22.48 129.483 22.29 130.483 21.91C131.483 21.53 132.403 21.01 133.243 20.35V14.89C132.783 15.37 132.253 15.82 131.653 16.24C131.053 16.66 130.373 17 129.613 17.26C128.853 17.52 127.973 17.65 126.973 17.65C125.833 17.65 124.783 17.41 123.823 16.93C122.883 16.45 122.123 15.75 121.543 14.83C120.963 13.89 120.673 12.78 120.673 11.5ZM138.798 13.21H154.698V8.65H138.798V13.21ZM151.488 0.999999V22H156.558V0.999999H151.488ZM137.388 0.999999V22H142.458V0.999999H137.388ZM165.142 11.5C165.142 10.26 165.382 9.17 165.862 8.23C166.362 7.27 167.052 6.52 167.932 5.98C168.832 5.44 169.882 5.17 171.082 5.17C172.302 5.17 173.352 5.44 174.232 5.98C175.112 6.52 175.792 7.27 176.272 8.23C176.752 9.17 176.992 10.26 176.992 11.5C176.992 12.74 176.742 13.84 176.242 14.8C175.762 15.74 175.072 16.48 174.172 17.02C173.292 17.56 172.262 17.83 171.082 17.83C169.882 17.83 168.832 17.56 167.932 17.02C167.052 16.48 166.362 15.74 165.862 14.8C165.382 13.84 165.142 12.74 165.142 11.5ZM159.772 11.5C159.772 13.12 160.042 14.61 160.582 15.97C161.142 17.33 161.922 18.51 162.922 19.51C163.942 20.51 165.142 21.29 166.522 21.85C167.902 22.39 169.422 22.66 171.082 22.66C172.722 22.66 174.232 22.39 175.612 21.85C176.992 21.29 178.182 20.51 179.182 19.51C180.202 18.51 180.982 17.33 181.522 15.97C182.082 14.61 182.362 13.12 182.362 11.5C182.362 9.88 182.082 8.4 181.522 7.06C180.962 5.72 180.172 4.56 179.152 3.58C178.132 2.6 176.932 1.85 175.552 1.33C174.192 0.789999 172.702 0.519999 171.082 0.519999C169.482 0.519999 167.992 0.789999 166.612 1.33C165.232 1.85 164.032 2.6 163.012 3.58C161.992 4.56 161.192 5.72 160.612 7.06C160.052 8.4 159.772 9.88 159.772 11.5ZM189.781 11.5C189.781 10.26 190.021 9.17 190.501 8.23C191.001 7.27 191.691 6.52 192.571 5.98C193.471 5.44 194.521 5.17 195.721 5.17C196.941 5.17 197.991 5.44 198.871 5.98C199.751 6.52 200.431 7.27 200.911 8.23C201.391 9.17 201.631 10.26 201.631 11.5C201.631 12.74 201.381 13.84 200.881 14.8C200.401 15.74 199.711 16.48 198.811 17.02C197.931 17.56 196.901 17.83 195.721 17.83C194.521 17.83 193.471 17.56 192.571 17.02C191.691 16.48 191.001 15.74 190.501 14.8C190.021 13.84 189.781 12.74 189.781 11.5ZM184.411 11.5C184.411 13.12 184.681 14.61 185.221 15.97C185.781 17.33 186.561 18.51 187.561 19.51C188.581 20.51 189.781 21.29 191.161 21.85C192.541 22.39 194.061 22.66 195.721 22.66C197.361 22.66 198.871 22.39 200.251 21.85C201.631 21.29 202.821 20.51 203.821 19.51C204.841 18.51 205.621 17.33 206.161 15.97C206.721 14.61 207.001 13.12 207.001 11.5C207.001 9.88 206.721 8.4 206.161 7.06C205.601 5.72 204.811 4.56 203.791 3.58C202.771 2.6 201.571 1.85 200.191 1.33C198.831 0.789999 197.341 0.519999 195.721 0.519999C194.121 0.519999 192.631 0.789999 191.251 1.33C189.871 1.85 188.671 2.6 187.651 3.58C186.631 4.56 185.831 5.72 185.251 7.06C184.691 8.4 184.411 9.88 184.411 11.5ZM210.249 0.999999V22H223.749V17.65H215.319V0.999999H210.249Z" fill="white"/>
</svg>
