<svg width="40" height="40" viewBox="0 0 40 40" fill="none" xmlns="http://www.w3.org/2000/svg">
<path fill-rule="evenodd" clip-rule="evenodd" d="M3.33317 20C3.33317 29.2 10.8165 36.6666 19.9998 36.6666L20.4661 36.6602C29.4508 36.413 36.6665 29.044 36.6665 20C36.6665 10.8166 29.1998 3.33331 19.9998 3.33331C10.8165 3.33331 3.33317 10.8166 3.33317 20ZM23.2998 13.3333C23.7832 13.8333 23.7832 14.6166 23.2832 15.1L18.3665 20L23.2832 24.9C23.7832 25.3833 23.7832 26.1833 23.2998 26.6666C22.7998 27.1666 22.0165 27.1666 21.5332 26.6666L15.7165 20.8833C15.4832 20.65 15.3498 20.3333 15.3498 20C15.3498 19.6666 15.4832 19.35 15.7165 19.1166L21.5332 13.3333C21.7665 13.0833 22.0832 12.9666 22.3998 12.9666C22.7332 12.9666 23.0498 13.0833 23.2998 13.3333Z" fill="#141024"/>
</svg>
