<svg width="62" height="62" viewBox="0 0 62 62" fill="none" xmlns="http://www.w3.org/2000/svg">
<circle cx="31" cy="31" r="30" stroke="white" stroke-opacity="0.2"/>
<ellipse cx="31" cy="31" rx="20" ry="20" fill="white"/>
<path d="M30.375 33.25L25.0625 27.9375C24.8802 27.7552 24.7891 27.5339 24.7891 27.2734C24.7891 27.013 24.8802 26.7917 25.0625 26.6094L25.9609 25.75C26.1432 25.5677 26.3646 25.4766 26.625 25.4766C26.8854 25.4766 27.1068 25.5677 27.2891 25.75L31.0391 29.5L34.7891 25.75C34.9714 25.5677 35.1927 25.4766 35.4531 25.4766C35.7135 25.4766 35.9349 25.5677 36.1172 25.75L37.0156 26.6094C37.1979 26.7917 37.2891 27.013 37.2891 27.2734C37.2891 27.5339 37.1979 27.7552 37.0156 27.9375L31.7031 33.25C31.5208 33.4323 31.2995 33.5234 31.0391 33.5234C30.7786 33.5234 30.5573 33.4323 30.375 33.25Z" fill="#333333"/>
</svg>
