<?xml version="1.0" encoding="iso-8859-1"?>
<!-- Generator: Adobe Illustrator 19.0.0, SVG Export Plug-In . SVG Version: 6.00 Build 0)  -->
<svg version="1.1" id="Capa_1" xmlns="http://www.w3.org/2000/svg" xmlns:xlink="http://www.w3.org/1999/xlink" x="0px" y="0px"
	 viewBox="0 0 512.001 512.001" style="enable-background:new 0 0 512.001 512.001;" xml:space="preserve">
<g>
	<g>
		<path d="M494.145,80.27L426.069,9.296C420.4,3.388,412.457,0,404.271,0H134.884c-16.654,0-30.203,13.549-30.203,30.203v94.531
			H48.098c-21.311,0-38.649,17.339-38.649,38.65v74.181c0,21.311,17.338,38.649,38.649,38.649h56.583v205.584
			c0,16.654,13.549,30.203,30.203,30.203h337.465c16.654,0,30.203-13.549,30.203-30.203V101.177
			C502.551,93.348,499.566,85.922,494.145,80.27z M413.43,39.491l50.485,52.634H413.43V39.491z M48.098,246.192
			c-4.757,0-8.627-3.87-8.627-8.627v-74.181c0-4.757,3.87-8.628,8.627-8.628h190.19c4.757,0,8.627,3.871,8.627,8.628v74.181
			c0,4.757-3.87,8.627-8.627,8.627H48.098z M472.53,481.797c-0.001,0.1-0.082,0.181-0.181,0.181H134.884
			c-0.1,0-0.181-0.081-0.181-0.181V276.214h103.585c21.311,0,38.649-17.338,38.649-38.649v-74.181
			c0-21.312-17.338-38.65-38.649-38.65H134.703V30.203c0-0.1,0.081-0.181,0.181-0.181H383.41v76.675
			c0,0.073,0.001,0.146,0.002,0.219c-0.001,0.073-0.002,0.146-0.002,0.219c0,8.29,6.721,15.011,15.011,15.011h74.11V481.797z"/>
	</g>
</g>
<g>
	<g>
		<path d="M75.232,181.391c0-3.187,2.981-6.169,10.281-6.169c8.43,0,10.384,3.907,14.084,3.907c4.524,0,6.375-5.655,6.375-8.431
			c0-8.019-15.011-9.048-20.459-9.048c-12.852,0-26.32,5.86-26.32,21.282c0,24.058,32.591,21.899,32.591,34.339
			c0,4.936-5.243,6.786-9.973,6.786c-9.562,0-12.646-7.609-17.478-7.609c-3.907,0-6.991,5.141-6.991,8.636
			c0,6.786,11.309,13.366,24.778,13.366c14.907,0,25.704-8.02,25.704-22.825C107.824,189.719,75.232,191.671,75.232,181.391z"/>
	</g>
</g>
<g>
	<g>
		<path d="M160.051,162.269c-2.571,0-4.627,0.823-5.244,2.981l-14.29,52.742l-14.394-52.742c-0.616-2.16-2.673-2.981-5.243-2.981
			c-4.421,0-10.28,2.776-10.28,6.58c0,0.308,0.103,0.72,0.205,1.131l19.226,62.715c1.13,3.599,5.757,5.346,10.487,5.346
			s9.356-1.747,10.487-5.346l19.122-62.715c0.104-0.411,0.206-0.823,0.206-1.131C170.332,165.045,164.471,162.269,160.051,162.269z"
			/>
	</g>
</g>
<g>
	<g>
		<path d="M221.12,197.943h-17.274c-3.084,0-4.832,3.187-4.832,6.169c0,3.187,1.747,6.169,4.832,6.169h6.066v3.495
			c0,6.991-3.496,10.281-9.253,10.281s-9.151-3.29-9.151-10.281v-27.246c0-6.991,3.393-10.281,9.253-10.281
			c8.739,0,9.048,5.552,9.151,9.254c0.104,3.701,3.702,4.832,8.02,4.832c5.449,0,8.02-1.439,8.02-7.609
			c0-13.057-11.104-20.46-25.806-20.46c-13.469,0-24.675,6.58-24.675,24.264v27.246c0,17.684,11.001,24.264,25.188,24.264
			c14.188,0,25.291-6.58,25.291-24.264V202.98C225.951,200.308,224.204,197.943,221.12,197.943z"/>
	</g>
</g>
<g>
</g>
<g>
</g>
<g>
</g>
<g>
</g>
<g>
</g>
<g>
</g>
<g>
</g>
<g>
</g>
<g>
</g>
<g>
</g>
<g>
</g>
<g>
</g>
<g>
</g>
<g>
</g>
<g>
</g>
</svg>
