<svg width="90" height="30" viewBox="0 0 90 30" fill="none" xmlns="http://www.w3.org/2000/svg">
<path d="M82.671 0H7.157H6.335C6.105 0.002 5.878 0.006 5.645 0.01C5.142 0.016 4.639 0.06 4.141 0.142C3.645 0.225 3.164 0.382 2.714 0.608C2.266 0.836 1.856 1.133 1.499 1.486C1.141 1.839 0.843 2.246 0.615 2.693C0.387 3.139 0.229 3.617 0.145 4.111C0.062 4.603 0.017 5.101 0.011 5.601C0.004 5.83 0.004 6.059 0 6.287V23.5C0.004 23.731 0.004 23.955 0.011 24.187C0.017 24.687 0.062 25.185 0.146 25.677C0.228 26.171 0.386 26.649 0.615 27.095C0.842 27.541 1.141 27.947 1.499 28.298C1.854 28.653 2.265 28.949 2.714 29.175C3.164 29.402 3.644 29.56 4.141 29.645C4.639 29.726 5.141 29.77 5.646 29.777C5.878 29.782 6.106 29.785 6.336 29.785L7.157 29.786H82.671L83.485 29.785C83.714 29.785 83.948 29.782 84.177 29.777C84.68 29.771 85.182 29.727 85.678 29.645C86.177 29.56 86.659 29.401 87.111 29.175C87.561 28.949 87.97 28.653 88.325 28.298C88.682 27.946 88.981 27.54 89.212 27.095C89.438 26.649 89.595 26.171 89.676 25.677C89.76 25.185 89.806 24.687 89.816 24.187C89.819 23.955 89.819 23.731 89.819 23.5C89.824 23.23 89.824 22.96 89.824 22.686V7.1C89.824 6.828 89.824 6.557 89.819 6.287C89.819 6.059 89.819 5.83 89.816 5.602C89.806 5.102 89.76 4.604 89.676 4.111C89.595 3.618 89.438 3.14 89.212 2.693C88.748 1.8 88.014 1.07 87.11 0.61C86.658 0.385 86.176 0.228 85.677 0.143C85.181 0.061 84.679 0.017 84.177 0.012C83.947 0.008 83.713 0.004 83.484 0.002L82.671 0Z" fill="#A6A6A6"/>
<path d="M6.339 29.1359C6.11 29.1359 5.887 29.1329 5.66 29.1279C5.19 29.1219 4.721 29.0809 4.257 29.0059C3.824 28.9319 3.405 28.7949 3.014 28.5979C2.625 28.4029 2.271 28.1479 1.964 27.8409C1.654 27.5379 1.395 27.1869 1.199 26.8009C0.999999 26.4129 0.862999 25.9969 0.789999 25.5669C0.712999 25.1059 0.670999 24.6389 0.664999 24.1709C0.660999 24.0139 0.654999 23.4909 0.654999 23.4909V6.2879C0.654999 6.2879 0.660999 5.7729 0.664999 5.6219C0.670999 5.1549 0.712999 4.6889 0.789999 4.2279C0.860999 3.7979 0.998999 3.3799 1.198 2.9899C1.393 2.6049 1.651 2.2529 1.96 1.9499C2.268 1.6419 2.623 1.3859 3.012 1.1879C3.403 0.991902 3.822 0.854902 4.253 0.782902C4.72 0.706902 5.19 0.665902 5.662 0.659902L6.34 0.649902H83.482L84.168 0.659902C84.635 0.665902 85.102 0.705902 85.563 0.780902C85.999 0.854902 86.422 0.991902 86.817 1.1889C87.597 1.5869 88.23 2.2179 88.63 2.9909C88.825 3.3779 88.96 3.7919 89.032 4.2189C89.109 4.6839 89.153 5.1529 89.162 5.6239C89.164 5.8349 89.164 6.0619 89.164 6.2869C89.17 6.5669 89.17 6.8319 89.17 7.0999V22.6859C89.17 22.9559 89.17 23.2199 89.164 23.4859C89.164 23.7279 89.164 23.9499 89.161 24.1789C89.153 24.6409 89.11 25.1019 89.033 25.5589C88.963 25.9919 88.826 26.4109 88.628 26.8019C88.43 27.1839 88.173 27.5319 87.865 27.8339C87.559 28.1419 87.204 28.3999 86.815 28.5959C86.421 28.7939 85.998 28.9319 85.563 29.0059C85.099 29.0799 84.63 29.1209 84.16 29.1259C83.94 29.1319 83.71 29.1349 83.486 29.1349L82.672 29.1359L6.34 29.1349L6.339 29.1359Z" fill="black"/>
<path d="M18.593 15.1169C18.61 13.8539 19.277 12.6869 20.363 12.0249C19.675 11.0509 18.564 10.4549 17.366 10.4179C16.106 10.2879 14.884 11.1669 14.241 11.1669C13.587 11.1669 12.598 10.4309 11.533 10.4529C10.132 10.4979 8.85701 11.2689 8.17501 12.4839C6.72401 14.9779 7.80601 18.6429 9.19701 20.6579C9.89301 21.6449 10.706 22.7479 11.77 22.7079C12.811 22.6659 13.2 22.0499 14.457 22.0499C15.702 22.0499 16.067 22.7089 17.152 22.6839C18.27 22.6659 18.973 21.6919 19.645 20.6959C20.145 19.9929 20.529 19.2159 20.785 18.3929C19.458 17.8359 18.595 16.5459 18.593 15.1169ZM16.543 9.09292C17.152 8.36692 17.453 7.43492 17.379 6.49292C16.449 6.58992 15.589 7.03192 14.972 7.72892C14.362 8.41792 14.053 9.31892 14.113 10.2319C15.056 10.2419 15.952 9.82192 16.543 9.09192V9.09292Z" fill="white"/>
<path d="M31.755 20.2099H28.202L27.349 22.7089H25.843L29.209 13.4619H30.773L34.138 22.7089H32.608L31.755 20.2089V20.2099ZM28.57 19.0559H31.386L29.998 14.9999H29.959L28.569 19.0559H28.57ZM41.406 19.3379C41.406 21.4329 40.276 22.7799 38.57 22.7799C37.688 22.8249 36.858 22.3669 36.432 21.5999H36.4V24.9399H35.005V15.9669H36.355V17.0869H36.381C36.826 16.3249 37.657 15.8669 38.544 15.8949C40.269 15.8949 41.406 17.2479 41.406 19.3369V19.3379ZM39.972 19.3379C39.972 17.9729 39.262 17.0759 38.176 17.0759C37.111 17.0759 36.394 17.9919 36.394 19.3379C36.394 20.6969 37.111 21.6069 38.176 21.6069C39.261 21.6069 39.972 20.7159 39.972 19.3379ZM48.886 19.3379C48.886 21.4329 47.756 22.7799 46.05 22.7799C45.168 22.8249 44.338 22.3669 43.912 21.5999H43.88V24.9399H42.485V15.9669H43.835V17.0869H43.86C44.305 16.3249 45.137 15.8669 46.024 15.8949C47.749 15.8949 48.886 17.2479 48.886 19.3369V19.3379ZM47.452 19.3379C47.452 17.9729 46.742 17.0759 45.656 17.0759C44.591 17.0759 43.874 17.9919 43.874 19.3379C43.874 20.6969 44.591 21.6069 45.656 21.6069C46.741 21.6069 47.452 20.7159 47.452 19.3379ZM53.83 20.1319C53.933 21.0489 54.831 21.6519 56.058 21.6519C57.234 21.6519 58.08 21.0489 58.08 20.2219C58.08 19.5049 57.57 19.0749 56.362 18.7799L55.154 18.4919C53.442 18.0819 52.648 17.2869 52.648 15.9989C52.648 14.4029 54.049 13.3069 56.039 13.3069C58.009 13.3069 59.359 14.4029 59.405 15.9989H57.997C57.912 15.0759 57.143 14.5189 56.02 14.5189C54.896 14.5189 54.127 15.0829 54.127 15.9029C54.127 16.5569 54.617 16.9409 55.819 17.2359L56.846 17.4859C58.759 17.9349 59.554 18.6959 59.554 20.0489C59.554 21.7789 58.164 22.8629 55.955 22.8629C53.888 22.8629 52.492 21.8049 52.402 20.1329H53.83V20.1319ZM62.564 14.3709V15.9669H63.857V17.0629H62.563V20.7799C62.563 21.3569 62.822 21.6259 63.39 21.6259C63.543 21.6229 63.697 21.6129 63.849 21.5939V22.6839C63.593 22.7309 63.334 22.7519 63.074 22.7479C61.698 22.7479 61.162 22.2349 61.162 20.9279V17.0619H60.173V15.9669H61.162V14.3709H62.563H62.564ZM64.605 19.3379C64.605 17.2169 65.865 15.8839 67.828 15.8839C69.798 15.8839 71.052 17.2169 71.052 19.3379C71.052 21.4649 69.805 22.7929 67.828 22.7929C65.852 22.7929 64.605 21.4649 64.605 19.3379ZM69.631 19.3379C69.631 17.8829 68.959 17.0239 67.828 17.0239C66.698 17.0239 66.026 17.8899 66.026 19.3379C66.026 20.7989 66.698 21.6519 67.828 21.6519C68.958 21.6519 69.631 20.7989 69.631 19.3379ZM72.203 15.9669H73.533V17.1139H73.565C73.751 16.3759 74.433 15.8669 75.2 15.8959C75.36 15.8959 75.52 15.9129 75.678 15.9479V17.2419C75.475 17.1809 75.263 17.1519 75.051 17.1589C74.641 17.1419 74.244 17.3039 73.964 17.6029C73.684 17.9009 73.551 18.3049 73.597 18.7099V22.7089H72.203V15.9669ZM82.109 20.7289C81.922 21.9529 80.72 22.7929 79.183 22.7929C77.206 22.7929 75.979 21.4789 75.979 19.3699C75.979 17.2559 77.213 15.8839 79.124 15.8839C81.004 15.8839 82.187 17.1649 82.187 19.2099V19.6839H77.387V19.7669C77.342 20.2689 77.517 20.7669 77.867 21.1319C78.217 21.4969 78.707 21.6959 79.215 21.6769C79.892 21.7399 80.53 21.3539 80.785 20.7289H82.109ZM77.394 18.7169H80.791C80.817 18.2649 80.651 17.8239 80.335 17.4999C80.018 17.1749 79.58 16.9959 79.125 17.0049C78.665 17.0029 78.225 17.1819 77.9 17.5029C77.575 17.8249 77.392 18.2609 77.394 18.7169Z" fill="white"/>
<path d="M27.577 8.37993H28.176C28.384 8.40593 28.594 8.34393 28.754 8.20993C28.914 8.07493 29.011 7.87993 29.02 7.67093C29.02 7.26093 28.71 6.99693 28.182 6.99693C27.969 6.96693 27.752 7.02493 27.582 7.15593C27.412 7.28593 27.302 7.47993 27.278 7.69293H26.622C26.644 7.30693 26.827 6.94693 27.127 6.70193C27.427 6.45493 27.817 6.34393 28.204 6.39293C29.085 6.39293 29.706 6.88293 29.706 7.58793C29.711 8.07493 29.372 8.49793 28.893 8.60393V8.65693C29.466 8.68193 29.911 9.16193 29.889 9.73093C29.848 10.1279 29.647 10.4919 29.332 10.7409C29.018 10.9889 28.615 11.1009 28.216 11.0519C27.816 11.1059 27.411 10.9969 27.094 10.7489C26.776 10.5009 26.574 10.1359 26.534 9.73693H27.202C27.242 10.1629 27.635 10.4369 28.216 10.4369C28.796 10.4369 29.176 10.1289 29.176 9.69493C29.176 9.25493 28.819 8.98293 28.195 8.98293H27.577V8.37993ZM30.648 9.99693C30.648 9.39293 31.101 9.04493 31.905 8.99493L32.82 8.94293V8.65293C32.82 8.29893 32.585 8.09893 32.128 8.09893C31.756 8.09893 31.498 8.23493 31.424 8.47193H30.778C30.846 7.89593 31.393 7.52693 32.16 7.52693C33.007 7.52693 33.485 7.94493 33.485 8.65393V10.9439H32.842V10.4739H32.79C32.571 10.8179 32.184 11.0189 31.774 10.9999C31.487 11.0299 31.201 10.9369 30.986 10.7459C30.772 10.5549 30.649 10.2829 30.648 9.99593V9.99693ZM32.82 9.70993V9.42993L31.995 9.48193C31.529 9.51193 31.318 9.66993 31.318 9.96493C31.318 10.2669 31.582 10.4429 31.945 10.4429C32.16 10.4639 32.375 10.3989 32.539 10.2599C32.704 10.1219 32.806 9.92393 32.82 9.70993ZM35.255 8.14793V10.9449H34.588V7.59093H36.814V8.14793H35.255ZM40.857 9.26693C40.857 10.3319 40.314 10.9999 39.46 10.9999C39.033 11.0289 38.627 10.8099 38.42 10.4369H38.367V12.0599H37.7V7.59093H38.342V8.14593H38.392C38.602 7.76093 39.012 7.52593 39.454 7.53593C40.314 7.53593 40.857 8.20093 40.857 9.26593V9.26693ZM40.171 9.26693C40.171 8.55793 39.833 8.12993 39.267 8.12993C38.706 8.12993 38.355 8.56693 38.355 9.26993C38.355 9.96793 38.705 10.4059 39.265 10.4059C39.833 10.4059 40.171 9.97793 40.171 9.26593V9.26693ZM41.745 12.1459V11.5759C41.817 11.5849 41.89 11.5889 41.963 11.5879C42.257 11.6099 42.521 11.4079 42.574 11.1199L42.624 10.9569L41.401 7.59093H42.127L42.974 10.2549H43.027L43.872 7.59093H44.579L43.319 11.0829C43.03 11.8989 42.711 12.1609 42.022 12.1609C41.966 12.1609 41.807 12.1549 41.745 12.1459ZM45.099 9.99293H45.763C45.828 10.2889 46.107 10.4429 46.498 10.4429C46.942 10.4429 47.215 10.2489 47.215 9.94693C47.215 9.62393 46.97 9.46993 46.498 9.46993H45.992V8.95493H46.489C46.893 8.95493 47.098 8.80193 47.098 8.52093C47.098 8.27493 46.899 8.08693 46.489 8.08693C46.116 8.08693 45.844 8.24393 45.8 8.50893H45.157C45.257 7.87593 45.85 7.43893 46.489 7.52693C47.293 7.52693 47.752 7.88693 47.752 8.45393C47.76 8.77893 47.538 9.06393 47.219 9.13993V9.19193C47.6 9.24193 47.884 9.56593 47.88 9.94693C47.88 10.5839 47.333 11.0069 46.498 11.0069C45.76 11.0069 45.16 10.6709 45.098 9.99293H45.099ZM48.841 10.9449V7.59093H49.502V9.89793H49.555L51.112 7.59093H51.774V10.9449H51.112V8.62593H51.063L49.502 10.9449H48.841ZM55.416 8.14793H54.352V10.9449H53.684V8.14793H52.619V7.59093H55.416V8.14793ZM59.009 10.0389C58.822 10.6719 58.205 11.0799 57.544 11.0089C57.094 11.0209 56.66 10.8359 56.36 10.5029C56.059 10.1689 55.921 9.72193 55.983 9.27893C55.923 8.83393 56.06 8.38593 56.359 8.04893C56.658 7.71393 57.089 7.52293 57.541 7.52693C58.481 7.52693 59.05 8.16393 59.05 9.21693V9.44793H56.662V9.48493C56.641 9.73393 56.726 9.97993 56.898 10.1629C57.069 10.3459 57.31 10.4489 57.562 10.4459C57.888 10.4839 58.206 10.3239 58.366 10.0389H59.008H59.009ZM56.663 8.95893H58.369C58.387 8.73093 58.306 8.50693 58.148 8.34193C57.989 8.17593 57.768 8.08493 57.538 8.08993C57.305 8.08693 57.081 8.17693 56.916 8.33993C56.751 8.50493 56.66 8.72693 56.663 8.95893ZM61.838 7.59093H63.362C64.022 7.59093 64.411 7.92393 64.411 8.44393C64.413 8.78393 64.175 9.07993 63.839 9.15193V9.20493C64.249 9.22993 64.567 9.56993 64.562 9.97793C64.562 10.5629 64.119 10.9449 63.377 10.9449H61.837V7.59093H61.838ZM62.498 8.09893V8.96793H63.16C63.563 8.96793 63.756 8.81393 63.756 8.52993C63.756 8.26893 63.588 8.09993 63.234 8.09993H62.499L62.498 8.09893ZM62.498 9.45393V10.4369H63.29C63.684 10.4369 63.895 10.2639 63.895 9.94693C63.895 9.61093 63.656 9.45393 63.206 9.45393H62.499H62.498Z" fill="white"/>
</svg>
