<svg width="35" height="35" viewBox="0 0 35 35" fill="none" xmlns="http://www.w3.org/2000/svg">
<path fill-rule="evenodd" clip-rule="evenodd" d="M17.5 0C7.83502 0 0 7.83502 0 17.5C0 27.165 7.83502 35 17.5 35C27.165 35 35 27.165 35 17.5C35 7.83502 27.165 0 17.5 0ZM13.6523 8.22299C14.6479 8.17768 14.966 8.1666 17.5008 8.1666H17.4979C20.0335 8.1666 20.3504 8.17768 21.346 8.22299C22.3396 8.26849 23.0182 8.42579 23.6132 8.6566C24.2277 8.8948 24.7469 9.21369 25.266 9.73286C25.7852 10.2516 26.1041 10.7724 26.3433 11.3862C26.5727 11.9797 26.7302 12.6579 26.7769 13.6515C26.8216 14.6471 26.8333 14.9652 26.8333 17.5C26.8333 20.0348 26.8216 20.3522 26.7769 21.3477C26.7302 22.341 26.5727 23.0194 26.3433 23.613C26.1041 24.2267 25.7852 24.7474 25.266 25.2662C24.7474 25.7854 24.2275 26.1051 23.6138 26.3435C23.02 26.5743 22.341 26.7316 21.3473 26.7771C20.3518 26.8224 20.0346 26.8335 17.4996 26.8335C14.965 26.8335 14.6471 26.8224 13.6515 26.7771C12.6581 26.7316 11.9797 26.5743 11.3859 26.3435C10.7724 26.1051 10.2516 25.7854 9.73306 25.2662C9.21408 24.7474 8.89519 24.2267 8.6566 23.6128C8.42599 23.0194 8.26868 22.3412 8.22299 21.3475C8.17787 20.352 8.1666 20.0348 8.1666 17.5C8.1666 14.9652 8.17826 14.6469 8.22279 13.6513C8.26751 12.6581 8.42501 11.9797 8.65641 11.386C8.89558 10.7724 9.21447 10.2516 9.73364 9.73286C10.2524 9.21388 10.7732 8.89499 11.387 8.6566C11.9805 8.42579 12.6587 8.26849 13.6523 8.22299Z" fill="white"/>
<path fill-rule="evenodd" clip-rule="evenodd" d="M16.6637 9.84852C16.8262 9.84827 17.0011 9.84835 17.1899 9.84843L17.501 9.84852C19.993 9.84852 20.2883 9.85747 21.2724 9.90219C22.1824 9.9438 22.6763 10.0959 23.0053 10.2236C23.4409 10.3928 23.7514 10.595 24.0779 10.9217C24.4046 11.2483 24.6068 11.5595 24.7764 11.995C24.9041 12.3236 25.0564 12.8175 25.0978 13.7275C25.1425 14.7114 25.1522 15.007 25.1522 17.4979C25.1522 19.9887 25.1425 20.2843 25.0978 21.2682C25.0562 22.1782 24.9041 22.6721 24.7764 23.0007C24.6072 23.4362 24.4046 23.7464 24.0779 24.0729C23.7512 24.3995 23.4411 24.6018 23.0053 24.7709C22.6767 24.8993 22.1824 25.0509 21.2724 25.0925C20.2885 25.1373 19.993 25.147 17.501 25.147C15.0087 25.147 14.7134 25.1373 13.7295 25.0925C12.8195 25.0505 12.3256 24.8985 11.9964 24.7707C11.5608 24.6016 11.2497 24.3993 10.923 24.0727C10.5964 23.746 10.3941 23.4357 10.2246 22.9999C10.0968 22.6713 9.94457 22.1774 9.90315 21.2674C9.85843 20.2835 9.84949 19.9879 9.84949 17.4955C9.84949 15.0031 9.85843 14.7091 9.90315 13.7252C9.94477 12.8152 10.0968 12.3213 10.2246 11.9923C10.3937 11.5567 10.5964 11.2456 10.923 10.919C11.2497 10.5923 11.5608 10.3901 11.9964 10.2205C12.3254 10.0922 12.8195 9.9405 13.7295 9.89869C14.5905 9.8598 14.9242 9.84814 16.6637 9.84619V9.84852ZM22.4828 11.3982C21.8645 11.3982 21.3628 11.8993 21.3628 12.5179C21.3628 13.1362 21.8645 13.6379 22.4828 13.6379C23.1012 13.6379 23.6028 13.1362 23.6028 12.5179C23.6028 11.8995 23.1012 11.3979 22.4828 11.3979V11.3982ZM12.7077 17.5C12.7077 14.853 14.8538 12.7069 17.5008 12.7069H17.5006C20.1476 12.7069 22.2931 14.853 22.2931 17.5C22.2931 20.147 20.1478 22.2922 17.5008 22.2922C14.8538 22.2922 12.7077 20.147 12.7077 17.5Z" fill="white"/>
<path fill-rule="evenodd" clip-rule="evenodd" d="M17.501 14.3889C19.2192 14.3889 20.6122 15.7817 20.6122 17.5001C20.6122 19.2182 19.2192 20.6112 17.501 20.6112C15.7827 20.6112 14.3899 19.2182 14.3899 17.5001C14.3899 15.7817 15.7827 14.3889 17.501 14.3889V14.3889Z" fill="white"/>
</svg>
