<svg width="60" height="60" viewBox="0 0 60 60" fill="none" xmlns="http://www.w3.org/2000/svg">
<path d="M29.9991 0C17.8201 0 7.91071 9.90943 7.91071 22.0896C7.91071 25.2666 8.56098 28.3 9.84248 31.1062C15.3652 43.1912 25.9538 55.9504 29.0682 59.5726C29.3015 59.8434 29.6417 59.9994 29.9997 59.9994C30.3577 59.9994 30.6978 59.8434 30.9312 59.5726C34.0444 55.951 44.6329 43.1924 50.1575 31.1062C51.4396 28.3 52.0893 25.2666 52.0893 22.0896C52.088 9.90943 42.1786 0 29.9991 0ZM29.9991 33.563C23.6726 33.563 18.5251 28.4155 18.5251 22.089C18.5251 15.7619 23.6726 10.6144 29.9991 10.6144C36.3256 10.6144 41.4731 15.7619 41.4731 22.089C41.4737 28.4155 36.3262 33.563 29.9991 33.563Z" fill="white"/>
</svg>
