<?xml version="1.0" encoding="UTF-8" standalone="no"?>
<!-- Generator: Adobe Illustrator 19.2.1, SVG Export Plug-In . SVG Version: 6.00 Build 0)  -->

<svg
   xmlns:dc="http://purl.org/dc/elements/1.1/"
   xmlns:cc="http://creativecommons.org/ns#"
   xmlns:rdf="http://www.w3.org/1999/02/22-rdf-syntax-ns#"
   xmlns:svg="http://www.w3.org/2000/svg"
   xmlns="http://www.w3.org/2000/svg"
   xmlns:sodipodi="http://sodipodi.sourceforge.net/DTD/sodipodi-0.dtd"
   xmlns:inkscape="http://www.inkscape.org/namespaces/inkscape"
   version="1.1"
   id="layer"
   x="0px"
   y="0px"
   viewBox="0 0 1400.9482 564.58215"
   xml:space="preserve"
   sodipodi:docname="IMG 2017.svg"
   width="1400.9482"
   height="564.58215"
   inkscape:version="0.92.4 (5da689c313, 2019-01-14)"><metadata
   id="metadata11"><rdf:RDF><cc:Work
       rdf:about=""><dc:format>image/svg+xml</dc:format><dc:type
         rdf:resource="http://purl.org/dc/dcmitype/StillImage" /><dc:title></dc:title></cc:Work></rdf:RDF></metadata><defs
   id="defs9" /><sodipodi:namedview
   pagecolor="#ffffff"
   bordercolor="#666666"
   borderopacity="1"
   objecttolerance="10"
   gridtolerance="10"
   guidetolerance="10"
   inkscape:pageopacity="0"
   inkscape:pageshadow="2"
   inkscape:window-width="1600"
   inkscape:window-height="837"
   id="namedview7"
   showgrid="false"
   fit-margin-top="0"
   fit-margin-left="0"
   fit-margin-right="0"
   fit-margin-bottom="0"
   inkscape:zoom="0.25594663"
   inkscape:cx="141.56844"
   inkscape:cy="116.1"
   inkscape:window-x="-8"
   inkscape:window-y="-8"
   inkscape:window-maximized="1"
   inkscape:current-layer="layer" />
<g
   id="g4"
   transform="translate(-21.8,122.48214)">
	<path
   d="M 1422.7482,167.04716 H 1266.776 v 11.44108 h 40.6275 c 0,0 -0.2335,104.83763 -0.2335,116.04521 v 68.17948 c 0,33.62276 -8.4057,43.19591 -23.1156,52.06858 -16.1109,8.87267 -53.0026,15.64392 -77.7527,15.64392 -140.7953,0 -199.4016,-136.12547 -199.4016,-251.7037 0,-148.500513 70.2809,-250.302751 181.8898,-250.302751 69.3469,0 135.1915,21.481206 154.8048,95.964954 h 10.5071 v -79.620558 c 0,0 -36.4247,-29.186422 -165.3119,-29.186422 -142.8967,0 -256.37354,86.3918082 -256.37354,272.717927 0,159.00762 108.10654,253.33814 268.51504,253.33814 58.3729,0 118.8471,-14.24298 180.2554,-39.46004 V 178.02126 h 41.0945 v -10.9741 z M 324.8718,-17.411023 294.05094,430.65892 H 253.65693 V 442.1 h 153.87082 v -11.44108 h -40.6275 l 23.81612,-293.03167 z m 421.45193,75.184222 35.72418,372.652231 h -40.6275 V 442.1 H 895.05774 V 430.42543 H 854.66373 L 808.66593,-83.956064 Z M 570.97171,442.1 612.29968,351.97233 342.15016,-122.48214 Z m -117.21267,-564.58214 176.0525,436.39538 36.19116,-79.38707 z m 95.26448,0 131.92263,323.38555 33.38926,-76.81866 z M 178.00573,-72.281496 V -83.956064 H 137.14474 62.66099 21.8 v 11.674568 H 62.894482 V 430.42543 H 21.8 V 442.1 h 41.094482 74.250258 41.09448 V 430.42543 H 137.14474 V -72.281496 Z"
   id="path2"
   inkscape:connector-curvature="0"
   style="stroke-width:2.33491373" />
</g>
</svg>