<svg width="110" height="26" viewBox="0 0 110 26" fill="none" xmlns="http://www.w3.org/2000/svg">
<g clip-path="url(#clip0_1_4)">
<path fill-rule="evenodd" clip-rule="evenodd" d="M73.2384 14.3073C72.5203 13.8264 71.6483 13.586 70.6225 13.586C69.5966 13.586 68.6733 13.8337 67.8526 14.3291C67.0319 14.8245 66.3871 15.5457 65.9181 16.4928C65.4638 17.4253 65.2366 18.5254 65.2366 19.793C65.2366 21.0606 65.4638 22.168 65.9181 23.1151C66.3871 24.0476 67.0319 24.7615 67.8526 25.2569C68.6733 25.7523 69.5966 26 70.6225 26C71.6483 26 72.5203 25.7596 73.2384 25.2788C73.9712 24.7834 74.4988 24.1277 74.8212 23.3118V25.847H77.8989V9H74.8212V16.2524C74.4988 15.4365 73.9712 14.7881 73.2384 14.3073ZM69.2595 17.214C69.8457 16.5875 70.6225 16.2743 71.5897 16.2743C72.5277 16.2743 73.2971 16.5948 73.8979 17.2359C74.5135 17.8624 74.8212 18.7148 74.8212 19.793C74.8212 20.8566 74.5135 21.709 73.8979 22.3501C73.2971 22.9766 72.5277 23.2899 71.5897 23.2899C70.6225 23.2899 69.8457 22.9839 69.2595 22.372C68.6733 21.7454 68.3802 20.8858 68.3802 19.793C68.3802 18.7002 68.6733 17.8406 69.2595 17.214Z" fill="#E9EDED"/>
<path d="M31.0996 16.0557C31.5539 15.2835 32.1548 14.6788 32.9022 14.2417C33.6497 13.79 34.485 13.5642 35.4083 13.5642V16.8644H34.507C32.2354 16.8644 31.0996 17.9134 31.0996 20.0116V25.847H28V13.739H31.0996V16.0557Z" fill="#E9EDED"/>
<path fill-rule="evenodd" clip-rule="evenodd" d="M47.4779 19.334C47.4779 19.64 47.4412 19.9897 47.368 20.3831H38.4428C38.4868 21.4613 38.7799 22.2554 39.3221 22.7654C39.8644 23.2753 40.5385 23.5303 41.3446 23.5303C42.0627 23.5303 42.6563 23.3555 43.1252 23.0058C43.6089 22.6561 43.9166 22.1826 44.0485 21.5852H47.324C47.1628 22.4303 46.8184 23.1879 46.2908 23.8582C45.7632 24.5284 45.0817 25.0529 44.2464 25.4318C43.4257 25.8106 42.5097 26 41.4985 26C40.3114 26 39.2562 25.7523 38.3329 25.2569C37.4096 24.7469 36.6915 24.0257 36.1786 23.0932C35.6656 22.1607 35.4092 21.0606 35.4092 19.793C35.4092 18.5254 35.6656 17.4253 36.1786 16.4928C36.6915 15.5457 37.4096 14.8245 38.3329 14.3291C39.2562 13.8337 40.3114 13.586 41.4985 13.586C42.7002 13.586 43.7481 13.8337 44.6421 14.3291C45.5507 14.8245 46.2468 15.5093 46.7304 16.3835C47.2287 17.2432 47.4779 18.2267 47.4779 19.334ZM44.3563 19.0281C44.4002 18.0373 44.1364 17.2869 43.5649 16.7769C43.008 16.267 42.3192 16.012 41.4985 16.012C40.6631 16.012 39.9597 16.267 39.3881 16.7769C38.8165 17.2869 38.5014 18.0373 38.4428 19.0281H44.3563Z" fill="#E9EDED"/>
<path d="M57.9659 14.8536C56.9253 14.0086 55.621 13.586 54.0529 13.586C52.8658 13.586 51.8106 13.8337 50.8873 14.3291C49.964 14.8245 49.2459 15.5457 48.733 16.4928C48.22 17.4253 47.9636 18.5254 47.9636 19.793C47.9636 21.0606 48.22 22.1607 48.733 23.0932C49.2459 24.0257 49.964 24.7469 50.8873 25.2569C51.8106 25.7523 52.8658 26 54.0529 26C55.621 26 56.9253 25.5775 57.9659 24.7324C59.0211 23.8873 59.6805 22.7362 59.9443 21.2792H56.6689C56.537 21.9203 56.2365 22.4303 55.7676 22.8091C55.2986 23.1733 54.705 23.3555 53.9869 23.3555C53.1662 23.3555 52.4774 23.0568 51.9205 22.4594C51.3783 21.8474 51.1071 20.9586 51.1071 19.793C51.1071 18.6274 51.3783 17.7459 51.9205 17.1485C52.4774 16.5365 53.1662 16.2305 53.9869 16.2305C54.705 16.2305 55.2986 16.42 55.7676 16.7988C56.2365 17.1631 56.537 17.6657 56.6689 18.3068H59.9443C59.6805 16.8498 59.0211 15.6987 57.9659 14.8536Z" fill="#E9EDED"/>
<path d="M64.1472 13.739V25.847H61.0476V13.739H64.1472Z" fill="#E9EDED"/>
<path d="M82.7083 13.739V25.847H79.6087V13.739H82.7083Z" fill="#E9EDED"/>
<path d="M92.7888 13.739L89.7112 22.7654L86.6115 13.739H83.2921L87.7986 25.847H91.5797L96.0863 13.739H92.7888Z" fill="#E9EDED"/>
<path d="M99.8096 13.739V25.847H96.71V13.739H99.8096Z" fill="#E9EDED"/>
<path d="M110 23.268H104.021L109.78 16.165V13.739H100.767V16.2961H106.241L100.635 23.3992V25.847H110V23.268Z" fill="#E9EDED"/>
<path d="M62.59 12.6426C63.6018 12.6426 64.422 11.8272 64.422 10.8213C64.422 9.81542 63.6018 9 62.59 9C61.5783 9 60.7581 9.81542 60.7581 10.8213C60.7581 11.8272 61.5783 12.6426 62.59 12.6426Z" fill="#E9EDED"/>
<path d="M82.9796 10.8213C82.9796 11.8272 82.1594 12.6426 81.1477 12.6426C80.1359 12.6426 79.3157 11.8272 79.3157 10.8213C79.3157 9.81542 80.1359 9 81.1477 9C82.1594 9 82.9796 9.81542 82.9796 10.8213Z" fill="#E9EDED"/>
<path d="M98.258 12.6426C99.2698 12.6426 100.09 11.8272 100.09 10.8213C100.09 9.81542 99.2698 9 98.258 9C97.2463 9 96.4261 9.81542 96.4261 10.8213C96.4261 11.8272 97.2463 12.6426 98.258 12.6426Z" fill="#E9EDED"/>
<path d="M13 13H0V26H13V13Z" fill="#00A1FF"/>
<path d="M26 7C26 3.13401 22.866 0 19 0C15.134 0 12 3.13401 12 7C12 10.866 15.134 14 19 14C22.866 14 26 10.866 26 7Z" fill="#E00E00"/>
</g>
<defs>
<clipPath id="clip0_1_4">
<rect width="110" height="26" fill="white"/>
</clipPath>
</defs>
</svg>
