<svg xmlns="http://www.w3.org/2000/svg" xmlns:xlink="http://www.w3.org/1999/xlink">
		<symbol viewBox="0 0 512 512" id="burger">
			<g>
				<g>
					<path
						d="M492,236H20c-11.046,0-20,8.954-20,20c0,11.046,8.954,20,20,20h472c11.046,0,20-8.954,20-20S503.046,236,492,236z" />
				</g>
			</g>
			<g>
				<g>
					<path d="M492,76H20C8.954,76,0,84.954,0,96s8.954,20,20,20h472c11.046,0,20-8.954,20-20S503.046,76,492,76z" />
				</g>
			</g>
			<g>
				<g>
					<path d="M492,396H20c-11.046,0-20,8.954-20,20c0,11.046,8.954,20,20,20h472c11.046,0,20-8.954,20-20
			C512,404.954,503.046,396,492,396z" />
				</g>
			</g>
		</symbol>
		<symbol viewBox="0 0 512.001 512.001" id="close">
				<g>
					<g>
						<path d="M284.286,256.002L506.143,34.144c7.811-7.811,7.811-20.475,0-28.285c-7.811-7.81-20.475-7.811-28.285,0L256,227.717
			L34.143,5.859c-7.811-7.811-20.475-7.811-28.285,0c-7.81,7.811-7.811,20.475,0,28.285l221.857,221.857L5.858,477.859
			c-7.811,7.811-7.811,20.475,0,28.285c3.905,3.905,9.024,5.857,14.143,5.857c5.119,0,10.237-1.952,14.143-5.857L256,284.287
			l221.857,221.857c3.905,3.905,9.024,5.857,14.143,5.857s10.237-1.952,14.143-5.857c7.811-7.811,7.811-20.475,0-28.285
			L284.286,256.002z" />
					</g>
				</g>
		</symbol>
	</svg>