<svg width="24" height="24" viewBox="0 0 24 24" fill="none" xmlns="http://www.w3.org/2000/svg">
<path fill-rule="evenodd" clip-rule="evenodd" d="M12 22C6.48597 22 2 17.514 2 12C2 6.48597 6.48597 2 12 2C17.514 2 22 6.48597 22 12C22 17.514 17.514 22 12 22ZM20.4335 13.3689C20.1413 13.2766 17.7897 12.5753 15.113 13.0037C16.2302 16.0737 16.6848 18.5743 16.7723 19.0937C18.6887 17.798 20.0528 15.7455 20.4335 13.3689ZM15.3365 19.8757C15.2094 19.1263 14.7135 16.5146 13.5143 13.3984C13.4955 13.4048 13.4768 13.4109 13.458 13.4174C8.64026 15.0962 6.9108 18.4372 6.75715 18.7515C7.95695 19.687 9.38515 20.2846 10.8937 20.4823C12.4022 20.6799 13.9361 20.4705 15.3365 19.8757ZM5.65429 17.7242C5.84776 17.393 8.19196 13.5116 12.5972 12.0876C12.7085 12.0516 12.8207 12.0178 12.9337 11.9861C12.7193 11.5009 12.4858 11.0151 12.2413 10.5365C7.9757 11.8131 3.83652 11.7598 3.4628 11.7521C3.4602 11.8388 3.45845 11.9257 3.45845 12.0131C3.45681 14.1232 4.23941 16.1587 5.65429 17.7242ZM3.63888 10.2636C4.0209 10.2686 7.5401 10.2839 11.5354 9.22292C10.1202 6.70717 8.59377 4.59187 8.36861 4.28305C5.97904 5.41019 4.19273 7.61308 3.63888 10.2636ZM9.99837 3.70893C10.2345 4.02504 11.7858 6.13764 13.1855 8.70917C16.2227 7.57076 17.5086 5.84255 17.6622 5.62374C16.6338 4.7104 15.3997 4.05927 14.0653 3.72586C12.7308 3.39245 11.3356 3.38665 9.99837 3.70893ZM18.6117 6.61154C18.4316 6.85523 17.0004 8.69 13.8422 9.97938C14.0409 10.3863 14.2315 10.8001 14.4089 11.2166C14.4717 11.3642 14.5331 11.5111 14.5929 11.6574C17.435 11.3 20.2589 11.8728 20.5405 11.9323C20.5242 9.99048 19.8435 8.11277 18.6117 6.61154Z" fill="#E94B88"/>
</svg>
