<svg width="24" height="24" viewBox="0 0 24 24" fill="none" xmlns="http://www.w3.org/2000/svg">
<path d="M19.65 3H4.35C3.63 3 3 3.54268 3 4.2663V19.7337C3 20.4573 3.63 21 4.35 21H19.65C20.37 21 21 20.4573 21 19.7337V4.2663C21 3.63313 20.37 3 19.65 3ZM8.31 18.4673H5.61V9.87435H8.31V18.4673ZM6.96 8.608C6.06 8.608 5.43 7.88442 5.43 7.07035C5.43 6.25628 6.15 5.53265 6.96 5.53265C7.77 5.53265 8.49 6.25628 8.49 7.07035C8.58 7.97488 7.86 8.608 6.96 8.608ZM18.3 18.4673H15.6V14.3066C15.6 13.3116 15.6 12.0452 14.25 12.0452C12.9 12.0452 12.63 13.1307 12.63 14.3066V18.5578H9.93001V9.96478H12.45V11.1407C12.81 10.4171 13.71 9.78392 14.97 9.78392C17.67 9.78392 18.21 11.593 18.21 13.8543V18.4673H18.3Z" fill="#0077B5"/>
</svg>
