<svg width="79" height="24" viewBox="0 0 79 24" fill="none" xmlns="http://www.w3.org/2000/svg">
<path d="M4.86 23.7H0V0H5.43C6.54999 0 7.46001 0.0600008 8.16 0.180001C8.88 0.279999 9.44001 0.499998 9.84 0.840001C10.24 1.18 10.51 1.67 10.65 2.31C10.81 2.93 10.89 3.77001 10.89 4.83V7.29C10.89 7.91001 10.82 8.42002 10.68 8.82C10.54 9.21999 10.36 9.54 10.14 9.78C9.93999 10.02 9.72 10.2 9.48 10.32C9.24 10.42 9.02001 10.49 8.82 10.53V10.65C9.12 10.73 9.39 10.85 9.63 11.01C9.89001 11.15 10.11 11.37 10.29 11.67C10.47 11.97 10.61 12.37 10.71 12.87C10.83 13.35 10.89 13.97 10.89 14.73V23.7H6V13.2C6 12.94 5.97 12.77 5.91 12.69C5.85 12.59 5.69001 12.54 5.43 12.54H4.86V23.7ZM4.86 8.73H5.43C5.69001 8.73 5.85 8.69001 5.91 8.61C5.97 8.51001 6 8.33001 6 8.07V4.83C6 4.56999 5.97 4.40001 5.91 4.32C5.85 4.22001 5.69001 4.17 5.43 4.17H4.86V8.73ZM22.2764 20.19C22.2764 21.03 22.2064 21.7 22.0664 22.2C21.9464 22.7 21.7064 23.09 21.3464 23.37C21.0064 23.63 20.5264 23.8 19.9064 23.88C19.3064 23.96 18.5164 24 17.5364 24C16.5764 24 15.7864 23.96 15.1664 23.88C14.5464 23.8 14.0664 23.63 13.7264 23.37C13.3864 23.09 13.1464 22.7 13.0064 22.2C12.8864 21.7 12.8264 21.03 12.8264 20.19V9.24C12.8264 8.4 12.8864 7.73001 13.0064 7.23C13.1464 6.72999 13.3864 6.35001 13.7264 6.09C14.0664 5.81001 14.5464 5.63001 15.1664 5.55C15.7864 5.46999 16.5764 5.43 17.5364 5.43C18.5164 5.43 19.3064 5.46999 19.9064 5.55C20.5264 5.63001 21.0064 5.81001 21.3464 6.09C21.7064 6.35001 21.9464 6.72999 22.0664 7.23C22.2064 7.73001 22.2764 8.4 22.2764 9.24V20.19ZM16.9964 19.35C16.9964 19.61 17.0264 19.79 17.0864 19.89C17.1464 19.97 17.2964 20.01 17.5364 20.01C17.7964 20.01 17.9564 19.97 18.0164 19.89C18.0764 19.79 18.1064 19.61 18.1064 19.35V10.08C18.1064 9.81999 18.0764 9.65001 18.0164 9.57C17.9564 9.47001 17.7964 9.42 17.5364 9.42C17.2964 9.42 17.1464 9.47001 17.0864 9.57C17.0264 9.65001 16.9964 9.81999 16.9964 10.08V19.35ZM28.7236 0V6.54C28.9836 6.18 29.3036 5.93001 29.6836 5.79C30.0836 5.64999 30.5736 5.58 31.1536 5.58C31.7336 5.58 32.2036 5.64999 32.5636 5.79C32.9236 5.91 33.1936 6.11001 33.3736 6.39C33.5736 6.66999 33.7036 7.05 33.7636 7.53C33.8436 7.98999 33.8836 8.55999 33.8836 9.24V20.19C33.8836 20.89 33.8436 21.48 33.7636 21.96C33.7036 22.42 33.5736 22.79 33.3736 23.07C33.1736 23.35 32.8836 23.55 32.5036 23.67C32.1236 23.79 31.6336 23.85 31.0336 23.85C30.3536 23.85 29.8036 23.78 29.3836 23.64C28.9636 23.48 28.6436 23.23 28.4236 22.89V23.7H24.4336V0H28.7236ZM29.7136 10.08C29.7136 9.84 29.6836 9.66999 29.6236 9.57C29.5836 9.47001 29.4536 9.42 29.2336 9.42C29.0336 9.42 28.8836 9.45999 28.7836 9.54C28.7036 9.6 28.6436 9.69999 28.6036 9.84V19.59C28.6436 19.73 28.7036 19.84 28.7836 19.92C28.8836 19.98 29.0336 20.01 29.2336 20.01C29.4536 20.01 29.5836 19.96 29.6236 19.86C29.6836 19.76 29.7136 19.59 29.7136 19.35V10.08ZM40.3551 3.12H36.0952V0H40.3551V3.12ZM40.3551 23.7H36.0952V5.73H40.3551V23.7ZM52.5529 23.7H48.2329V10.08C48.2329 9.84 48.2029 9.66999 48.1429 9.57C48.1026 9.47001 47.9728 9.42 47.7529 9.42C47.5528 9.42 47.4028 9.45999 47.3029 9.54C47.2228 9.6 47.1529 9.69999 47.0929 9.84V23.7H42.8029V5.73H46.7929V6.54C47.0128 6.20001 47.3329 5.96001 47.7529 5.82C48.1729 5.66001 48.7228 5.58 49.4029 5.58C50.0029 5.58 50.5026 5.64 50.9029 5.76C51.3229 5.88 51.6529 6.08001 51.8929 6.36C52.1329 6.63999 52.3026 7.02 52.4029 7.5C52.5028 7.95999 52.5529 8.54001 52.5529 9.24V23.7ZM59.194 23.7H54.844V19.47H59.194V23.7ZM78.4295 0L75.9695 23.7H69.8495L69.0395 6.51H68.9195L67.9295 23.7H61.7195L59.8895 0H64.7795L65.2895 16.62H65.4095L66.1295 0H72.1295L72.6395 16.62H72.7595L73.5095 0H78.4295Z" fill="white"/>
</svg>
