<svg width="85" height="30" viewBox="0 0 85 30" fill="none" xmlns="http://www.w3.org/2000/svg">
<path d="M55.7755 1H29.3338C29.2554 0.999999 29.1796 1.02756 29.1195 1.07787C29.0594 1.12817 29.019 1.198 29.0052 1.27514C28.9914 1.35227 29.0052 1.43179 29.0442 1.49976C29.0832 1.56774 29.1448 1.61984 29.2183 1.64694L53.1344 9.47706C53.1618 9.48601 53.1914 9.48507 53.2181 9.47439C53.2449 9.46372 53.267 9.44399 53.2806 9.41866L56.8493 2.79879C56.9495 2.61296 56.9997 2.4043 56.9951 2.19323C56.9905 1.98216 56.9312 1.77591 56.823 1.59462C56.7148 1.41335 56.5613 1.26325 56.3778 1.15902C56.1942 1.0548 55.9866 1 55.7755 1Z" fill="#8491A0"/>
<path d="M29.0059 28.6785C29.0059 28.7504 29.0299 28.8202 29.074 28.877C29.1182 28.9337 29.1801 28.9741 29.2498 28.9917C29.3195 29.0093 29.3931 29.0032 29.459 28.9742C29.5248 28.9453 29.5791 28.8952 29.6133 28.8319L34.2136 20.3098C34.3181 20.1162 34.4731 19.9544 34.6621 19.8417C34.851 19.729 35.067 19.6694 35.2871 19.6694H47.024C47.2441 19.6694 47.4602 19.6099 47.6492 19.497C47.8383 19.3842 47.9932 19.2223 48.0977 19.0285L51.6047 12.5258C51.6126 12.511 51.6166 12.4944 51.6163 12.4776C51.6159 12.4608 51.6112 12.4444 51.6026 12.4299C51.594 12.4155 51.5818 12.4036 51.5672 12.3953C51.5526 12.387 51.536 12.3826 51.5192 12.3826H30.2257C29.9022 12.3826 29.5919 12.5112 29.3632 12.7399C29.1344 12.9687 29.0059 13.279 29.0059 13.6025V28.6785Z" fill="#8491A0"/>
</svg>
