<svg width="24" height="24" viewBox="0 0 24 24" fill="none" xmlns="http://www.w3.org/2000/svg">
<path fill-rule="evenodd" clip-rule="evenodd" d="M22 6.87195C21.3103 7.16751 20.5222 7.36453 19.6355 7.46305C20.4236 6.97044 21.1133 6.18225 21.4089 5.29555C20.6207 5.78816 19.734 6.08373 18.8473 6.28078C18.1576 5.4926 17.0739 5 15.8916 5C13.6256 5 11.8522 6.7734 11.8522 8.94089C11.8522 9.23645 11.8522 9.53204 11.9507 9.82761C8.60099 9.63057 5.64532 8.0542 3.57636 5.68967C3.18227 6.2808 2.98522 6.97046 2.98522 7.66011C2.98522 9.03942 3.67488 10.2217 4.75862 11.0098C4.06896 11.0098 3.47783 10.8128 2.88669 10.5172C2.88669 10.5172 2.88669 10.5173 2.88669 10.6158C2.88669 12.5862 4.26601 14.1626 6.13793 14.5567C5.84236 14.6552 5.44828 14.6552 5.05419 14.6552C4.75862 14.6552 4.56158 14.6552 4.26601 14.5567C4.75862 16.133 6.23645 17.3153 8.00985 17.3153C6.63054 18.399 4.85715 18.9902 2.98522 18.9902C2.68966 18.9902 2.29557 18.9901 2 18.8916C3.7734 20.0739 5.94089 20.665 8.2069 20.665C15.5961 20.665 19.734 14.5567 19.734 9.335C19.734 9.13796 19.734 8.94091 19.734 8.84239C20.8177 8.34978 21.5074 7.66012 22 6.87195Z" fill="#26A7DE"/>
</svg>
