<svg width="200" height="35" viewBox="0 0 200 35" fill="none" xmlns="http://www.w3.org/2000/svg">
<path fill-rule="evenodd" clip-rule="evenodd" d="M166.41 6.39699C164.676 6.39699 163.282 5.00387 163.282 3.21271C163.282 1.44998 164.704 0 166.467 0C168.229 0 169.679 1.39312 169.679 3.15585C169.679 4.94701 168.229 6.39699 166.41 6.39699ZM101.786 25.1046V3.32644H107.046V9.29696C107.046 9.29696 109.377 7.30679 112.419 7.30679C117.565 7.30679 120.607 11.6567 120.607 16.4047C120.607 21.2664 117.508 25.5311 112.59 25.5311C110.287 25.5311 108.581 24.8772 106.961 23.285V25.1046H101.786ZM90.4989 25.5311C85.1255 25.5311 81.4294 22.2615 81.4294 16.4047C81.4294 11.1165 85.2108 7.30679 90.3568 7.30679C95.3891 7.30679 98.943 10.6332 98.943 16.8596L98.9441 17.0109C98.9455 17.099 98.9478 17.179 98.9499 17.2554V17.2555V17.2557V17.2558V17.2559V17.2561V17.2561V17.2562V17.2562C98.956 17.4697 98.9613 17.6553 98.943 17.9116H86.6608C87.1156 19.987 88.7647 20.9821 90.7548 20.9821C92.39 20.9821 93.4944 19.8953 94.3779 18.7702L94.5362 18.5655C94.5362 18.5655 97.1143 20.052 98.3239 20.7787L98.6587 20.9821C97.1234 23.7115 94.1666 25.5311 90.4989 25.5311ZM58.1444 25.1046L51.4915 7.64796H57.064L60.5326 17.3145L63.7169 7.64796H67.9531L71.308 17.3714L74.7481 7.64796H80.2353L73.6678 25.1046H69.0903L65.8492 15.7224L62.7218 25.1046H58.1444ZM90.2999 11.742C91.9489 11.742 92.8587 12.5381 93.4842 14.2155H86.8598C87.5137 12.595 88.5088 11.742 90.2999 11.742ZM111.225 12.1969C113.613 12.1969 115.348 14.0734 115.348 16.291C115.348 18.7645 114.04 20.84 111.453 20.84C108.695 20.84 106.904 19.1057 106.904 16.4047C106.904 13.8744 108.752 12.1969 111.225 12.1969ZM132.037 25.7017C126.692 25.7017 122.598 21.3233 122.598 16.4616C122.598 11.2303 126.777 7.30679 132.15 7.30679C137.439 7.30679 141.561 11.1165 141.561 16.3763C141.561 21.6929 137.723 25.7017 132.037 25.7017ZM132.122 12.2822C134.596 12.2822 136.301 14.0449 136.301 16.291C136.301 19.0204 134.709 20.6978 132.094 20.6978C129.677 20.6978 127.886 18.8782 127.886 16.5469C127.886 14.1587 129.563 12.2822 132.122 12.2822ZM154.838 25.1046H150.119L142.812 7.64796H148.726L152.536 17.8547L156.118 7.64796H161.69L154.838 25.1046ZM169.082 7.64796H163.794V25.1046H169.082V7.64796ZM171.926 16.4616C171.926 21.3233 176.02 25.7017 181.365 25.7017C187.051 25.7017 190.889 21.6929 190.889 16.3763C190.889 11.1165 186.767 7.30679 181.478 7.30679C176.105 7.30679 171.926 11.2303 171.926 16.4616ZM185.629 16.291C185.629 14.0449 183.923 12.2822 181.45 12.2822C178.891 12.2822 177.214 14.1587 177.214 16.5469C177.214 18.8782 179.005 20.6978 181.422 20.6978C184.037 20.6978 185.629 19.0204 185.629 16.291Z" fill="white"/>
<path d="M196.064 18.8079C197.855 18.8079 199.333 20.2863 199.333 22.0775C199.333 23.8686 197.855 25.347 196.064 25.347C194.272 25.347 192.794 23.8686 192.794 22.0775C192.794 20.2863 194.272 18.8079 196.064 18.8079Z" fill="#EDB91B"/>
<path fill-rule="evenodd" clip-rule="evenodd" d="M28.5057 26.8209C27.4945 28.5064 25.0518 28.5064 24.0405 26.8209L9.94117 3.32202L38.0065 3.32202C40.0303 3.32202 41.2804 5.52983 40.2391 7.26522L28.5057 26.8209Z" fill="#EDB91B"/>
<path fill-rule="evenodd" clip-rule="evenodd" d="M14.0993 26.8209C15.1106 28.5064 17.5533 28.5064 18.5646 26.8209L32.6639 3.32202L4.59853 3.32202C2.57474 3.32202 1.32469 5.52983 2.36592 7.26522L14.0993 26.8209Z" fill="white"/>
<path fill-rule="evenodd" clip-rule="evenodd" d="M9.94116 3.32202H32.6639L21.3033 22.2576L9.94116 3.32202Z" fill="#EEF0E7"/>
</svg>
