<svg width="257" height="40" viewBox="0 0 257 40" fill="none" xmlns="http://www.w3.org/2000/svg">
<path fill-rule="evenodd" clip-rule="evenodd" d="M213.956 8.2247C211.726 8.2247 209.935 6.43355 209.935 4.13063C209.935 1.86427 211.762 0 214.029 0C216.295 0 218.159 1.79116 218.159 4.05752C218.159 6.36044 216.295 8.2247 213.956 8.2247ZM137.521 32.2774H130.868V4.27685H137.63V11.9532C137.63 11.9532 140.628 9.39444 144.539 9.39444C151.155 9.39444 155.067 14.9872 155.067 21.0918C155.067 27.3426 151.082 32.8257 144.758 32.8257C141.798 32.8257 139.604 31.985 137.521 29.9379V32.2774ZM116.356 32.8257C109.447 32.8257 104.695 28.622 104.695 21.0918C104.695 14.2927 109.557 9.39444 116.173 9.39444C122.643 9.39444 127.212 13.6713 127.212 21.6767L127.214 21.8712C127.216 21.9847 127.219 22.0878 127.221 22.1862C127.229 22.4608 127.236 22.6995 127.212 23.0292H111.421C112.006 25.6976 114.126 26.977 116.685 26.977C118.787 26.977 120.207 25.5797 121.343 24.1332L121.547 23.8699C121.547 23.8699 124.861 25.7811 126.416 26.7155L126.847 26.977C124.873 30.4862 121.071 32.8257 116.356 32.8257ZM74.7571 32.2774L66.2034 9.83309H73.368L77.8276 22.2615L81.9217 9.83309H87.3683L91.6817 22.3346L96.1048 9.83309H103.16L94.7157 32.2774H88.8305L84.6633 20.2145L80.6423 32.2774H74.7571ZM116.1 15.0969C118.22 15.0969 119.39 16.1204 120.194 18.2771H111.677C112.518 16.1935 113.797 15.0969 116.1 15.0969ZM143.004 15.6818C146.074 15.6818 148.304 18.0943 148.304 20.9456C148.304 24.1258 146.623 26.7943 143.296 26.7943C139.751 26.7943 137.448 24.5644 137.448 21.0918C137.448 17.8385 139.824 15.6818 143.004 15.6818ZM169.762 33.045C162.889 33.045 157.626 27.4157 157.626 21.1649C157.626 14.4389 162.999 9.39444 169.908 9.39444C176.707 9.39444 182.007 14.2927 182.007 21.0552C182.007 27.8909 177.072 33.045 169.762 33.045ZM169.871 15.7914C173.051 15.7914 175.245 18.0578 175.245 20.9456C175.245 24.4548 173.198 26.6115 169.835 26.6115C166.728 26.6115 164.425 24.272 164.425 21.2746C164.425 18.204 166.581 15.7914 169.871 15.7914ZM199.078 32.2774H193.01L183.616 9.83309H191.219L196.117 22.9561L200.723 9.83309H207.888L199.078 32.2774ZM217.392 9.83309H210.593V32.2774H217.392V9.83309ZM221.047 21.1649C221.047 27.4157 226.311 33.045 233.183 33.045C240.494 33.045 245.429 27.8909 245.429 21.0552C245.429 14.2927 240.128 9.39444 233.329 9.39444C226.421 9.39444 221.047 14.4389 221.047 21.1649ZM238.666 20.9456C238.666 18.0578 236.473 15.7914 233.293 15.7914C230.003 15.7914 227.846 18.204 227.846 21.2746C227.846 24.272 230.149 26.6115 233.256 26.6115C236.619 26.6115 238.666 24.4548 238.666 20.9456Z" fill="white"/>
<path d="M252.082 24.1816C254.385 24.1816 256.285 26.0825 256.285 28.3854C256.285 30.6883 254.385 32.5891 252.082 32.5891C249.779 32.5891 247.878 30.6883 247.878 28.3854C247.878 26.0825 249.779 24.1816 252.082 24.1816Z" fill="white"/>
<path fill-rule="evenodd" clip-rule="evenodd" d="M36.6502 34.4842C35.35 36.6512 32.2094 36.6511 30.9092 34.4842L12.7815 4.27127L48.8656 4.27127C51.4676 4.27127 53.0748 7.10989 51.7361 9.34111L36.6502 34.4842Z" fill="#FFD723"/>
<path fill-rule="evenodd" clip-rule="evenodd" d="M18.1277 34.4842C19.4279 36.6512 22.5685 36.6511 23.8687 34.4842L41.9964 4.27127L5.91239 4.27127C3.31037 4.27127 1.70317 7.10989 3.0419 9.34111L18.1277 34.4842Z" fill="white"/>
<path fill-rule="evenodd" clip-rule="evenodd" d="M12.7816 4.27124H41.9965L27.39 28.617L12.7816 4.27124Z" fill="#F6F6F6"/>
</svg>
