<svg width="10" height="10" viewBox="0 0 10 10" fill="none" xmlns="http://www.w3.org/2000/svg">
<g clip-path="url(#clip0)">
<path d="M0.141602 0.834488C-0.0458984 0.646988 -0.0458984 0.334925 0.141602 0.140869C0.335657 -0.0466309 0.641164 -0.0466309 0.83522 0.140869L4.99737 4.31001L9.16651 0.140869C9.35401 -0.0466309 9.66608 -0.0466309 9.85314 0.140869C10.0472 0.334925 10.0472 0.647425 9.85314 0.834488L5.69099 4.99708L9.85314 9.16622C10.0472 9.35372 10.0472 9.66578 9.85314 9.85984C9.66564 10.0473 9.35358 10.0473 9.16651 9.85984L4.99737 5.69069L0.83522 9.85984C0.641164 10.0473 0.335657 10.0473 0.141602 9.85984C-0.0458984 9.66578 -0.0458984 9.35328 0.141602 9.16622L4.30375 4.99708L0.141602 0.834488Z" fill="#2F2222"/>
</g>
<defs>
<clipPath id="clip0">
<rect width="10" height="10" fill="white"/>
</clipPath>
</defs>
</svg>
