<svg width="40" height="40" viewBox="0 0 40 40" fill="none" xmlns="http://www.w3.org/2000/svg">
<path fill-rule="evenodd" clip-rule="evenodd" d="M20 0C8.95431 0 0 8.95431 0 20C0 31.0457 8.95431 40 20 40C31.0457 40 40 31.0457 40 20C40 8.95431 31.0457 0 20 0ZM15.6027 9.39778C16.7405 9.346 17.1041 9.33333 20.001 9.33333H19.9977C22.8955 9.33333 23.2577 9.346 24.3955 9.39778C25.5311 9.44978 26.3066 9.62956 26.9866 9.89334C27.6889 10.1656 28.2822 10.53 28.8755 11.1234C29.4689 11.7162 29.8333 12.3114 30.1067 13.0129C30.3689 13.6912 30.5489 14.4663 30.6022 15.6018C30.6533 16.7396 30.6667 17.1032 30.6667 20.0001C30.6667 22.897 30.6533 23.2597 30.6022 24.3975C30.5489 25.5326 30.3689 26.308 30.1067 26.9864C29.8333 27.6877 29.4689 28.2829 28.8755 28.8758C28.2829 29.4691 27.6886 29.8344 26.9873 30.1069C26.3086 30.3707 25.5326 30.5504 24.397 30.6024C23.2593 30.6542 22.8968 30.6669 19.9997 30.6669C17.103 30.6669 16.7396 30.6542 15.6018 30.6024C14.4665 30.5504 13.6912 30.3707 13.0125 30.1069C12.3114 29.8344 11.7162 29.4691 11.1236 28.8758C10.5305 28.2829 10.166 27.6877 9.89334 26.9862C9.62978 26.308 9.45 25.5328 9.39778 24.3973C9.34622 23.2595 9.33333 22.897 9.33333 20.0001C9.33333 17.1032 9.34667 16.7394 9.39756 15.6016C9.44867 14.4665 9.62867 13.6912 9.89312 13.0127C10.1665 12.3114 10.5309 11.7162 11.1242 11.1234C11.7171 10.5302 12.3123 10.1658 13.0138 9.89334C13.692 9.62956 14.4672 9.44978 15.6027 9.39778Z" fill="#5D71DD"/>
<path fill-rule="evenodd" clip-rule="evenodd" d="M19.0445 11.2556C19.2303 11.2553 19.4302 11.2554 19.6459 11.2555L20.0014 11.2556C22.8494 11.2556 23.187 11.2658 24.3116 11.3169C25.3516 11.3645 25.9161 11.5383 26.2921 11.6843C26.7899 11.8776 27.1448 12.1087 27.5179 12.4821C27.8912 12.8554 28.1223 13.211 28.3161 13.7087C28.4621 14.0843 28.6361 14.6487 28.6835 15.6888C28.7346 16.8132 28.7457 17.151 28.7457 19.9977C28.7457 22.8444 28.7346 23.1822 28.6835 24.3066C28.6359 25.3466 28.4621 25.9111 28.3161 26.2866C28.1228 26.7844 27.8912 27.1389 27.5179 27.512C27.1446 27.8853 26.7901 28.1164 26.2921 28.3098C25.9165 28.4564 25.3516 28.6298 24.3116 28.6773C23.1872 28.7284 22.8494 28.7396 20.0014 28.7396C17.1531 28.7396 16.8156 28.7284 15.6911 28.6773C14.6511 28.6293 14.0866 28.4556 13.7104 28.3096C13.2126 28.1162 12.8571 27.8851 12.4837 27.5118C12.1104 27.1384 11.8793 26.7838 11.6855 26.2858C11.5395 25.9102 11.3655 25.3457 11.3182 24.3057C11.2671 23.1813 11.2568 22.8435 11.2568 19.995C11.2568 17.1465 11.2671 16.8105 11.3182 15.6861C11.3657 14.6461 11.5395 14.0816 11.6855 13.7056C11.8788 13.2078 12.1104 12.8523 12.4837 12.4789C12.8571 12.1056 13.2126 11.8745 13.7104 11.6807C14.0864 11.534 14.6511 11.3607 15.6911 11.3129C16.6751 11.2685 17.0565 11.2552 19.0445 11.2529V11.2556ZM25.6952 13.0275C24.9885 13.0275 24.4152 13.6001 24.4152 14.307C24.4152 15.0137 24.9885 15.587 25.6952 15.587C26.4019 15.587 26.9752 15.0137 26.9752 14.307C26.9752 13.6004 26.4019 13.027 25.6952 13.027V13.0275ZM14.5235 20.0009C14.5235 16.9759 16.9761 14.5232 20.0012 14.5231C23.0263 14.5231 25.4783 16.9758 25.4783 20.0009C25.4783 23.0261 23.0265 25.4777 20.0014 25.4777C16.9762 25.4777 14.5235 23.0261 14.5235 20.0009Z" fill="#5D71DD"/>
<path fill-rule="evenodd" clip-rule="evenodd" d="M20.0009 16.4443C21.9645 16.4443 23.5565 18.0361 23.5565 19.9999C23.5565 21.9635 21.9645 23.5555 20.0009 23.5555C18.0371 23.5555 16.4453 21.9635 16.4453 19.9999C16.4453 18.0361 18.0371 16.4443 20.0009 16.4443V16.4443Z" fill="#5D71DD"/>
</svg>
