<svg width="14" height="15" viewBox="0 0 14 15" fill="none" xmlns="http://www.w3.org/2000/svg">
<g clip-path="url(#clip0)">
<path d="M6.99998 0.5C4.12126 0.5 1.7793 2.84291 1.7793 5.72276C1.7793 10.0136 6.48033 14.2032 6.68052 14.3794C6.77178 14.4598 6.88586 14.5001 6.99998 14.5001C7.1141 14.5001 7.22817 14.4599 7.31948 14.3794C7.51958 14.2032 12.2207 10.0136 12.2207 5.72276C12.2207 2.84291 9.8787 0.5 6.99998 0.5ZM6.99998 4.25658C7.79963 4.25658 8.45018 4.9143 8.45018 5.72276C8.45018 6.53123 7.79963 7.18895 6.99998 7.18895C6.20033 7.18895 5.54977 6.53123 5.54977 5.72276C5.54977 4.9143 6.20033 4.25658 6.99998 4.25658Z" fill="#5D71DD"/>
</g>
<defs>
<clipPath id="clip0">
<rect width="14" height="14" fill="white" transform="translate(0 0.5)"/>
</clipPath>
</defs>
</svg>
