<svg width="20" height="20" viewBox="0 0 20 20" fill="none" xmlns="http://www.w3.org/2000/svg">
<path d="M19.8779 18.6996L14.0681 12.8897C15.17 11.5293 15.8334 9.79975 15.8334 7.9167C15.8334 3.55145 12.2819 0 7.91666 0C3.55141 0 0 3.55145 0 7.9167C0 12.2819 3.55145 15.8334 7.9167 15.8334C9.79975 15.8334 11.5293 15.17 12.8897 14.0681L18.6996 19.878C18.8623 20.0407 19.1261 20.0407 19.2889 19.878L19.878 19.2888C20.0407 19.1261 20.0407 18.8623 19.8779 18.6996ZM7.9167 14.1667C4.47024 14.1667 1.66668 11.3631 1.66668 7.9167C1.66668 4.47024 4.47024 1.66668 7.9167 1.66668C11.3631 1.66668 14.1667 4.47024 14.1667 7.9167C14.1667 11.3631 11.3631 14.1667 7.9167 14.1667Z" fill="white"/>
</svg>
