<?xml version="1.0" encoding="UTF-8"?>
<svg fill="#fff" xmlns="http://www.w3.org/2000/svg" id="Layer_1" data-name="Layer 1" viewBox="0 0 24 24" width="512" height="512"><path d="m23.707,22.293c.391.391.391,1.023,0,1.414-.195.195-.451.293-.707.293s-.512-.098-.707-.293L.293,1.707C-.098,1.316-.098.684.293.293S1.316-.098,1.707.293l4.628,4.628C8.142,2.461,10.839.757,13.828.207c.288-.056.593.025.82.215.229.19.36.472.36.769v12.404l1.688,1.688c1.806-1.817,1.803-4.763-.01-6.576-.391-.391-.391-1.023,0-1.414.391-.391,1.023-.391,1.414,0,2.592,2.592,2.596,6.808.01,9.404l1.44,1.44c3.316-3.481,3.266-9.011-.152-12.43-.391-.391-.391-1.023,0-1.414s1.023-.391,1.414,0c4.198,4.198,4.249,10.997.152,15.258l2.742,2.742ZM.009,10v4c0,2.757,2.243,5,5,5h1.269c1.807,2.502,4.53,4.237,7.551,4.793.06.011.12.017.181.017.232,0,.459-.081.64-.231.229-.19.36-.472.36-.769v-3.579L1.881,6.103C.74,7.02.009,8.426.009,10Z"/></svg>
