<svg width="40" height="40" viewBox="0 0 40 40" fill="none" xmlns="http://www.w3.org/2000/svg">
<path fill-rule="evenodd" clip-rule="evenodd" d="M0 20.0005C0 8.95479 8.95431 0.000488281 20 0.000488281C31.0457 0.000488281 40 8.95479 40 20.0005C40 31.0462 31.0457 40.0005 20 40.0005C8.95431 40.0005 0 31.0462 0 20.0005ZM16.34 19.4291V21.6005H19.9439C19.7987 22.5324 18.8546 24.3329 16.34 24.3329C14.1704 24.3329 12.4003 22.5414 12.4003 20.3338C12.4003 18.1262 14.1704 16.3348 16.34 16.3348C17.5746 16.3348 18.4007 16.8595 18.8727 17.3119L20.5975 15.6562C19.49 14.6248 18.0557 14.0005 16.34 14.0005C12.8269 14.0005 9.98557 16.8324 9.98557 20.3338C9.98557 23.8353 12.8269 26.6672 16.34 26.6672C20.0075 26.6672 22.4403 24.0976 22.4403 20.4786C22.4403 20.0624 22.3949 19.7457 22.3404 19.4291H16.34ZM28.1412 19.4291H29.9567V21.2386H28.1412V23.0481H26.3256V21.2386H24.51V19.4291H26.3256V17.6195H28.1412V19.4291Z" fill="white"/>
</svg>
