<svg width="40" height="40" viewBox="0 0 40 40" fill="none" xmlns="http://www.w3.org/2000/svg">
<path fill-rule="evenodd" clip-rule="evenodd" d="M20 40.0005C31.0457 40.0005 40 31.0462 40 20.0005C40 8.95479 31.0457 0.000488281 20 0.000488281C8.95431 0.000488281 0 8.95479 0 20.0005C0 31.0462 8.95431 40.0005 20 40.0005ZM16.3333 29.1672C16.8198 29.1672 17.0421 28.9507 17.3107 28.6892L17.3333 28.6672L19.7356 26.3313L24.7333 30.0237C25.6531 30.5311 26.3169 30.2684 26.546 29.1697L29.8268 13.7092C30.1627 12.3625 29.3135 11.7517 28.4336 12.1512L9.1686 19.5797C7.85358 20.1072 7.86125 20.8408 8.9289 21.1677L13.8727 22.7108L25.3182 15.4899C25.8585 15.1623 26.3544 15.3384 25.9474 15.6997L16.6738 24.0684L16.6737 24.0683L16.6737 24.0685L16.6733 24.0688L16.6736 24.069L16.3333 29.1672Z" fill="white"/>
</svg>
